<svg fill="none" height="700" viewBox="0 0 700 700" width="700" xmlns="http://www.w3.org/2000/svg"><rect fill="#dcf2ff" height="700" rx="120" width="700"/><g clip-rule="evenodd" fill-rule="evenodd"><path d="m385.33 393.384v136.697c0 7.127 8.617 10.697 13.657 5.657l39.867-39.867 93.345 93.345c7.42 7.42 19.45 7.42 26.87 0l29.702-29.702c7.42-7.42 7.42-19.45 0-26.87l-93.345-93.345 40.258-40.258c5.04-5.039 1.47-13.657-5.657-13.657h-136.697c-4.418 0-8 3.582-8 8z" fill="#ffc93d"/><path d="m314.144 307.089v-136.697c0-7.127-8.617-10.696-13.657-5.656l-39.867 39.867-93.345-93.345c-7.42-7.42-19.45-7.42-26.87 0l-29.702 29.702c-7.42 7.42-7.42 19.45 0 26.87l93.345 93.345-40.258 40.257c-5.039 5.04-1.47 13.657 5.657 13.657h136.697c4.418 0 8-3.582 8-8z" fill="#69cb84"/><path d="m306.143 385.384h-136.696c-7.128 0-10.697 8.617-5.657 13.657l39.867 39.867-93.345 93.345c-7.42 7.42-7.42 19.45 0 26.87l29.702 29.702c7.42 7.42 19.45 7.42 26.87 0l93.345-93.345 40.258 40.258c5.039 5.04 13.656 1.47 13.656-5.657v-136.697c0-4.418-3.581-8-8-8z" fill="#33a1fd"/><path d="m393.331 315.089h136.696c7.128 0 10.697-8.617 5.657-13.657l-39.867-39.866 93.345-93.345c7.42-7.42 7.42-19.45 0-26.87l-29.702-29.702c-7.42-7.42-19.45-7.42-26.87 0l-93.345 93.344-40.257-40.257c-5.04-5.04-13.657-1.471-13.657 5.657v136.696c0 4.419 3.581 8 8 8z" fill="#e15285"/></g></svg>