<svg fill="none" height="700" viewBox="0 0 700 700" width="700" xmlns="http://www.w3.org/2000/svg"><rect fill="#dcf2ff" height="700" rx="120" width="700"/><g clip-rule="evenodd" fill-rule="evenodd"><path d="m108.5 292.645c-25.5536-14.548-15.1312-54.302 14.108-53.813l8.617.162c5.009.087 9.95-1.199 14.309-3.722 4.36-2.524 7.979-6.194 10.483-10.629 2.503-4.435 3.8-9.474 3.755-14.595-.045-5.12-1.43-10.135-4.011-14.524l-4.409-7.55c-15.049-25.627 13.471-54.731 38.508-39.365l7.409 4.535c4.294 2.626 9.198 4.032 14.202 4.071 5.004.038 9.928-1.291 14.261-3.85s7.918-6.255 10.384-10.706c2.465-4.451 3.722-9.495 3.639-14.609l-.11-8.818c-.494-29.8713 38.42-40.5341 52.61-14.4l4.194 7.677c2.428 4.479 5.985 8.212 10.302 10.812 4.316 2.6 9.234 3.972 14.244 3.974 5.01.001 9.93-1.367 14.248-3.964s7.877-6.327 10.309-10.804l4.17-7.708c14.235-26.1161 53.132-15.4641 52.654 14.42l-.159 8.806c-.085 5.119 1.173 10.169 3.642 14.624 2.469 4.456 6.06 8.155 10.4 10.714 4.339 2.558 9.27 3.883 14.28 3.837s9.917-1.461 14.211-4.099l7.388-4.505c25.074-15.382 53.551 13.767 38.516 39.355l-4.43 7.544c-2.576 4.389-3.957 9.402-3.999 14.521-.042 5.118 1.256 10.155 3.76 14.587 2.504 4.433 6.123 8.1 10.481 10.622s9.297 3.807 14.304 3.721l8.628-.113c29.228-.505 39.66 39.267 14.09 53.769l-7.512 4.286c-4.382 2.482-8.035 6.117-10.579 10.529-2.544 4.411-3.886 9.438-3.888 14.558-.002 5.121 1.337 10.148 3.878 14.562 2.541 4.413 6.191 8.051 10.572 10.536l7.541 4.262c25.554 14.548 15.131 54.302-14.108 53.813l-8.617-.162c-5.009-.087-9.95 1.199-14.309 3.722-4.36 2.524-7.979 6.193-10.483 10.629-2.503 4.435-3.8 9.474-3.755 14.595.045 5.12 1.43 10.135 4.011 14.523l4.409 7.551c15.049 25.627-37.148 11.474-38.508 39.365l-7.381-4.527c-4.294-2.634-9.2-4.045-14.208-4.088s-9.936 1.284-14.273 3.843-7.926 6.258-10.393 10.712c-2.468 4.454-3.724 9.501-3.64 14.619l.11 8.818c.494 29.871-38.42 40.534-52.61 14.4l-4.194-7.677c-2.428-4.479-5.985-8.212-10.302-10.812-4.316-2.6-9.234-3.972-14.244-3.974-5.01-.001-9.93 1.367-14.248 3.964s-7.877 6.327-10.309 10.804l-4.17 7.708c-14.234 26.116-53.132 15.464-52.654-14.42l.159-8.806c.085-5.119-1.173-10.169-3.642-14.624-2.469-4.456-6.06-8.155-10.4-10.714-4.339-2.558-9.27-3.883-14.28-3.837-5.01.045-9.917 1.461-14.211 4.099l-7.388 4.505c-25.074 15.382-53.551-13.767-38.516-39.355l4.437-7.573c2.57-4.389 3.945-9.4 3.983-14.515.038-5.114-1.262-10.146-3.766-14.575-2.504-4.428-6.121-8.092-10.476-10.612s-9.29-3.804-14.294-3.72l-8.628.113c-29.2276.505-39.6605-39.267-14.09-53.769l7.512-4.286c4.382-2.482 8.035-6.117 10.579-10.529 2.544-4.411 3.886-9.438 3.888-14.558.002-5.121-1.337-10.148-3.878-14.562-2.541-4.413-6.191-8.051-10.572-10.536zm358.127 9.384c2.325 19.652.804 39.58-4.473 58.626l.028.008c-6.333 24.155-18.427 46.062-34.929 63.917l-87.503-110.902 34.845-132.909c12.999 5.178 25.232 12.241 36.314 20.996 15.324 12.106 28.141 27.203 37.706 44.416 9.566 17.212 15.688 36.196 18.012 55.848zm-122.961-129.731-34.846 132.91-130.035 51.277c-5.543-23.879-5.295-49.012 1.033-73.148 4.748-19.191 13.18-37.226 24.807-53.057 11.627-15.832 26.217-29.144 42.921-39.162 16.705-10.018 35.191-16.544 54.385-19.197 13.885-1.919 27.94-1.785 41.735.377zm-154.367 214.49c1.58 3.354 3.287 6.657 5.12 9.903 19.383 34.311 51.307 59.347 88.751 69.601s77.34 4.886 110.911-14.923c3.161-1.865 6.24-3.843 9.235-5.929l-86.074-109.132-.009.031z" fill="#33a1fd"/><path d="m605 505c0 27.848-11.062 54.555-30.754 74.246-19.691 19.692-46.398 30.754-74.246 30.754s-54.555-11.062-74.246-30.754c-19.692-19.691-30.754-46.398-30.754-74.246s11.062-54.555 30.754-74.246c19.691-19.692 46.398-30.754 74.246-30.754s54.555 11.062 74.246 30.754c19.692 19.691 30.754 46.398 30.754 74.246zm-52.106-39.769c-.938-.934-2.054-1.67-3.282-2.163-1.229-.492-2.544-.733-3.867-.706s-2.628.321-3.835.863c-1.207.543-2.293 1.323-3.191 2.295l-45.583 58.078-27.471-27.484c-1.866-1.738-4.334-2.685-6.884-2.64-2.551.045-4.984 1.078-6.787 2.882-1.804 1.803-2.837 4.236-2.882 6.787-.045 2.55.902 5.018 2.64 6.884l34.729 34.742c.936.934 2.05 1.669 3.276 2.163s2.539.736 3.861.712c1.322-.025 2.625-.315 3.832-.854s2.293-1.316 3.193-2.284l52.395-65.494c1.786-1.857 2.773-4.34 2.749-6.917-.025-2.577-1.059-5.041-2.88-6.864z" fill="#69cb84"/></g></svg>