<svg fill="none" height="700" viewBox="0 0 700 700" width="700" xmlns="http://www.w3.org/2000/svg"><rect fill="#dcf2ff" height="700" rx="120" width="700"/><path clip-rule="evenodd" d="m224.01 256.51c0 .168 0 .336.001.504h-.001v13.554c0 10.494 8.506 19 19 19h27.108c10.493 0 19-8.506 19-19v-13.554h.002c-.002-.174-.002-.35-.002-.525 0-33.348 27.034-60.382 60.382-60.382s60.382 27.034 60.382 60.382c0 .175 0 .351-.002.525h.002v109.531c.351-.193.702-.388 1.051-.584v69.575h64.057v-178.522c0-.168.001-.336.001-.504 0-69.306-56.184-125.49-125.491-125.49-69.306 0-125.49 56.184-125.49 125.49z" fill="#33a1fd" fill-rule="evenodd"/><rect fill="#ffc93d" height="229" rx="37" width="301" x="199" y="321"/><g fill="#e15285"><ellipse cx="350" cy="417.5" rx="43" ry="43.5"/><rect height="79" rx="18" width="36" x="332" y="417"/></g></svg>