<svg fill="none" height="700" viewBox="0 0 700 700" width="700" xmlns="http://www.w3.org/2000/svg" xmlns:xlink="http://www.w3.org/1999/xlink"><clipPath id="a"><rect height="700" rx="120" width="700"/></clipPath><g clip-path="url(#a)"><rect fill="#dcf2ff" height="700" rx="120" width="700"/><circle cx="349.294" cy="480.5" fill="#33a1fd" r="103.5"/><ellipse cx="136.455" cy="513.257" fill="#69cb84" rx="90.3264" ry="89.2574"/><path clip-rule="evenodd" d="m292.082 703.052h-310.8076c15.22594-63.087 79.0189-110.424 155.4036-110.424 76.385 0 140.178 47.337 155.404 110.424z" fill="#69cb84" fill-rule="evenodd"/><circle cx="561.715" cy="511.654" fill="#ffc93d" r="87.654"/><path clip-rule="evenodd" d="m716.915 702.807h-310.399c15.206-63.004 78.915-110.279 155.2-110.279 76.284 0 139.993 47.275 155.199 110.279z" fill="#ffc93d" fill-rule="evenodd"/><path clip-rule="evenodd" d="m529.84 700.056h-358.84c17.579-72.836 91.231-127.489 179.42-127.489s161.841 54.653 179.42 127.489z" fill="#33a1fd" fill-rule="evenodd"/><path d="m350 302c-3.18-.004-6.286-.934-8.913-2.669-38.915-25.563-55.766-43.091-65.06-54.05-19.806-23.359-29.289-47.342-29.022-73.312.312-29.761 24.987-53.969 55.004-53.969 21.826 0 36.944 11.898 45.748 21.807.279.311.623.56 1.01.731.387.17.808.259 1.233.259s.846-.089 1.233-.259c.387-.171.731-.42 1.01-.731 8.804-9.919 23.922-21.807 45.748-21.807 30.017 0 54.692 24.207 55.004 53.973.267 25.976-9.225 49.958-29.022 73.313-9.294 10.958-26.145 28.486-65.06 54.05-2.627 1.733-5.733 2.662-8.913 2.664z" fill="#e15285"/></g></svg>