<svg width="700" height="700" viewBox="0 0 700 700" fill="none" xmlns="http://www.w3.org/2000/svg">
<g clip-path="url(#clip0)">
<rect width="700" height="700" rx="120" fill="#DCF2FF"/>
<circle cx="349.294" cy="480.5" r="103.5" fill="#33A1FD"/>
<ellipse cx="136.455" cy="513.257" rx="90.3264" ry="89.2574" fill="#69CB84"/>
<path fill-rule="evenodd" clip-rule="evenodd" d="M292.082 703.052H-18.7256C-3.49966 639.965 60.2933 592.628 136.678 592.628C213.063 592.628 276.856 639.965 292.082 703.052Z" fill="#69CB84"/>
<circle cx="561.715" cy="511.654" r="87.654" fill="#FFC93D"/>
<path fill-rule="evenodd" clip-rule="evenodd" d="M716.915 702.807H406.516C421.722 639.803 485.431 592.528 561.716 592.528C638 592.528 701.709 639.803 716.915 702.807Z" fill="#FFC93D"/>
<path fill-rule="evenodd" clip-rule="evenodd" d="M529.84 700.056H171C188.579 627.22 262.231 572.567 350.42 572.567C438.609 572.567 512.261 627.22 529.84 700.056Z" fill="#33A1FD"/>
<path d="M350 302C346.82 301.996 343.714 301.066 341.087 299.331C302.172 273.768 285.321 256.24 276.027 245.281C256.221 221.922 246.738 197.939 247.005 171.969C247.317 142.208 271.992 118 302.009 118C323.835 118 338.953 129.898 347.757 139.807C348.036 140.118 348.38 140.367 348.767 140.538C349.154 140.708 349.575 140.797 350 140.797C350.425 140.797 350.846 140.708 351.233 140.538C351.62 140.367 351.964 140.118 352.243 139.807C361.047 129.888 376.165 118 397.991 118C428.008 118 452.683 142.207 452.995 171.973C453.262 197.949 443.77 221.931 423.973 245.286C414.679 256.244 397.828 273.772 358.913 299.336C356.286 301.069 353.18 301.998 350 302Z" fill="#E15285"/>
</g>
<defs>
<clipPath id="clip0">
<rect width="700" height="700" rx="120" fill="white"/>
</clipPath>
</defs>
</svg>
