<svg fill="none" height="700" viewBox="0 0 700 700" width="700" xmlns="http://www.w3.org/2000/svg" xmlns:xlink="http://www.w3.org/1999/xlink"><clipPath id="a"><rect height="700" rx="120" width="700"/></clipPath><g clip-path="url(#a)"><rect fill="#dcf2ff" height="700" rx="120" width="700"/><g clip-rule="evenodd" fill-rule="evenodd"><path d="m470.148 480.722h249.483v-233.404c0-14.775-11.977-26.752-26.752-26.752h-222.731v74.752c-4.686-1.283-9.631-1.97-14.743-1.97-29.784 0-53.929 23.313-53.929 52.07s24.145 52.069 53.929 52.069c5.112 0 10.057-.687 14.743-1.97z" fill="#e15285"/><path d="m543.709 470.049c-1.983-5.504-3.064-11.439-3.064-17.626 0-28.714 23.277-51.992 51.992-51.992 28.714 0 51.991 23.278 51.991 51.992 0 6.187-1.08 12.122-3.063 17.626h78.066v222.73c0 14.775-11.977 26.752-26.752 26.752h-229.401v-249.482z" fill="#ffc93d"/><path d="m397.663 490.468c0-7.262-1.486-14.176-4.17-20.456h76.655v75.294c5.749-2.189 11.986-3.388 18.503-3.388 28.715 0 51.992 23.277 51.992 51.991s-23.277 51.992-51.992 51.992c-6.517 0-12.754-1.199-18.503-3.389v76.689h-222.302c-14.775 0-26.752-11.977-26.752-26.752v-222.437h76.656c-2.684 6.28-4.17 13.194-4.17 20.456 0 28.757 23.3 52.069 52.041 52.069 28.742 0 52.042-23.312 52.042-52.069z" fill="#33a1fd"/><path d="m159.98 328.338-72.7718-26.659 77.4108-211.3157c5.082-13.873 20.448-20.9994 34.321-15.9174l211.316 77.4111-26.396 72.057c-4.712-4.103-10.24-7.43-16.456-9.707-27.285-9.996-57.507 4.021-67.503 31.306-9.995 27.285 4.021 57.507 31.307 67.502 6.216 2.278 12.585 3.309 18.832 3.22l-26.396 72.057-72.772-26.658c.365 6.892-.628 13.969-3.152 20.859-9.995 27.285-40.217 41.302-67.503 31.306-27.285-9.995-41.301-40.217-31.306-67.502 2.524-6.89 6.338-12.934 11.069-17.959z" fill="#69cb84"/></g></g></svg>