<svg width="700" height="700" viewBox="0 0 700 700" fill="none" xmlns="http://www.w3.org/2000/svg">
<rect width="700" height="700" rx="120" fill="#DCF2FF"/>
<path fill-rule="evenodd" clip-rule="evenodd" d="M522.449 143.086C502.153 107.931 456.951 95.4535 421.796 115.75C391.393 133.303 378.462 169.622 388.651 201.859L261.857 275.064C254.204 279.482 251.582 289.268 256 296.92C260.419 304.573 270.204 307.195 277.857 302.777L404.651 229.572C427.475 254.515 465.393 261.475 495.796 243.922C530.951 223.625 542.746 178.24 522.449 143.086Z" fill="#FFC93D"/>
<path fill-rule="evenodd" clip-rule="evenodd" d="M116 313.086C95.7035 348.24 107.498 393.625 142.653 413.922C173.056 431.475 210.975 424.515 233.798 399.572L352.438 468.069C360.091 472.487 369.876 469.865 374.294 462.212C378.713 454.56 376.091 444.774 368.438 440.356L249.798 371.859C259.987 339.622 247.056 303.303 216.653 285.75C181.498 265.454 136.296 277.931 116 313.086Z" fill="#33A1FD"/>
<rect x="485.306" y="400" width="148" height="147" rx="73.5" transform="rotate(60 485.306 400)" fill="#E15285"/>
</svg>
