<svg fill="none" height="700" viewBox="0 0 700 700" width="700" xmlns="http://www.w3.org/2000/svg"><rect fill="#dcf2ff" height="700" rx="120" width="700"/><path clip-rule="evenodd" d="m522.449 143.086c-20.296-35.155-65.498-47.6325-100.653-27.336-30.403 17.553-43.334 53.872-33.145 86.109l-126.794 73.205c-7.653 4.418-10.275 14.204-5.857 21.856 4.419 7.653 14.204 10.275 21.857 5.857l126.794-73.205c22.824 24.943 60.742 31.903 91.145 14.35 35.155-20.297 46.95-65.682 26.653-100.836z" fill="#ffc93d" fill-rule="evenodd"/><path clip-rule="evenodd" d="m116 313.086c-20.2965 35.154-8.502 80.539 26.653 100.836 30.403 17.553 68.322 10.593 91.145-14.35l118.64 68.497c7.653 4.418 17.438 1.796 21.856-5.857 4.419-7.652 1.797-17.438-5.856-21.856l-118.64-68.497c10.189-32.237-2.742-68.556-33.145-86.109-35.155-20.296-80.357-7.819-100.653 27.336z" fill="#33a1fd" fill-rule="evenodd"/><rect fill="#e15285" height="147" rx="73.5" transform="matrix(.5 .8660254 -.8660254 .5 589.063162 -220.287325)" width="148" x="485.306" y="400"/></svg>