<svg fill="none" height="29" viewBox="0 0 1100 29" width="1100" xmlns="http://www.w3.org/2000/svg" xmlns:xlink="http://www.w3.org/1999/xlink"><clipPath id="a"><path d="m0 0h1100v29h-1100z"/></clipPath><g clip-path="url(#a)" fill="#041633"><g clip-rule="evenodd" fill-rule="evenodd"><path d="m14.1842 5.52372v2.49502c0 .16267-.1085.27099-.2708.27099h-10.69243v5.09837h8.82493c.1624 0 .2705.1087.2705.2713v2.4951c0 .1626-.1081.271-.2705.271h-8.82493v7.539c0 .1627-.10779.271-.2705.271h-2.679968c-.16237 0-.270502-.1083-.270502-.271v-18.44078c0-.16267.108132-.27134.270502-.27134h13.642898c.1623 0 .2708.10867.2708.27134z"/><path d="m30.3305 16.2084c-.9879-2.7389-2.084-5.4781-3.2079-7.97307h-.6357c-1.1236 2.49497-2.2334 5.23417-3.2214 7.97307zm5.671 8.027h-2.9505c-.1624 0-.2705-.0815-.311-.2441-.3927-1.5593-.8664-3.1997-1.4078-4.8542h-9.0546c-.5414 1.6545-1.0154 3.2949-1.3944 4.8542-.0405.1626-.1486.2441-.311.2441h-2.8423c-.1895 0-.298-.1083-.2438-.2981 1.7054-6.0476 4.304-12.7186 6.9298-18.33214.1218-.25793.2708-.3525.5279-.3525h3.8437c.2571 0 .4061.09457.528.3525 2.6528 5.59974 5.2109 12.28454 6.9297 18.33214.0542.1898-.0542.2981-.2437.2981z"/><path d="m40.8463 14.9068c0-5.88487 3.8708-10.0069 9.3931-10.0069h.4058c3.465 0 6.145 1.76285 7.5658 4.31186.0947.16267.0676.29851-.0948.37967l-2.382 1.17957c-.1623.0815-.3655.0815-.4737-.1217-1.0013-1.7357-2.5038-2.65771-4.7235-2.65771h-.4061c-3.4784 0-5.8738 2.76601-5.8738 6.77971 0 4.0268 2.3549 6.7254 5.8738 6.7254h.4061c2.2739 0 3.6003-.7731 4.6154-1.9527.1352-.1493.2842-.1761.4466-.0949l2.4496 1.1933c.0948.054.1353.1218.1353.1895 0 .0681-.0272.1224-.081.2036-1.5022 2.1965-4.2093 3.5525-7.5116 3.5525h-.4061c-5.6171 0-9.3389-3.8644-9.3389-9.6812"/><path d="m79.7713 21.4696v2.495c0 .1626-.1085.271-.2709.271h-14.2113c-.1624 0-.2709-.1084-.2709-.271v-18.44082c0-.16267.1085-.27134.2709-.27134h13.9676c.1627 0 .2708.10867.2708.27134v2.49502c0 .16267-.1081.271-.2708.271h-11.0171v4.9354h8.9598c.1624 0 .2709.1086.2709.2713v2.4678c0 .1627-.1085.2714-.2709.2714h-8.9598v4.9625h11.2608c.1624 0 .2709.1083.2709.2714z"/><path d="m100.939 18.7439c0-1.7625-1.1644-2.5628-3.7225-2.5628h-6.3747v5.0984h6.3747c2.5989 0 3.7225-.7594 3.7225-2.5356zm-4.6291-10.53552h-5.4681v5.09842h5.4681c2.4496 0 3.5728-.8 3.5728-2.5491 0-1.7494-1.1232-2.54932-3.5728-2.54932zm7.9311 10.82022c0 3.3221-2.544 5.2071-7.0379 5.2071h-9.3118c-.1623 0-.2708-.1087-.2708-.271v-18.44083c0-.16301.1085-.27134.2708-.27134h8.4862c4.3715 0 6.7535 1.73568 6.7535 4.90857 0 2.0881-1.055 3.4576-3.1937 4.0948 3.0047.6373 4.3037 2.4407 4.3037 4.7727z"/><path d="m120.062 21.4967c3.885 0 6.334-2.6714 6.334-6.7525 0-4.0814-2.449-6.75289-6.334-6.75289h-.406c-3.884 0-6.334 2.67149-6.334 6.75289 0 4.0811 2.45 6.7525 6.334 6.7525zm-10.151-6.7525c0-5.72221 3.79-9.84424 9.745-9.84424h.406c5.955 0 9.745 4.12203 9.745 9.84424 0 5.7219-3.79 9.8439-9.745 9.8439h-.406c-5.955 0-9.745-4.122-9.745-9.8439z"/><path d="m145.453 21.4967c3.884 0 6.333-2.6714 6.333-6.7525 0-4.0814-2.449-6.75289-6.333-6.75289h-.407c-3.884 0-6.334 2.67149-6.334 6.75289 0 4.0811 2.45 6.7525 6.334 6.7525zm-10.151-6.7525c0-5.72221 3.789-9.84424 9.744-9.84424h.407c5.955 0 9.745 4.12203 9.745 9.84424 0 5.7219-3.79 9.8439-9.745 9.8439h-.407c-5.955 0-9.744-4.122-9.744-9.8439z"/><path d="m178.544 24.2356h-3.492c-.23 0-.325-.0544-.474-.2304-2.449-2.8881-5.346-5.7628-7.809-7.8782h-1.57v7.8376c0 .1626-.108.271-.271.271h-2.68c-.162 0-.271-.1084-.271-.271v-18.44082c0-.16267.109-.27134.271-.27134h2.68c.163 0 .271.10867.271.27134v7.48472h1.597c2.639-2.3864 5.075-4.96288 7.065-7.55247.135-.17642.243-.20359.406-.20359h3.302c.163 0 .244.08151.244.19018 0 .05399-.027.12174-.095.20325-2.91 3.5931-5.792 6.53553-8.459 8.81353 3.356 2.8475 6.537 6.0201 9.434 9.4371.148.1764.067.3391-.149.3391"/></g><path d="m268.508 4.83807v8.23983h-7.805v-8.23983h-3.703v19.66953h3.704v-7.9724h7.803v7.9724h3.706v-19.66953zm15.561 13.31203c0 .7884-.323 1.5445-.898 2.1019-.575.5575-1.354.8707-2.167.8707s-1.593-.3132-2.167-.8707c-.575-.5574-.898-1.3135-.898-2.1019v-8.42552h-3.514v8.42552c0 1.6905.693 3.3117 1.925 4.5071 1.233 1.1954 2.904 1.8669 4.647 1.8669s3.415-.6715 4.648-1.8669c1.232-1.1954 1.925-2.8166 1.925-4.5071v-8.42552h-3.501zm26.035-7.5573c0-1.72769 1.178-2.27506 2.469-2.27506 1.04 0 2.414.76807 3.313 1.69946l2.3-2.63087c-1.148-1.50698-3.478-2.54826-5.386-2.54826-3.812 0-6.569 2.16519-6.569 5.75473 0 6.6599 8.393 4.5462 8.393 8.2738 0 1.1492-1.151 2.1642-2.468 2.1642-2.079 0-2.752-.9849-3.707-2.0271l-2.554 2.5755c1.634 1.9445 3.649 2.9323 6.062 2.9323 3.622 0 6.535-2.1915 6.535-5.6177 0-7.3929-8.394-5.0955-8.394-8.301zm51.923 10.7725c-2.076 0-2.667-.8712-2.667-2.2051v-5.9064h3.228v-2.9925h-3.228v-3.94833l-3.562 1.55073v12.0306c0 3.0771 2.189 4.6279 5.19 4.6279.472.0077.943-.0292 1.406-.1089l.869-3.1034c-.392.0262-.842.0525-1.236.0525zm-64.583-11.54252c-1.74 0-2.955.49002-4.13 1.60712v-6.47418h-3.519v12.00038c0 4.4918 3.348 7.5699 7.112 7.5699 4.174 0 7.846-3.1325 7.846-7.3501 0-4.1651-3.379-7.35021-7.309-7.35021zm-.022 11.26832c-.524 0-1.044-.1002-1.528-.2948-.485-.1946-.925-.4799-1.296-.8396-.37-.3596-.665-.7865-.865-1.2564-.201-.4699-.304-.9735-.304-1.4821s.103-1.0123.304-1.4821c.2-.4699.495-.8969.865-1.2565.371-.3597.811-.6449 1.296-.8396.484-.1946 1.004-.2948 1.528-.2948 1.059 0 2.075.4081 2.824 1.1344s1.169 1.7114 1.169 2.7386c0 1.0271-.42 2.0122-1.169 2.7385-.749.7264-1.765 1.1344-2.824 1.1344zm38.237-4.0941c0-4.2254-3.664-7.3502-7.847-7.3502-3.762 0-7.111 3.0772-7.111 7.5699v12.0072h3.518v-6.4829c1.173 1.1152 2.39 1.6071 4.129 1.6071 3.929 0 7.31-3.1851 7.31-7.3511zm-3.333-.0428c0 1.0272-.42 2.0123-1.169 2.7386s-1.765 1.1343-2.824 1.1343-2.075-.408-2.824-1.1343-1.169-1.7114-1.169-2.7386.42-2.0123 1.169-2.7386 1.765-1.1343 2.824-1.1343 2.075.408 2.824 1.1343 1.169 1.7114 1.169 2.7386z"/><path d="m347.029 9.48134v-3.42911c.467-.21179.863-.54792 1.141-.96927.278-.42136.426-.9106.429-1.41079v-.07875c0-1.45837-1.219-2.640621-2.723-2.640621h-.081c-.722 0-1.415.278211-1.925.773421-.511.49521-.798 1.16686-.798 1.8672v.07875c.002.50019.151.98943.429 1.41079.278.42135.674.75748 1.141.96927v3.42911c-1.343.19941-2.608.73936-3.666 1.56536l-9.697-7.32495c.069-.24208.105-.49098.109-.74085.001-.58849-.177-1.16411-.514-1.65404-.336-.489928-.814-.87216-1.374-1.098344-.561-.22618464-1.177-.2861604-1.773-.1723411-.595.1138191-1.142.3963201-1.572.8117691-.43.415446-.723.945176-.842 1.522186s-.06 1.17538.172 1.71941c.231.54403.624 1.00928 1.128 1.33691s1.097.50292 1.704.50369c.53-.00242 1.051-.13987 1.51-.39862l9.549 7.20628c-.858 1.2568-1.305 2.7351-1.284 4.2421s.51 2.973 1.402 4.2067l-2.904 2.8176c-.235-.0728-.479-.1115-.726-.1147-.498.0003-.985.1439-1.399.4125s-.736.6502-.927 1.0966c-.19.4464-.24.9375-.142 1.4112.097.4738.337.909.689 1.2506.352.3415.801.5742 1.289.6685.489.0944.995.0461 1.455-.1385.461-.1847.854-.4976 1.131-.8991s.425-.8736.425-1.3566c-.003-.2391-.043-.4763-.118-.704l2.873-2.7874c.937.6996 2.027 1.1818 3.186 1.4099 1.158.228 2.356.1958 3.5-.0941 1.143-.29 2.204-.8301 3.099-1.579.896-.7488 1.603-1.6865 2.067-2.7412s.673-2.1984.611-3.3435c-.062-1.1452-.394-2.2614-.969-3.2631-.576-1.0016-1.38-1.8623-2.352-2.5159-.971-.6537-2.084-1.08298-3.253-1.25506zm-1.191 11.27806c-.531.0142-1.06-.075-1.554-.2623-.495-.1873-.946-.4689-1.327-.8281s-.683-.7888-.89-1.2634-.313-.9845-.313-1.4997.106-1.0251.313-1.4997.509-.9042.89-1.2634.832-.6408 1.327-.8281c.494-.1873 1.023-.2765 1.554-.2623 1.029.0349 2.004.4559 2.72 1.1741.715.7183 1.115 1.6778 1.116 2.6765 0 .9987-.399 1.9587-1.114 2.6776-.714.719-1.689 1.1409-2.718 1.1768"/><path d="m609.168 3.3811h-4.168v4.23412h4.168z"/><path d="m609.064 25.4407v-15.2489h-3.945v15.2489zm26.222.1506v-3.7368c-.578 0-1.068-.0302-1.424-.0904-.415-.0603-.726-.211-.934-.4219-.208-.211-.341-.5124-.415-.9041-.06-.3767-.089-.874-.089-1.4767v-5.3341h2.862v-3.4355h-2.862v-5.95186h-3.96v14.75156c0 1.2507.104 2.3055.311 3.1493.208.8287.564 1.5068 1.053 2.0191.49.5123 1.142.8739 1.928 1.0999.801.2261 1.81.3315 3.011.3315zm22.663-.1506v-22.37606h-3.96v22.37606zm-33.297-13.7572c-1.098-1.2054-2.64-1.80811-4.598-1.80811-.949 0-1.809.19591-2.595.58761-.772.3918-1.439.9343-1.958 1.6274l-.223.2863v-.2562-1.9287h-3.9v15.2489h3.93v-8.1217.5575c0-.0904 0-.1808 0-.2712.045-1.4315.386-2.4862 1.038-3.1643.697-.7233 1.543-1.0849 2.507-1.0849 1.142 0 2.017.3616 2.595 1.0548.564.6931.861 1.6725.861 2.9232v.0301 8.0614h3.989v-8.6491c.015-2.1698-.548-3.8875-1.646-5.093zm27.29 6.1026c0-1.1-.193-2.1246-.563-3.0889-.386-.9493-.92-1.7931-1.587-2.5164-.683-.7233-1.498-1.2808-2.448-1.6876-.949-.4069-2.002-.60275-3.144-.60275-1.083 0-2.106.21095-3.055.61775-.949.4219-1.78.9795-2.477 1.6877s-1.261 1.552-1.661 2.5163c-.416.9644-.608 2.0041-.608 3.104 0 1.1.192 2.1397.578 3.1041.386.9643.934 1.8081 1.617 2.5163.682.7082 1.527 1.2808 2.506 1.6876.979.4219 2.062.6329 3.219.6329 3.352 0 5.428-1.552 6.674-2.9985l-2.848-2.2c-.593.7233-2.017 1.7027-3.797 1.7027-1.112 0-2.032-.2561-2.729-.7835-.697-.5123-1.171-1.2356-1.423-2.1246l-.045-.1356h11.791zm-11.761-1.4013c0-1.1151 1.26-3.0588 3.975-3.0739 2.714 0 3.989 1.9438 3.989 3.0588z"/><path d="m890.653 15.6727c-1.014-.5255-2.084-.9386-3.191-1.2316-.931-.2533-1.837-.5839-2.71-.9881-1.168-.5728-1.702-1.3433-1.629-2.3228.081-1.097.738-1.82164 2.003-2.21403 1.609-.50123 3.27-.34656 5.226.48691l.234.09738c.034.01481.071.02261.108.02294.038.00032.075-.00684.109-.02105.035-.01421.066-.03518.092-.0616.026-.02643.046-.05777.059-.09209l.584-1.36907c.03-.06953.031-.14801.003-.2183-.029-.07029-.084-.12669-.155-.1569l-.234-.10025c-2.423-1.03109-4.525-1.20867-6.616-.55564s-3.282 2.045-3.434 4.0098c-.096 1.3003.292 3.1048 2.762 4.3277.971.4631 1.982.8426 3.019 1.1342.963.2514 1.895.6048 2.78 1.0541.943.5298 1.37 1.2287 1.34 2.2025.015.4895-.12.9721-.388 1.3856-.267.4135-.655.7389-1.112.9344-.97.4783-2.062.5413-3.002.5413-1.478-.0231-2.918-.4648-4.146-1.2717l-.213-.126c-.064-.0335-.138-.0426-.208-.0257s-.131.0587-.172.1173l-.809 1.2774c-.036.0559-.052.1224-.044.1882s.039.1268.088.1727c1.597 1.0911 3.496 1.6785 5.443 1.6841 5.723 0 6.543-2.8956 6.599-4.8175.052-1.7815-.751-3.1477-2.386-4.0642z"/><path d="m775.317 20.7652c0 .7218-.622 1.8446-2.464 1.8446-1.346 0-2.564-.9853-2.92-1.3662-.049-.0509-.115-.0825-.186-.0889-.071-.0063-.142.0131-.199.0545l-1.358.9967c-.031.0228-.057.0514-.076.0841-.02.0327-.033.0689-.038.1065-.005.0375-.003.0757.007.1123.01.0367.028.071.051.101.6.6668 1.335 1.204 2.158 1.5773.823.3732 1.716.5744 2.622.5908 4.193 0 4.62-2.6751 4.62-3.9067v-14.16321c0-.07597-.031-.14882-.086-.20253s-.129-.08389-.206-.08389h-1.63c-.077 0-.151.03018-.206.08389s-.086.12656-.086.20253z"/><path d="m785.181 24.4829h10.468c.077 0 .151-.0302.206-.0839s.086-.1265.086-.2025v-1.5953c0-.076-.031-.1488-.086-.2026-.055-.0537-.129-.0838-.206-.0838h-8.258c-.077 0-.152-.0302-.206-.0839-.055-.0537-.086-.1266-.086-.2026v-5.207c0-.076.031-.1488.086-.2025.054-.0537.129-.0839.206-.0839h7.884c.077 0 .152-.0302.206-.0839.055-.0537.086-.1266.086-.2025v-1.5925c0-.076-.031-.1488-.086-.2025-.054-.0537-.129-.0839-.206-.0839h-7.884c-.077 0-.152-.0302-.206-.0839-.055-.0537-.086-.1266-.086-.2025v-5.20705c0-.07596.031-.14881.086-.20253.054-.05371.129-.08389.206-.08389h8.258c.077 0 .151-.03017.206-.08389.055-.05371.086-.12656.086-.20252v-1.59533c0-.07597-.031-.14882-.086-.20253s-.129-.08389-.206-.08389h-10.468c-.078 0-.152.03018-.207.08389-.054.05371-.085.12656-.085.20253v17.48851c0 .076.031.1488.085.2025.055.0537.129.0839.207.0839z"/><path d="m804.852 6.42157h-1.626c-.078 0-.152.03018-.207.08389s-.085.12656-.085.20253v17.48851c0 .076.03.1488.085.2025s.129.0839.207.0839h9.361c.077 0 .152-.0302.206-.0839.055-.0537.086-.1265.086-.2025v-1.5953c0-.076-.031-.1488-.086-.2026-.054-.0537-.129-.0838-.206-.0838h-7.151c-.077 0-.152-.0302-.206-.0839-.055-.0537-.086-.1266-.086-.2026v-15.32031c0-.07597-.031-.14882-.085-.20253-.055-.05371-.129-.08389-.207-.08389z"/><path d="m821.057 6.42157h-1.629c-.077 0-.152.03018-.206.08389-.055.05371-.086.12656-.086.20253v17.48851c0 .076.031.1488.086.2025.054.0537.129.0839.206.0839h9.361c.078 0 .152-.0302.207-.0839s.085-.1265.085-.2025v-1.5953c0-.076-.03-.1488-.085-.2026-.055-.0537-.129-.0838-.207-.0838h-7.15c-.078 0-.152-.0302-.207-.0839s-.085-.1266-.085-.2026v-15.32031c0-.07547-.031-.14789-.085-.20153-.054-.05363-.128-.08414-.205-.08489z"/><path d="m839.888 14.6531-5.414-8.10264c-.026-.0394-.062-.07178-.104-.09427-.043-.02248-.09-.03438-.138-.03462h-1.898c-.053.00044-.104.01491-.149.04188-.046.02697-.082.06542-.107.11126-.024.04585-.036.09737-.033.14908s.02.10168.05.14459l6.879 10.41122c.032.0486.049.1053.05.1632v6.7537c0 .076.03.1488.085.2025s.129.0839.207.0839h1.626c.077 0 .152-.0302.206-.0839.055-.0537.086-.1265.086-.2025v-6.768c0-.0536.015-.1062.044-.1518l6.324-10.41691c.028-.0432.043-.0928.044-.14372.002-.05091-.01-.10129-.035-.14593-.025-.04465-.062-.08195-.107-.10807-.044-.02611-.095-.04009-.147-.0405h-1.921c-.048.00024-.096.01214-.138.03462-.042.02249-.078.05487-.105.09427l-4.806 8.10264c-.027.039-.063.071-.105.0931s-.089.0336-.137.0336-.095-.0115-.138-.0336c-.042-.0221-.078-.0541-.105-.0931z"/><path d="m854.782 24.4829h1.627c.077 0 .151-.0302.206-.0839s.086-.1265.086-.2025v-7.3752c0-.076.03-.1488.085-.2025s.129-.0839.207-.0839h6.423c.078 0 .152-.0302.207-.0839s.085-.1266.085-.2025v-1.5925c0-.076-.03-.1488-.085-.2025s-.129-.0839-.207-.0839h-6.423c-.078 0-.152-.0302-.207-.0839s-.085-.1266-.085-.2025v-5.20705c0-.07596.03-.14881.085-.20253.055-.05371.129-.08389.207-.08389h6.782c.078 0 .152-.03017.207-.08389.055-.05371.085-.12656.085-.20252v-1.59533c0-.07597-.03-.14882-.085-.20253s-.129-.08389-.207-.08389h-8.993c-.077 0-.151.03018-.206.08389s-.086.12656-.086.20253v17.48851c0 .076.031.1488.086.2025s.129.0839.206.0839z"/><path d="m873.718 6.42157h-1.627c-.161 0-.292.12823-.292.28642v17.48851c0 .1582.131.2864.292.2864h1.627c.161 0 .292-.1282.292-.2864v-17.48851c0-.15819-.131-.28642-.292-.28642z"/><path d="m910.097 6.70799v8.09691c0 .076-.031.1489-.086.2026s-.129.0839-.206.0839h-7.884c-.078 0-.152-.0302-.207-.0839-.054-.0537-.085-.1266-.085-.2026v-8.09691c0-.07597-.031-.14882-.086-.20253-.054-.05371-.129-.08389-.206-.08389h-1.626c-.078 0-.152.03018-.207.08389s-.085.12656-.085.20253v17.48851c0 .076.03.1488.085.2025s.129.0839.207.0839h1.626c.077 0 .152-.0302.206-.0839.055-.0537.086-.1265.086-.2025v-7.0143c0-.076.031-.1488.085-.2025.055-.0537.129-.0839.207-.0839h7.884c.077 0 .151.0302.206.0839s.086.1265.086.2025v7.0143c0 .076.03.1488.085.2025s.129.0839.207.0839h1.626c.077 0 .152-.0302.206-.0839.055-.0537.086-.1265.086-.2025v-17.48851c0-.07597-.031-.14882-.086-.20253-.054-.05371-.129-.08389-.206-.08389h-1.626c-.078 0-.152.03018-.207.08389s-.085.12656-.085.20253z"/><path d="m760.876 20.2754c7.139-16.52043-15.601-27.44145-24.527-11.83182-1.212 2.09652.931 3.96682 3.425 5.39892.06.0338.104.0888.124.1537s.014.135-.016.1957l-2.243 4.4939c-.187.3562-.236.7669-.139 1.156.098.3891.336.7303.671.9606.194.1279.414.2136.644.2515.231.0379.467.0271.693-.0318.226-.0588.437-.1643.618-.3093.181-.1451.329-.3264.433-.5319l2.193-4.3764c.152-.3036.438-.0888 1.028.1947.528.2549.931.4812 1.46.7447.063.0324.112.0881.134.155.022.067.017.1398-.015.203l-4.934 9.847c-.187.3568-.236.7677-.138 1.1571.097.3894.335.7312.669.9623.194.1275.414.2131.644.2509.231.0379.467.0272.693-.0313.226-.0586.436-.1636.618-.3081.181-.1445.329-.3252.434-.5301l4.963-9.9186c.032-.0633.088-.1119.155-.1355.068-.0235.142-.0201.207.0095.544.252 1.078.4812 1.493.6788.584.2864.937.3723.782.6788l-3.361 6.7164c-.185.3573-.234.7682-.136 1.1575.099.3893.337.7309.671.962.194.1274.414.2128.644.2504.231.0377.467.0267.693-.0321.226-.0587.436-.164.618-.3089.181-.1448.329-.3258.433-.5309l3.489-6.9742c.031-.061.085-.1082.15-.1321s.137-.0228.201.0032c2.686 1.0655 5.571 1.6125 6.529-.5986z"/><path clip-rule="evenodd" d="m455.286 6.42233v9.64157c0 3.2196-1.437 4.5567-4.807 4.5567s-4.807-1.3371-4.807-4.5567v-10.0639h-3.246c-.284 0-.426.14097-.426.42233v9.79977c0 5.3841 3.459 7.2667 8.479 7.2667s8.479-1.8826 8.479-7.2667v-10.2221h-3.246c-.284 0-.426.14097-.426.42233z" fill-rule="evenodd"/><path clip-rule="evenodd" d="m502.343 8.79756c.266 0 .39-.08785.479-.28165l.94-2.30489c.053-.14039 0-.21102-.142-.21102h-13.073c-1.224 0-1.685.36951-1.685 1.19637v14.97263c0 .7039.354 1.0206 1.295 1.0206h12.186c.266 0 .39-.0881.479-.2813l.94-2.3052c.053-.1407 0-.211-.142-.211h-11.157v-3.0439c0-1.0557.585-1.5309 2.164-1.5309h4.842c.266 0 .39-.0876.479-.2811l.905-2.217c.053-.141 0-.211-.142-.211h-8.248v-4.31064z" fill-rule="evenodd"/><path clip-rule="evenodd" d="m475.923 20.4274h-6.405v-3.1496c0-1.0557.585-1.5305 2.164-1.5305h4.241c2.04 0 2.608.774 2.608 2.3577 0 1.5834-.568 2.3224-2.608 2.3224zm-6.405-11.66515h5.731c1.916 0 2.448.71575 2.448 2.19925 0 1.4837-.532 2.1995-2.448 2.1995h-5.731zm9.811 5.36625c1.419-.739 2.004-2.1288 2.004-3.7651 0-3.80038-3.122-4.3634-6.35-4.3634h-7.379c-1.224 0-1.685.36951-1.685 1.19637v14.97263c0 .7039.355 1.0206 1.295 1.0206h9.082c3.423 0 5.871-1.3195 5.871-4.7504 0-2.0586-.887-3.8005-2.838-4.3107z" fill-rule="evenodd"/><path clip-rule="evenodd" d="m519.646 13.9701h-6.031v-5.20756h6.031c2.252 0 2.749.86189 2.749 2.60376 0 1.7594-.497 2.6038-2.749 2.6038zm6.776 8.9204-3.885-6.6155c1.934-.4924 3.495-1.7591 3.495-4.979 0-4.16968-2.608-5.296-6.918-5.296h-7.415c-1.224 0-1.685.36951-1.685 1.19637v15.57093c0 .2814.142.4223.426.4223h3.175v-5.0143c0-1.0557.585-1.5308 2.164-1.5308h3.193l3.512 6.2638c.106.1757.213.2813.479.2813h3.299c.231 0 .231-.1938.16-.2991z" fill-rule="evenodd"/><path d="m1099.35 23.294c0-1.1387-.7-1.5766-1.75-1.5766-.61 0-8.06 0-8.06 0-3.94 0-4.91-2.365-5.08-3.854h10.95c3.33 0 4.38-2.4526 4.38-4.0292 0-1.6642-1.05-4.0292-4.38-4.0292-2.98 0-6.05 0-6.05 0-5.69 0-7.53 3.854-7.53 7.0073 0 3.416 2.1 7.0073 7.53 7.0073h9.99c0 .0875 0-.438 0-.5256zm-9.81-11.3868h5.26c1.92 0 2.36 1.1387 2.36 1.927 0 .7007-.44 1.927-2.36 1.927-1.32 0-10.52 0-10.52 0 .18-1.2263 1.32-3.854 5.26-3.854zm-23.39 11.124c-.61.7884-.87 1.1387-1.49 1.1387-.78 0-.96-.3503-1.49-1.1387-1.22-1.7518-8.58-13.13861-8.58-13.13861h1.05c1.75 0 2.28.78831 2.81 1.66421.43.7007 6.39 9.8102 6.39 9.8102s5.61-8.6715 6.39-9.8978c.53-.7883 1.23-1.57661 2.89-1.57661h.79s-7.71 11.73721-8.76 13.13861zm-55.27.8759c-1.31 0-1.84-.5255-2.01-1.5766l-.35-1.489c-.35.6131-2.1 3.0656-5.96 3.0656 0 0-1.92 0-3.94 0-5.956 0-7.62-4.0291-7.62-7.0072 0-3.3285 2.015-7.00731 7.62-7.00731h4.2c4.3 0 6.66 2.45251 7.19 5.51821.44 2.5402 1.57 8.4963 1.57 8.4963s-.26 0-.7 0zm-8.67-11.8247c-1.4 0-1.75 0-3.327 0-4.029 0-5.343 2.5401-5.343 4.8175 0 2.2773 1.314 4.8175 5.343 4.8175h3.327c4.21 0 5.34-2.6278 5.34-4.8175 0-1.927-1.05-4.8175-5.34-4.8175zm75.42-4.46718c.61 0 1.22-.35036 1.22-1.13868 0-.17518 0-.35036 0-.43795 0-.70073-.61-1.13869-1.22-1.13869-.62 0-1.23.35037-1.23 1.13869v.43795c0 .78832.61 1.13868 1.23 1.13868zm-1.14 2.27737h.52c1.14 0 1.84.61311 1.84 1.83941v12.1751s-.26 0-.52 0c-1.14 0-1.84-.7007-1.84-1.927 0-.0875 0-12.08751 0-12.08751zm-60.96 2.01461c.52-.5256 2.1-2.01461 5.16-2.01461h3.94c5.96 0 7.71 4.02921 7.71 7.00731 0 3.3284-2.1 7.0072-7.71 7.0072-1.13 0-2.36 0-4.2 0-4.29 0-7.36-2.7153-7.36-7.0072 0-1.4015 0-11.73722 0-11.73722h.7c1.23 0 1.76.61313 1.76 1.66422zm5.51 9.8102h3.33c3.94 0 5.35-2.5402 5.35-4.8175 0-2.2774-1.32-4.8175-5.35-4.8175-1.66 0-2.19 0-3.33 0-4.2 0-5.34 2.6277-5.34 4.8175-.09 1.927 1.05 4.8175 5.34 4.8175zm16.47-9.8102c.53-.5256 2.1-2.01461 5.17-2.01461h3.94c5.96 0 7.62 4.02921 7.62 7.00731 0 3.3284-2.01 7.0072-7.62 7.0072-1.14 0-2.36 0-4.2 0-4.3 0-7.36-2.7153-7.36-7.0072 0-1.4015 0-11.73722 0-11.73722h.7c1.23 0 1.75.61313 1.75 1.66422zm5.52 9.8102h3.33c4.03 0 5.34-2.5402 5.34-4.8175 0-2.2774-1.31-4.8175-5.34-4.8175-1.67 0-2.1 0-3.33 0-4.21 0-5.34 2.6277-5.34 4.8175-.09 1.927 1.05 4.8175 5.34 4.8175z"/></g></svg>