<svg width="1100" height="29" viewBox="0 0 1100 29" fill="none" xmlns="http://www.w3.org/2000/svg">
<path fill-rule="evenodd" clip-rule="evenodd" d="M14.1842 5.62382V8.11884C14.1842 8.2815 14.0757 8.38983 13.9134 8.38983H3.22097V13.4882H12.0459C12.2083 13.4882 12.3164 13.5969 12.3164 13.7595V16.2546C12.3164 16.4172 12.2083 16.5256 12.0459 16.5256H3.22097V24.0646C3.22097 24.2273 3.11318 24.3356 2.95047 24.3356H0.270502C0.108132 24.3356 0 24.2273 0 24.0646V5.62382C0 5.46115 0.108132 5.35248 0.270502 5.35248H13.9134C14.0757 5.35248 14.1842 5.46115 14.1842 5.62382Z" fill="#041633"/>
<path fill-rule="evenodd" clip-rule="evenodd" d="M30.3305 16.3085C29.3426 13.5696 28.2465 10.8304 27.1226 8.3354H26.4869C25.3633 10.8304 24.2535 13.5696 23.2655 16.3085H30.3305ZM36.0015 24.3355H33.051C32.8886 24.3355 32.7805 24.254 32.74 24.0913C32.3473 22.5321 31.8736 20.8917 31.3322 19.2371H22.2776C21.7362 20.8917 21.2622 22.5321 20.8832 24.0913C20.8427 24.254 20.7346 24.3355 20.5722 24.3355H17.7299C17.5404 24.3355 17.4319 24.2272 17.4861 24.0373C19.1915 17.9898 21.7901 11.3188 24.4159 5.70522C24.5377 5.4473 24.6867 5.35272 24.9438 5.35272H28.7875C29.0446 5.35272 29.1936 5.4473 29.3155 5.70522C31.9683 11.305 34.5264 17.9898 36.2452 24.0373C36.2994 24.2272 36.191 24.3355 36.0015 24.3355V24.3355Z" fill="#041633"/>
<path fill-rule="evenodd" clip-rule="evenodd" d="M40.8463 15.0069C40.8463 9.12203 44.7171 5 50.2394 5H50.6452C54.1102 5 56.7902 6.76285 58.211 9.31186C58.3057 9.47453 58.2786 9.61037 58.1162 9.69153L55.7342 10.8711C55.5719 10.9526 55.3687 10.9526 55.2605 10.7494C54.2592 9.0137 52.7567 8.09169 50.537 8.09169H50.1309C46.6525 8.09169 44.2571 10.8577 44.2571 14.8714C44.2571 18.8982 46.612 21.5968 50.1309 21.5968H50.537C52.8109 21.5968 54.1373 20.8237 55.1524 19.6441C55.2876 19.4948 55.4366 19.468 55.599 19.5492L58.0486 20.7425C58.1434 20.7965 58.1839 20.8643 58.1839 20.932C58.1839 21.0001 58.1567 21.0544 58.1029 21.1356C56.6007 23.3321 53.8936 24.6881 50.5913 24.6881H50.1852C44.5681 24.6881 40.8463 20.8237 40.8463 15.0069" fill="#041633"/>
<path fill-rule="evenodd" clip-rule="evenodd" d="M79.7713 22.2171V24.7121C79.7713 24.8748 79.6628 24.9831 79.5004 24.9831H65.2891C65.1267 24.9831 65.0182 24.8748 65.0182 24.7121V6.27134C65.0182 6.10867 65.1267 6 65.2891 6H79.2567C79.4194 6 79.5275 6.10867 79.5275 6.27134V8.76636C79.5275 8.92903 79.4194 9.03735 79.2567 9.03735H68.2396V13.9727H77.1994C77.3618 13.9727 77.4703 14.0814 77.4703 14.2441V16.7119C77.4703 16.8746 77.3618 16.9832 77.1994 16.9832H68.2396V21.9458H79.5004C79.6628 21.9458 79.7713 22.0541 79.7713 22.2171" fill="#041633"/>
<path fill-rule="evenodd" clip-rule="evenodd" d="M100.939 19.4913C100.939 17.7288 99.7746 16.9286 97.2165 16.9286H90.8418V22.0269H97.2165C99.8154 22.0269 100.939 21.2676 100.939 19.4913ZM96.3099 8.95585H90.8418V14.0542H96.3099C98.7595 14.0542 99.8827 13.2543 99.8827 11.5052C99.8827 9.75577 98.7595 8.95585 96.3099 8.95585V8.95585ZM104.241 19.7761C104.241 23.0982 101.697 24.9831 97.2031 24.9831H87.8913C87.729 24.9831 87.6205 24.8744 87.6205 24.7121V6.27134C87.6205 6.10833 87.729 6 87.8913 6H96.3775C100.749 6 103.131 7.73568 103.131 10.9085C103.131 12.9967 102.076 14.3661 99.9373 15.0034C102.942 15.6406 104.241 17.4441 104.241 19.7761" fill="#041633"/>
<path fill-rule="evenodd" clip-rule="evenodd" d="M120.062 21.5968C123.947 21.5968 126.396 18.9253 126.396 14.8442C126.396 10.7628 123.947 8.09135 120.062 8.09135H119.656C115.772 8.09135 113.322 10.7628 113.322 14.8442C113.322 18.9253 115.772 21.5968 119.656 21.5968H120.062ZM109.911 14.8442C109.911 9.12203 113.701 5 119.656 5H120.062C126.017 5 129.807 9.12203 129.807 14.8442C129.807 20.5661 126.017 24.6881 120.062 24.6881H119.656C113.701 24.6881 109.911 20.5661 109.911 14.8442Z" fill="#041633"/>
<path fill-rule="evenodd" clip-rule="evenodd" d="M145.453 21.5968C149.337 21.5968 151.786 18.9253 151.786 14.8442C151.786 10.7628 149.337 8.09135 145.453 8.09135H145.046C141.162 8.09135 138.712 10.7628 138.712 14.8442C138.712 18.9253 141.162 21.5968 145.046 21.5968H145.453ZM135.302 14.8442C135.302 9.12203 139.091 5 145.046 5H145.453C151.408 5 155.198 9.12203 155.198 14.8442C155.198 20.5661 151.408 24.6881 145.453 24.6881H145.046C139.091 24.6881 135.302 20.5661 135.302 14.8442Z" fill="#041633"/>
<path fill-rule="evenodd" clip-rule="evenodd" d="M178.544 24.9831H175.052C174.822 24.9831 174.727 24.9288 174.578 24.7527C172.129 21.8646 169.232 18.9899 166.769 16.8746H165.199V24.7121C165.199 24.8748 165.091 24.9831 164.928 24.9831H162.248C162.086 24.9831 161.977 24.8748 161.977 24.7121V6.27134C161.977 6.10867 162.086 6 162.248 6H164.928C165.091 6 165.199 6.10867 165.199 6.27134V13.7561H166.796C169.435 11.3697 171.871 8.79318 173.861 6.20359C173.996 6.02717 174.104 6 174.267 6H177.569C177.732 6 177.813 6.0815 177.813 6.19018C177.813 6.24417 177.786 6.31192 177.718 6.39343C174.808 9.98653 171.926 12.929 169.259 15.207C172.615 18.0545 175.796 21.227 178.693 24.644C178.841 24.8205 178.76 24.9831 178.544 24.9831" fill="#041633"/>
<path d="M582.168 2.31647H578V6.55058H582.168V2.31647Z" fill="#041633"/>
<path d="M582.064 24.376V9.12718H578.119V24.376H582.064ZM608.286 24.5267V20.7898C607.708 20.7898 607.218 20.7597 606.862 20.6994C606.447 20.6392 606.136 20.4885 605.928 20.2775C605.72 20.0666 605.587 19.7652 605.513 19.3734C605.453 18.9967 605.424 18.4995 605.424 17.8968V12.5627H608.286V9.12718H605.424V3.17531H601.464V17.9269C601.464 19.1776 601.568 20.2323 601.775 21.0761C601.983 21.9049 602.339 22.5829 602.828 23.0952C603.318 23.6076 603.97 23.9692 604.756 24.1952C605.557 24.4212 606.566 24.5267 607.767 24.5267H608.286ZM630.949 24.376V2H626.989V24.376H630.949ZM597.652 10.6189C596.554 9.41347 595.012 8.81075 593.054 8.81075C592.105 8.81075 591.245 9.00663 590.459 9.3984C589.687 9.79017 589.02 10.3326 588.501 11.0258L588.278 11.312V11.0559V9.12718H584.378V24.376H588.308V16.2544V16.8119C588.308 16.7215 588.308 16.6311 588.308 16.5406C588.353 15.1092 588.694 14.0544 589.346 13.3764C590.043 12.6531 590.889 12.2915 591.853 12.2915C592.995 12.2915 593.87 12.6531 594.448 13.3462C595.012 14.0394 595.309 15.0188 595.309 16.2694V16.2996V24.361H599.298V15.7119C599.313 13.5421 598.75 11.8244 597.652 10.6189ZM624.942 16.7215C624.942 15.6215 624.749 14.5969 624.379 13.6325C623.993 12.6832 623.459 11.8394 622.792 11.1162C622.109 10.3929 621.294 9.83538 620.344 9.42854C619.395 9.0217 618.342 8.82582 617.2 8.82582C616.117 8.82582 615.094 9.03677 614.145 9.44361C613.196 9.86551 612.365 10.423 611.668 11.1312C610.971 11.8394 610.407 12.6832 610.007 13.6476C609.591 14.6119 609.399 15.6516 609.399 16.7516C609.399 17.8516 609.591 18.8913 609.977 19.8556C610.363 20.82 610.911 21.6638 611.594 22.372C612.276 23.0802 613.121 23.6528 614.1 24.0596C615.079 24.4815 616.162 24.6925 617.319 24.6925C620.671 24.6925 622.747 23.1404 623.993 21.6939L621.145 19.494C620.552 20.2172 619.128 21.1967 617.348 21.1967C616.236 21.1967 615.316 20.9405 614.619 20.4131C613.922 19.9008 613.448 19.1776 613.196 18.2885L613.151 18.1529H624.942V16.7215ZM613.181 15.3201C613.181 14.2051 614.441 12.2613 617.156 12.2463C619.87 12.2463 621.145 14.19 621.145 15.3051L613.181 15.3201Z" fill="#041633"/>
<path d="M853.653 14.7728C852.639 14.2473 851.569 13.8342 850.462 13.5412C849.531 13.2879 848.625 12.9573 847.752 12.5531C846.584 11.9803 846.05 11.2098 846.123 10.2303C846.204 9.13329 846.861 8.40866 848.126 8.01627C849.735 7.51504 851.396 7.66971 853.352 8.50317L853.586 8.60056C853.62 8.61537 853.657 8.62317 853.694 8.6235C853.732 8.62382 853.769 8.61666 853.803 8.60245C853.838 8.58823 853.869 8.56727 853.895 8.54084C853.921 8.51442 853.941 8.48308 853.954 8.44876L854.538 7.07969C854.568 7.01016 854.569 6.93168 854.541 6.86139C854.512 6.7911 854.457 6.7347 854.386 6.70449L854.152 6.60424C851.729 5.57315 849.627 5.39557 847.536 6.0486C845.445 6.70162 844.254 8.0936 844.102 10.0584C844.006 11.3587 844.394 13.1631 846.864 14.3861C847.835 14.8492 848.846 15.2287 849.883 15.5203C850.846 15.7717 851.778 16.1251 852.663 16.5744C853.606 17.1042 854.033 17.8031 854.003 18.7769C854.018 19.2664 853.883 19.749 853.615 20.1625C853.348 20.576 852.96 20.9014 852.503 21.0968C851.533 21.5752 850.441 21.6382 849.501 21.6382C848.023 21.6151 846.583 21.1734 845.355 20.3665L845.142 20.2405C845.078 20.207 845.004 20.1979 844.934 20.2148C844.864 20.2317 844.803 20.2735 844.762 20.3321L843.953 21.6095C843.917 21.6654 843.901 21.7319 843.909 21.7977C843.917 21.8635 843.948 21.9245 843.997 21.9704C845.594 23.0615 847.493 23.6489 849.44 23.6545C855.163 23.6545 855.983 20.7589 856.039 18.837C856.091 17.0555 855.288 15.6893 853.653 14.7728Z" fill="#041633"/>
<path d="M738.317 19.8653C738.317 20.5871 737.695 21.7099 735.853 21.7099C734.507 21.7099 733.289 20.7246 732.933 20.3437C732.884 20.2928 732.818 20.2612 732.747 20.2548C732.676 20.2485 732.605 20.2679 732.548 20.3093L731.19 21.306C731.159 21.3288 731.133 21.3574 731.114 21.3901C731.094 21.4228 731.081 21.459 731.076 21.4966C731.071 21.5341 731.073 21.5723 731.083 21.6089C731.093 21.6456 731.111 21.6799 731.134 21.7099C731.734 22.3767 732.469 22.9139 733.292 23.2872C734.115 23.6604 735.008 23.8616 735.914 23.878C740.107 23.878 740.534 21.2029 740.534 19.9713V5.80808C740.534 5.73212 740.503 5.65927 740.448 5.60556C740.393 5.55184 740.319 5.52167 740.242 5.52167H738.612C738.535 5.52167 738.461 5.55184 738.406 5.60556C738.351 5.65927 738.32 5.73212 738.32 5.80808L738.317 19.8653Z" fill="#041633"/>
<path d="M748.181 23.583H758.649C758.726 23.583 758.8 23.5528 758.855 23.4991C758.91 23.4454 758.941 23.3726 758.941 23.2966V21.7013C758.941 21.6253 758.91 21.5525 758.855 21.4987C758.8 21.445 758.726 21.4149 758.649 21.4149H750.391C750.314 21.4149 750.239 21.3847 750.185 21.331C750.13 21.2772 750.099 21.2044 750.099 21.1284V15.9214C750.099 15.8454 750.13 15.7726 750.185 15.7189C750.239 15.6652 750.314 15.635 750.391 15.635H758.275C758.352 15.635 758.427 15.6048 758.481 15.5511C758.536 15.4974 758.567 15.4245 758.567 15.3486V13.7561C758.567 13.6801 758.536 13.6073 758.481 13.5536C758.427 13.4999 758.352 13.4697 758.275 13.4697H750.391C750.314 13.4697 750.239 13.4395 750.185 13.3858C750.13 13.3321 750.099 13.2592 750.099 13.1833V7.97625C750.099 7.90028 750.13 7.82743 750.185 7.77372C750.239 7.72001 750.314 7.68983 750.391 7.68983H758.649C758.726 7.68983 758.8 7.65966 758.855 7.60594C758.91 7.55223 758.941 7.47938 758.941 7.40342V5.80808C758.941 5.73212 758.91 5.65927 758.855 5.60556C758.8 5.55184 758.726 5.52167 758.649 5.52167H748.181C748.103 5.52167 748.029 5.55184 747.974 5.60556C747.92 5.65927 747.889 5.73212 747.889 5.80808V23.2966C747.889 23.3726 747.92 23.4454 747.974 23.4991C748.029 23.5528 748.103 23.583 748.181 23.583Z" fill="#041633"/>
<path d="M767.852 5.52167H766.226C766.148 5.52167 766.074 5.55184 766.019 5.60556C765.964 5.65927 765.934 5.73212 765.934 5.80808V23.2966C765.934 23.3726 765.964 23.4454 766.019 23.4991C766.074 23.5528 766.148 23.583 766.226 23.583H775.587C775.664 23.583 775.739 23.5528 775.793 23.4991C775.848 23.4454 775.879 23.3726 775.879 23.2966V21.7013C775.879 21.6253 775.848 21.5525 775.793 21.4987C775.739 21.445 775.664 21.4149 775.587 21.4149H768.436C768.359 21.4149 768.284 21.3847 768.23 21.331C768.175 21.2772 768.144 21.2044 768.144 21.1284V5.80808C768.144 5.73212 768.113 5.65927 768.059 5.60556C768.004 5.55184 767.93 5.52167 767.852 5.52167Z" fill="#041633"/>
<path d="M784.057 5.52167H782.428C782.351 5.52167 782.276 5.55184 782.222 5.60556C782.167 5.65927 782.136 5.73212 782.136 5.80808V23.2966C782.136 23.3726 782.167 23.4454 782.222 23.4991C782.276 23.5528 782.351 23.583 782.428 23.583H791.789C791.867 23.583 791.941 23.5528 791.996 23.4991C792.051 23.4454 792.081 23.3726 792.081 23.2966V21.7013C792.081 21.6253 792.051 21.5525 791.996 21.4987C791.941 21.445 791.867 21.4149 791.789 21.4149H784.639C784.561 21.4149 784.487 21.3847 784.432 21.331C784.377 21.2772 784.347 21.2044 784.347 21.1284V5.80808C784.347 5.73261 784.316 5.66019 784.262 5.60656C784.208 5.55293 784.134 5.52242 784.057 5.52167Z" fill="#041633"/>
<path d="M802.888 13.7532L797.474 5.65055C797.448 5.61116 797.412 5.57877 797.37 5.55629C797.327 5.5338 797.28 5.52191 797.232 5.52167H795.334C795.281 5.52211 795.23 5.53658 795.185 5.56355C795.139 5.59051 795.103 5.62897 795.078 5.67481C795.054 5.72065 795.042 5.77217 795.045 5.82389C795.048 5.8756 795.065 5.92557 795.095 5.96848L801.974 16.3797C802.006 16.4283 802.023 16.485 802.024 16.5429V23.2966C802.024 23.3726 802.054 23.4454 802.109 23.4991C802.164 23.5528 802.238 23.583 802.316 23.583H803.942C804.019 23.583 804.094 23.5528 804.148 23.4991C804.203 23.4454 804.234 23.3726 804.234 23.2966V16.5286C804.234 16.475 804.249 16.4224 804.278 16.3768L810.602 5.95988C810.63 5.91669 810.645 5.86708 810.646 5.81617C810.648 5.76526 810.636 5.71488 810.611 5.67023C810.586 5.62559 810.549 5.58828 810.504 5.56217C810.46 5.53605 810.409 5.52207 810.357 5.52167H808.436C808.388 5.52191 808.34 5.5338 808.298 5.55629C808.256 5.57877 808.22 5.61116 808.193 5.65055L803.387 13.7532C803.36 13.7922 803.324 13.8242 803.282 13.8463C803.24 13.8684 803.193 13.8799 803.145 13.8799C803.097 13.8799 803.05 13.8684 803.007 13.8463C802.965 13.8242 802.929 13.7922 802.902 13.7532H802.888Z" fill="#041633"/>
<path d="M817.782 23.583H819.409C819.486 23.583 819.56 23.5528 819.615 23.4991C819.67 23.4454 819.701 23.3726 819.701 23.2966V15.9214C819.701 15.8454 819.731 15.7726 819.786 15.7189C819.841 15.6652 819.915 15.635 819.993 15.635H826.416C826.494 15.635 826.568 15.6048 826.623 15.5511C826.678 15.4974 826.708 15.4245 826.708 15.3486V13.7561C826.708 13.6801 826.678 13.6073 826.623 13.5536C826.568 13.4999 826.494 13.4697 826.416 13.4697H819.993C819.915 13.4697 819.841 13.4395 819.786 13.3858C819.731 13.3321 819.701 13.2592 819.701 13.1833V7.97625C819.701 7.90028 819.731 7.82743 819.786 7.77372C819.841 7.72001 819.915 7.68983 819.993 7.68983H826.775C826.853 7.68983 826.927 7.65966 826.982 7.60594C827.037 7.55223 827.067 7.47938 827.067 7.40342V5.80808C827.067 5.73212 827.037 5.65927 826.982 5.60556C826.927 5.55184 826.853 5.52167 826.775 5.52167H817.782C817.705 5.52167 817.631 5.55184 817.576 5.60556C817.521 5.65927 817.49 5.73212 817.49 5.80808V23.2966C817.49 23.3726 817.521 23.4454 817.576 23.4991C817.631 23.5528 817.705 23.583 817.782 23.583Z" fill="#041633"/>
<path d="M836.718 5.52167H835.091C834.93 5.52167 834.799 5.6499 834.799 5.80808V23.2966C834.799 23.4548 834.93 23.583 835.091 23.583H836.718C836.879 23.583 837.01 23.4548 837.01 23.2966V5.80808C837.01 5.6499 836.879 5.52167 836.718 5.52167Z" fill="#041633"/>
<path d="M873.097 5.80808V13.905C873.097 13.981 873.066 14.0539 873.011 14.1076C872.956 14.1613 872.882 14.1915 872.805 14.1915H864.921C864.843 14.1915 864.769 14.1613 864.714 14.1076C864.66 14.0539 864.629 13.981 864.629 13.905V5.80808C864.629 5.73212 864.598 5.65927 864.543 5.60556C864.489 5.55184 864.414 5.52167 864.337 5.52167H862.711C862.633 5.52167 862.559 5.55184 862.504 5.60556C862.449 5.65927 862.419 5.73212 862.419 5.80808V23.2966C862.419 23.3726 862.449 23.4454 862.504 23.4991C862.559 23.5528 862.633 23.583 862.711 23.583H864.337C864.414 23.583 864.489 23.5528 864.543 23.4991C864.598 23.4454 864.629 23.3726 864.629 23.2966V16.2823C864.629 16.2063 864.66 16.1335 864.714 16.0798C864.769 16.026 864.843 15.9959 864.921 15.9959H872.805C872.882 15.9959 872.956 16.026 873.011 16.0798C873.066 16.1335 873.097 16.2063 873.097 16.2823V23.2966C873.097 23.3726 873.127 23.4454 873.182 23.4991C873.237 23.5528 873.311 23.583 873.389 23.583H875.015C875.092 23.583 875.167 23.5528 875.221 23.4991C875.276 23.4454 875.307 23.3726 875.307 23.2966V5.80808C875.307 5.73212 875.276 5.65927 875.221 5.60556C875.167 5.55184 875.092 5.52167 875.015 5.52167H873.389C873.311 5.52167 873.237 5.55184 873.182 5.60556C873.127 5.65927 873.097 5.73212 873.097 5.80808Z" fill="#041633"/>
<path d="M723.876 19.3755C731.015 2.85506 708.275 -8.06595 699.349 7.54368C698.137 9.64024 700.28 11.5105 702.774 12.9426C702.834 12.9764 702.878 13.0314 702.898 13.0963C702.918 13.1612 702.912 13.2313 702.882 13.292L700.639 17.7859C700.452 18.1421 700.403 18.5528 700.5 18.9419C700.598 19.331 700.836 19.6722 701.171 19.9025C701.365 20.0304 701.585 20.1161 701.815 20.154C702.046 20.1919 702.282 20.1811 702.508 20.1222C702.734 20.0634 702.945 19.9579 703.126 19.8129C703.307 19.6678 703.455 19.4865 703.559 19.281L705.752 14.9046C705.904 14.601 706.19 14.8158 706.78 15.0993C707.308 15.3542 707.711 15.5805 708.24 15.844C708.303 15.8764 708.352 15.9321 708.374 15.999C708.396 16.066 708.391 16.1388 708.359 16.202L703.425 26.049C703.238 26.4058 703.189 26.8167 703.287 27.2061C703.384 27.5955 703.622 27.9373 703.956 28.1684C704.15 28.2959 704.37 28.3815 704.6 28.4193C704.831 28.4572 705.067 28.4465 705.293 28.388C705.519 28.3294 705.729 28.2244 705.911 28.0799C706.092 27.9354 706.24 27.7547 706.345 27.5498L711.308 17.6312C711.34 17.5679 711.396 17.5193 711.463 17.4957C711.531 17.4722 711.605 17.4756 711.67 17.5052C712.214 17.7572 712.748 17.9864 713.163 18.184C713.747 18.4704 714.1 18.5563 713.945 18.8628L710.584 25.5792C710.399 25.9365 710.35 26.3474 710.448 26.7367C710.547 27.126 710.785 27.4676 711.119 27.6987C711.313 27.8261 711.533 27.9115 711.763 27.9491C711.994 27.9868 712.23 27.9758 712.456 27.917C712.682 27.8582 712.892 27.7529 713.074 27.6081C713.255 27.4633 713.403 27.2823 713.507 27.0772L716.996 20.103C717.027 20.042 717.081 19.9948 717.146 19.9709C717.211 19.947 717.283 19.9481 717.347 19.9741C720.033 21.0396 722.918 21.5866 723.876 19.3755Z" fill="#041633"/>
<path fill-rule="evenodd" clip-rule="evenodd" d="M438.286 5.42233V15.0639C438.286 18.2835 436.849 19.6206 433.479 19.6206C430.109 19.6206 428.672 18.2835 428.672 15.0639V5H425.426C425.142 5 425 5.14097 425 5.42233V15.2221C425 20.6062 428.459 22.4888 433.479 22.4888C438.499 22.4888 441.958 20.6062 441.958 15.2221V5H438.712C438.428 5 438.286 5.14097 438.286 5.42233Z" fill="#041633"/>
<path fill-rule="evenodd" clip-rule="evenodd" d="M485.343 7.79756C485.609 7.79756 485.733 7.70971 485.822 7.51591L486.762 5.21102C486.815 5.07063 486.762 5 486.62 5H473.547C472.323 5 471.862 5.36951 471.862 6.19637V21.169C471.862 21.8729 472.216 22.1896 473.157 22.1896H485.343C485.609 22.1896 485.733 22.1015 485.822 21.9083L486.762 19.6031C486.815 19.4624 486.762 19.3921 486.62 19.3921H475.463V16.3482C475.463 15.2925 476.048 14.8173 477.627 14.8173H482.469C482.735 14.8173 482.859 14.7297 482.948 14.5362L483.853 12.3192C483.906 12.1782 483.853 12.1082 483.711 12.1082H475.463V7.79756H485.343Z" fill="#041633"/>
<path fill-rule="evenodd" clip-rule="evenodd" d="M458.923 19.4274H452.518V16.2778C452.518 15.2221 453.103 14.7473 454.682 14.7473H458.923C460.963 14.7473 461.531 15.5213 461.531 17.105C461.531 18.6884 460.963 19.4274 458.923 19.4274ZM452.518 7.76225H458.249C460.165 7.76225 460.697 8.478 460.697 9.96148C460.697 11.4452 460.165 12.161 458.249 12.161H452.518V7.76225ZM462.329 13.1285C463.748 12.3895 464.333 10.9997 464.333 9.36344C464.333 5.56302 461.211 5 457.983 5H450.604C449.38 5 448.919 5.36951 448.919 6.19637V21.169C448.919 21.8729 449.274 22.1896 450.214 22.1896H459.296C462.719 22.1896 465.167 20.8701 465.167 17.4392C465.167 15.3806 464.28 13.6387 462.329 13.1285Z" fill="#041633"/>
<path fill-rule="evenodd" clip-rule="evenodd" d="M502.646 12.9701H496.615V7.76254H502.646C504.898 7.76254 505.395 8.62443 505.395 10.3663C505.395 12.1257 504.898 12.9701 502.646 12.9701ZM509.422 21.8905L505.537 15.275C507.471 14.7826 509.032 13.5159 509.032 10.296C509.032 6.12632 506.424 5 502.114 5H494.699C493.475 5 493.014 5.36951 493.014 6.19637V21.7673C493.014 22.0487 493.156 22.1896 493.44 22.1896H496.615V17.1753C496.615 16.1196 497.2 15.6445 498.779 15.6445H501.972L505.484 21.9083C505.59 22.084 505.697 22.1896 505.963 22.1896H509.262C509.493 22.1896 509.493 21.9958 509.422 21.8905Z" fill="#041633"/>
<path d="M290.411 17.1071L296.48 24.5714H291.688L286.286 17.7161V24.5714H282.357V4.92863H286.286V16.4786L291.275 10.8214H296.284L290.411 17.1071V17.1071ZM274.696 10.4286C273.836 10.4415 272.992 10.6627 272.236 11.0732C271.48 11.4837 270.835 12.0713 270.355 12.7857V10.8214H266.643V24.5714H270.571V18.1482C270.52 17.682 270.565 17.2101 270.703 16.762C270.842 16.3139 271.071 15.8991 271.377 15.5435C271.683 15.1879 272.059 14.899 272.481 14.6949C272.904 14.4908 273.363 14.3758 273.832 14.3571C276.111 14.3571 276.464 16.5964 276.464 18.1482V24.5714H280.393V17.2839C280.393 12.9625 278.959 10.4286 274.775 10.4286H274.696V10.4286ZM309.857 18.0107C309.872 18.2986 309.872 18.5871 309.857 18.875H299.545V19.0125C299.712 19.8316 300.166 20.5643 300.825 21.0791C301.483 21.5938 302.304 21.857 303.139 21.8214C303.802 21.8502 304.464 21.745 305.085 21.5122C305.706 21.2793 306.273 20.9235 306.754 20.4661L309.366 22.4304C308.538 23.2754 307.542 23.9375 306.443 24.3739C305.343 24.8103 304.164 25.0115 302.982 24.9643C302.003 25.0262 301.022 24.8772 300.106 24.5276C299.189 24.1779 298.359 23.6356 297.67 22.9373C296.981 22.2391 296.45 21.4011 296.112 20.48C295.775 19.559 295.639 18.5762 295.714 17.5982C295.694 16.6327 295.873 15.6734 296.24 14.7801C296.607 13.8868 297.154 13.0787 297.847 12.406C298.54 11.7334 299.364 11.2107 300.268 10.8705C301.171 10.5303 302.136 10.3799 303.1 10.4286C306.793 10.4286 309.857 13.0411 309.857 18.0107ZM306.204 16.3214C306.189 15.9323 306.096 15.5502 305.929 15.1985C305.762 14.8467 305.525 14.5326 305.233 14.2753C304.941 14.018 304.599 13.8229 304.229 13.7019C303.859 13.5809 303.468 13.5364 303.08 13.5714C301.353 13.3847 299.789 14.6013 299.545 16.3214H306.204ZM250.929 4.92863H247V24.5714H258.786V20.6432H250.929V4.92863ZM321.643 4.92863H325.571V24.5714H321.859V23.1964C321.387 23.7772 320.787 24.2396 320.104 24.5466C319.422 24.8536 318.678 24.9966 317.93 24.9643C317.017 24.9409 316.119 24.731 315.29 24.3474C314.461 23.9639 313.719 23.415 313.11 22.7342C312.501 22.0535 312.038 21.2555 311.749 20.3891C311.46 19.5227 311.351 18.6064 311.429 17.6964C311.336 16.7851 311.434 15.8644 311.716 14.9931C311.999 14.1217 312.459 13.3186 313.069 12.635C313.679 11.9514 314.424 11.4022 315.258 11.0224C316.091 10.6425 316.995 10.4403 317.911 10.4286C318.593 10.3987 319.274 10.5049 319.915 10.741C320.556 10.9771 321.143 11.3383 321.643 11.8036V4.92863V4.92863ZM321.937 17.6964C321.999 17.2428 321.963 16.7812 321.831 16.3428C321.7 15.9044 321.475 15.4994 321.174 15.155C320.872 14.8106 320.5 14.5349 320.083 14.3464C319.666 14.158 319.213 14.0611 318.755 14.0625C316.876 14.1989 315.452 15.815 315.554 17.6964C315.452 19.5778 316.876 21.194 318.755 21.3304C319.213 21.3318 319.666 21.235 320.083 21.0465C320.5 20.8581 320.872 20.5823 321.174 20.2379C321.475 19.8935 321.7 19.4884 321.831 19.05C321.963 18.6115 321.999 18.15 321.937 17.6964V17.6964ZM262.714 4.53568C262.083 4.54464 261.478 4.79297 261.022 5.23054C260.566 5.66811 260.294 6.26231 260.259 6.89316C260.259 8.24904 261.358 9.3484 262.714 9.3484C264.07 9.3484 265.169 8.24883 265.169 6.89316C265.135 6.26239 264.862 5.66827 264.406 5.23075C263.95 4.79323 263.346 4.5449 262.714 4.5359L262.714 4.53568ZM260.75 24.5714H264.679V10.8214H260.75V24.5714ZM357 2.96432V26.5357C357 27.0567 356.793 27.5563 356.425 27.9247C356.056 28.293 355.557 28.5 355.036 28.5H331.464C330.943 28.5 330.444 28.293 330.075 27.9247C329.707 27.5563 329.5 27.0567 329.5 26.5357V2.96432C329.5 2.44335 329.707 1.94372 330.075 1.57533C330.444 1.20695 330.943 1 331.464 1H355.036C355.557 1 356.056 1.20695 356.425 1.57533C356.793 1.94372 357 2.44335 357 2.96432V2.96432ZM337.357 10.8214H333.429V24.5714H337.357V10.8214ZM337.848 6.89295C337.848 5.53686 336.749 4.4375 335.393 4.4375C334.037 4.4375 332.938 5.53686 332.938 6.89295C332.938 8.24883 334.037 9.34818 335.393 9.34818C336.749 9.34818 337.848 8.24883 337.848 6.89295V6.89295ZM353.071 17.2839C353.071 12.9625 351.638 10.4286 347.454 10.4286C346.58 10.4287 345.72 10.6438 344.949 11.0548C344.178 11.4659 343.521 12.0603 343.034 12.7857V10.8214H339.321V24.5714H343.25V18.1482C343.198 17.682 343.243 17.2101 343.382 16.762C343.521 16.3139 343.75 15.8991 344.056 15.5435C344.362 15.1879 344.738 14.899 345.16 14.6949C345.582 14.4908 346.042 14.3758 346.511 14.3571C348.789 14.3571 349.143 16.5964 349.143 18.1482V24.5714H353.071V17.2839Z" fill="#041633"/>
<path d="M944 23.1649H979.649V18.0327H944V23.1649ZM944 10.4646H951.132V5.33677H944V10.4646ZM958.26 10.4646H965.393V5.33677H958.259L958.26 10.4646ZM972.521 10.4646H979.649V5.33677H972.521V10.4646ZM961.211 16.8148H944V11.6869H961.211V16.8148ZM979.649 16.8148H962.438V11.6869H979.649V16.8148ZM1006.61 22.5646C1008.97 22.4849 1009.49 22.0384 1009.49 21.0722V7.51337C1009.49 6.54719 1008.97 6.07701 1006.61 5.99631V5.42069H1014.86V5.99631C1012.5 6.07701 1011.98 6.54719 1011.98 7.51337V21.0722C1011.98 22.0384 1012.5 22.4849 1014.86 22.5646V23.1649H1006.61V22.5646ZM1020.41 22.5646C1022.74 22.4849 1023.44 22.0384 1023.44 21.0722V6.15232H1022.13C1019.94 6.15232 1018.81 6.16846 1017.53 9.38872L1016.95 9.33384L1017.11 5.42069H1032.23L1032.42 9.33384L1031.84 9.38764C1030.67 6.37504 1029.51 6.15232 1027.24 6.15232H1025.9V21.0722C1025.9 22.0384 1026.61 22.4849 1028.94 22.5646V23.1649H1020.41V22.5646H1020.41ZM1067.39 22.5646C1069.67 22.4849 1070.25 22.0384 1070.25 21.0722V7.51337C1070.25 6.54719 1069.66 6.07701 1067.39 5.99631V5.42069H1081.79L1081.86 9.32954L1081.29 9.35429C1080.19 6.18567 1079.3 6.18137 1076.31 6.18137H1072.73V13.587H1074.33C1076.39 13.587 1077.31 13.1168 1077.99 10.3129H1078.51V17.5927H1077.99C1077.31 14.7888 1076.39 14.3434 1074.33 14.3434H1072.73V22.2622H1076.31C1079.82 22.2622 1081 22.3537 1082.15 19.0043L1082.73 19.0334L1082.6 23.1649H1067.39V22.5646ZM1085.4 22.5646C1087.67 22.4849 1088.25 22.0384 1088.25 21.0722V7.51337C1088.25 6.54719 1087.67 6.07701 1085.4 5.99631V5.42069H1093.46V5.99631C1091.13 6.07701 1090.73 6.52244 1090.73 7.51337V22.2611H1093.35C1096.81 22.2611 1098.04 21.2282 1099.3 17.4076L1099.87 17.4324L1099.66 23.1649H1085.4V22.5646ZM1056.29 22.2913H1054.35V6.15232H1056.26C1061.02 6.15232 1063.38 8.22026 1063.38 14.1379C1063.38 19.9457 1061.86 22.2913 1056.29 22.2913ZM1056.55 5.42069H1049.45V6.02213C1051.35 6.14802 1051.87 6.61389 1051.87 7.51337V21.0722C1051.87 21.9717 1051.35 22.4171 1049.45 22.5355V23.1649H1056.79C1063.38 23.1649 1066.23 18.7396 1066.23 13.9776C1066.23 9.00676 1062.96 5.42069 1056.55 5.42069ZM1036.34 15.6797L1039.22 8.27405H1039.33L1041.89 15.6797H1036.34ZM1046.16 20.1814L1040.61 5H1039.72L1034.28 18.6342C1033.23 21.2272 1032.5 22.1944 1030.74 22.6151V23.1649H1036.64V22.6151C1034.3 22.2235 1034.04 21.6479 1035.14 18.7945L1036.06 16.4113H1042.16L1043.57 20.4966C1044.09 21.9631 1043.72 22.4849 1041.34 22.6151V23.1649H1048.72V22.5344C1047.14 22.2439 1046.71 21.6608 1046.16 20.1814ZM998.453 5.71119C995.363 5.71119 992.485 8.43006 992.485 14.3982C992.485 20.0759 995.938 22.4301 998.948 22.4301C999.865 22.4197 1000.77 22.1843 1001.57 21.7447C1002.38 21.2993 1003.12 20.6903 1003.65 19.921C1004.02 19.383 1004.28 18.8365 1004.52 18.1769L1005.1 18.3534C1004.8 19.2991 1004.4 20.2233 1003.79 21.0174C1003.22 21.7834 1002.48 22.4109 1001.63 22.854C1001.38 22.9766 1001.13 23.0847 1000.88 23.1778C1000.59 23.2813 1000.3 23.364 1000.01 23.4253C999.427 23.5477 998.836 23.6097 998.243 23.6104C993.19 23.6104 989.63 19.9716 989.63 14.5037C989.63 9.08531 993.636 5.00108 998.738 5.00108C1000.6 5.00108 1002.09 5.50031 1003.19 6.10175L1004.1 6.08884L1004.29 7.80387L1004.65 10.7842H1004.1C1002.9 7.53919 1001.1 5.71119 998.453 5.71119Z" fill="#041633"/>
</svg>
