<svg fill="none" height="70" viewBox="0 0 469 70" width="469" xmlns="http://www.w3.org/2000/svg"><g fill="#041633"><g clip-rule="evenodd" fill-rule="evenodd"><path d="m176.481 5.24296v2.334c0 .15217-.102.25351-.254.25351h-10.002v4.76933h8.256c.151 0 .253.1017.253.2538v2.334c0 .1522-.102.2535-.253.2535h-8.256v7.0526c0 .1521-.101.2535-.253.2535h-2.507c-.152 0-.253-.1014-.253-.2535v-17.25074c0-.15216.101-.25382.253-.25382h12.762c.152 0 .254.10166.254.25382z"/><path d="m191.585 15.2381c-.924-2.5621-1.949-5.1245-3.001-7.45854h-.594c-1.051 2.33404-2.09 4.89644-3.014 7.45854zm5.305 7.509h-2.76c-.152 0-.253-.0763-.291-.2284-.367-1.4587-.81-2.9932-1.317-4.541h-8.47c-.506 1.5478-.95 3.0823-1.304 4.541-.038.1521-.14.2284-.291.2284h-2.659c-.178 0-.279-.1014-.228-.2789 1.595-5.6573 4.026-11.8978 6.482-17.14907.114-.24128.254-.32975.494-.32975h3.596c.24 0 .38.08847.494.32975 2.481 5.23837 4.874 11.49177 6.482 17.14907.051.1775-.051.2789-.228.2789z"/><path d="m201.422 14.0205c0-5.50507 3.621-9.36108 8.787-9.36108h.38c3.241 0 5.748 1.64909 7.077 4.03359.089.15217.064.27925-.088.35517l-2.229 1.10342c-.151.0763-.342.0763-.443-.1138-.936-1.62371-2.342-2.48621-4.418-2.48621h-.38c-3.254 0-5.495 2.58751-5.495 6.34221 0 3.7669 2.203 6.2913 5.495 6.2913h.38c2.127 0 3.368-.7232 4.317-1.8267.127-.1396.266-.1647.418-.0887l2.291 1.1163c.089.0505.127.1139.127.1773 0 .0637-.025.1145-.076.1904-1.405 2.0548-3.937 3.3233-7.027 3.3233h-.38c-5.254 0-8.736-3.6151-8.736-9.0565"/><path d="m237.835 20.1597v2.334c0 .1522-.101.2535-.253.2535h-13.294c-.152 0-.254-.1013-.254-.2535v-17.25067c0-.15217.102-.25383.254-.25383h13.066c.152 0 .253.10166.253.25383v2.334c0 .15217-.101.2535-.253.2535h-10.306v4.61687h8.381c.152 0 .254.1016.254.2538v2.3086c0 .1522-.102.2538-.254.2538h-8.381v4.6423h10.534c.152 0 .253.1013.253.2538"/><path d="m257.636 17.61c0-1.6488-1.088-2.3974-3.481-2.3974h-5.964v4.7693h5.964c2.431 0 3.481-.7103 3.481-2.3719zm-4.33-9.85559h-5.115v4.76939h5.115c2.292 0 3.343-.7483 3.343-2.3846 0-1.63649-1.051-2.38479-3.343-2.38479zm7.42 10.12189c0 3.1078-2.38 4.871-6.584 4.871h-8.711c-.152 0-.253-.1016-.253-.2535v-17.25065c0-.15249.101-.25383.253-.25383h7.939c4.089 0 6.318 1.62367 6.318 4.59175 0 1.95343-.988 3.23443-2.988 3.83063 2.81.5961 4.026 2.2831 4.026 4.4646"/><path d="m275.526 20.1852c3.634 0 5.925-2.4991 5.925-6.3168 0-3.818-2.291-6.31707-5.925-6.31707h-.38c-3.634 0-5.925 2.49907-5.925 6.31707 0 3.8177 2.291 6.3168 5.925 6.3168zm-9.496-6.3168c0-5.35291 3.545-9.20892 9.116-9.20892h.38c5.571 0 9.116 3.85601 9.116 9.20892 0 5.3526-3.545 9.2086-9.116 9.2086h-.38c-5.571 0-9.116-3.856-9.116-9.2086z"/><path d="m299.278 20.1852c3.633 0 5.925-2.4991 5.925-6.3168 0-3.818-2.292-6.31707-5.925-6.31707h-.38c-3.634 0-5.926 2.49907-5.926 6.31707 0 3.8177 2.292 6.3168 5.926 6.3168zm-9.496-6.3168c0-5.35291 3.545-9.20892 9.116-9.20892h.38c5.571 0 9.116 3.85601 9.116 9.20892 0 5.3526-3.545 9.2086-9.116 9.2086h-.38c-5.571 0-9.116-3.856-9.116-9.2086z"/><path d="m330.233 22.7472h-3.266c-.216 0-.304-.0508-.444-.2155-2.291-2.7017-5.001-5.3909-7.305-7.3697h-1.468v7.3317c0 .1522-.102.2535-.254.2535h-2.507c-.151 0-.253-.1013-.253-.2535v-17.25067c0-.15217.102-.25383.253-.25383h2.507c.152 0 .254.10166.254.25383v7.00167h1.493c2.47-2.2323 4.749-4.64258 6.609-7.06505.127-.16504.228-.19045.38-.19045h3.09c.152 0 .228.07624.228.1779 0 .05051-.026.11389-.089.19013-2.722 3.36122-5.419 6.11377-7.913 8.24477 3.139 2.6638 6.115 5.6315 8.825 8.828.139.1651.063.3172-.14.3172"/></g><path d="m302.537 53.8726c-.907-.4701-1.864-.8396-2.854-1.1016-.832-.2266-1.643-.5223-2.424-.8838-1.044-.5124-1.522-1.2015-1.457-2.0776.073-.9812.661-1.6293 1.791-1.9802 1.439-.4483 2.925-.31 4.675.4355l.209.0871c.031.0132.064.0202.097.0205.034.0003.067-.0061.098-.0188.03-.0128.058-.0315.081-.0551.024-.0237.042-.0517.053-.0824l.523-1.2245c.027-.0622.028-.1324.002-.1953-.025-.0629-.075-.1133-.138-.1403l-.209-.0897c-2.168-.9222-4.048-1.0811-5.918-.497s-2.936 1.8291-3.071 3.5865c-.086 1.163.261 2.7769 2.47 3.8708.869.4142 1.772.7536 2.701 1.0145.861.2248 1.695.5409 2.486.9427.843.4739 1.225 1.099 1.199 1.97.013.4378-.108.8695-.347 1.2393-.24.3698-.586.6609-.996.8357-.867.4278-1.844.4842-2.684.4842-1.323-.0207-2.61-.4157-3.709-1.1374l-.191-.1127c-.056-.03-.123-.0381-.185-.023-.063.0151-.118.0525-.154.1049l-.724 1.1426c-.032.0499-.046.1094-.039.1683.007.0588.035.1134.079.1545 1.429.9758 3.127 1.5013 4.868 1.5063 5.118 0 5.852-2.59 5.902-4.3089.047-1.5934-.671-2.8154-2.134-3.6351z"/><path d="m199.378 58.4275c0 .6455-.556 1.6497-2.204 1.6497-1.204 0-2.293-.8812-2.611-1.2219-.044-.0456-.103-.0738-.167-.0795-.063-.0056-.127.0117-.178.0487l-1.215.8915c-.027.0204-.05.046-.068.0752-.017.0293-.029.0617-.033.0953-.005.0336-.003.0677.006.1005.009.0327.025.0634.046.0902.536.5965 1.193 1.0769 1.929 1.4108s1.535.5138 2.346.5285c3.75 0 4.132-2.3927 4.132-3.4943v-12.6679c0-.0679-.028-.1331-.077-.1811-.049-.0481-.115-.0751-.185-.0751h-1.457c-.069 0-.136.027-.185.0751-.048.048-.076.1132-.076.1811z"/><path d="m208.2 61.7526h9.363c.069 0 .136-.027.185-.075.049-.0481.076-.1132.076-.1812v-1.4269c0-.0679-.027-.1331-.076-.1811s-.116-.075-.185-.075h-7.386c-.069 0-.135-.027-.184-.0751-.049-.048-.077-.1132-.077-.1811v-4.6573c0-.0679.028-.1331.077-.1811.049-.0481.115-.0751.184-.0751h7.052c.069 0 .135-.027.184-.075s.077-.1132.077-.1811v-1.4244c0-.0679-.028-.1331-.077-.1811-.049-.0481-.115-.0751-.184-.0751h-7.052c-.069 0-.135-.027-.184-.075s-.077-.1132-.077-.1811v-4.6573c0-.068.028-.1331.077-.1812.049-.048.115-.075.184-.075h7.386c.069 0 .136-.027.185-.075.049-.0481.076-.1132.076-.1812v-1.4269c0-.0679-.027-.1331-.076-.1811-.049-.0481-.116-.0751-.185-.0751h-9.363c-.069 0-.135.027-.184.0751-.049.048-.077.1132-.077.1811v15.6421c0 .068.028.1331.077.1812.049.048.115.075.184.075z"/><path d="m225.795 45.5981h-1.455c-.069 0-.135.027-.184.0751-.049.048-.077.1132-.077.1811v15.6421c0 .068.028.1331.077.1812.049.048.115.075.184.075h8.373c.069 0 .136-.027.185-.075.049-.0481.076-.1132.076-.1812v-1.4269c0-.0679-.027-.1331-.076-.1811s-.116-.075-.185-.075h-6.396c-.069 0-.135-.027-.184-.0751-.049-.048-.077-.1132-.077-.1811v-13.7029c0-.0679-.027-.1331-.076-.1811-.049-.0481-.116-.0751-.185-.0751z"/><path d="m240.289 45.5981h-1.457c-.069 0-.136.027-.185.0751-.049.048-.076.1132-.076.1811v15.6421c0 .068.027.1331.076.1812.049.048.116.075.185.075h8.373c.069 0 .136-.027.185-.075.049-.0481.076-.1132.076-.1812v-1.4269c0-.0679-.027-.1331-.076-.1811s-.116-.075-.185-.075h-6.396c-.069 0-.136-.027-.185-.0751-.049-.048-.076-.1132-.076-.1811v-13.7029c0-.0675-.027-.1323-.076-.1802-.048-.048-.114-.0753-.183-.076z"/><path d="m257.132 52.9607-4.842-7.2473c-.024-.0352-.056-.0642-.094-.0843s-.08-.0307-.123-.031h-1.698c-.047.0004-.093.0134-.133.0375-.041.0241-.074.0585-.096.0995s-.032.0871-.029.1334c.002.0462.018.0909.044.1293l6.153 9.312c.029.0435.044.0942.045.146v6.0406c0 .068.027.1331.076.1812.049.048.116.075.185.075h1.454c.07 0 .136-.027.185-.075.049-.0481.077-.1132.077-.1812v-6.0534c-.001-.048.013-.095.039-.1358l5.657-9.3171c.024-.0386.038-.083.039-.1285.001-.0456-.01-.0906-.032-.1306-.022-.0399-.055-.0733-.095-.0966-.04-.0234-.085-.0359-.132-.0363h-1.718c-.043.0003-.086.0109-.123.031-.038.0201-.07.0491-.094.0843l-4.299 7.2473c-.024.0348-.056.0634-.094.0832-.038.0197-.08.03-.123.03-.042 0-.085-.0103-.122-.03-.038-.0198-.07-.0484-.094-.0832z"/><path d="m270.454 61.7526h1.454c.069 0 .136-.027.185-.075.049-.0481.076-.1132.076-.1812v-6.5965c0-.0679.028-.1331.077-.1811.049-.0481.115-.0751.185-.0751h5.745c.069 0 .136-.027.185-.075s.076-.1132.076-.1811v-1.4244c0-.0679-.027-.1331-.076-.1811-.049-.0481-.116-.0751-.185-.0751h-5.745c-.07 0-.136-.027-.185-.075s-.077-.1132-.077-.1811v-4.6573c0-.068.028-.1331.077-.1812.049-.048.115-.075.185-.075h6.066c.07 0 .136-.027.185-.075.049-.0481.076-.1132.076-.1812v-1.4269c0-.0679-.027-.1331-.076-.1811-.049-.0481-.115-.0751-.185-.0751h-8.043c-.07 0-.136.027-.185.0751-.049.048-.077.1132-.077.1811v15.6421c0 .068.028.1331.077.1812.049.048.115.075.185.075z"/><path d="m287.39 45.5981h-1.455c-.144 0-.261.1147-.261.2562v15.6421c0 .1415.117.2562.261.2562h1.455c.144 0 .261-.1147.261-.2562v-15.6421c0-.1415-.117-.2562-.261-.2562z"/><path d="m319.928 45.8543v7.2421c0 .068-.028.1331-.076.1812-.049.048-.116.075-.185.075h-7.052c-.069 0-.135-.027-.184-.075-.049-.0481-.077-.1132-.077-.1812v-7.2421c0-.0679-.027-.1331-.076-.1811-.049-.0481-.116-.0751-.185-.0751h-1.455c-.069 0-.135.027-.184.0751-.049.048-.077.1132-.077.1811v15.6421c0 .068.028.1331.077.1812.049.048.115.075.184.075h1.455c.069 0 .136-.027.185-.075.049-.0481.076-.1132.076-.1812v-6.2737c0-.068.028-.1331.077-.1812.049-.048.115-.075.184-.075h7.052c.069 0 .136.027.185.075.048.0481.076.1132.076.1812v6.2737c0 .068.028.1331.077.1812.048.048.115.075.184.075h1.455c.069 0 .136-.027.185-.075.048-.0481.076-.1132.076-.1812v-15.6421c0-.0679-.028-.1331-.076-.1811-.049-.0481-.116-.0751-.185-.0751h-1.455c-.069 0-.136.027-.184.0751-.049.048-.077.1132-.077.1811z"/><path d="m186.461 57.9893c6.386-14.7762-13.954-24.5442-21.937-10.5826-1.084 1.8752.833 3.548 3.063 4.8289.054.0302.094.0794.112.1375.018.058.012.1207-.015.175l-2.006 4.0194c-.167.3187-.211.6859-.124 1.034.087.348.3.6532.599.8592.174.1143.371.191.577.2249s.418.0242.62-.0284.391-.1469.553-.2767.294-.2919.387-.4757l1.961-3.9144c.136-.2716.392-.0794.919.1742.473.228.833.4304 1.306.6661.057.029.1.0788.12.1386.02.0599.016.1251-.013.1816l-4.413 8.8073c-.167.3191-.211.6867-.124 1.035s.3.6539.599.8607c.174.1141.37.1905.576.2244s.417.0243.619-.028c.202-.0524.391-.1463.553-.2756.162-.1292.295-.2908.388-.4741l4.44-8.8714c.028-.0566.078-.1001.138-.1212.061-.0211.128-.018.186.0085.486.2254.963.4304 1.334.6071.523.2562.839.333.7.6071l-3.006 6.0074c-.166.3195-.209.6871-.121 1.0353s.3.6536.599.8604c.174.1139.371.1903.577.224.206.0336.417.0238.619-.0287.202-.0526.391-.1468.553-.2763s.294-.2914.387-.4749l3.121-6.2379c.028-.0545.076-.0968.134-.1182.058-.0213.122-.0203.18.0029 2.402.953 4.983 1.4423 5.839-.5354z"/><path d="m11.9339 4.39423v7.48387h-7.27181v-7.48387h-3.45005v17.86497h3.45099v-7.241h7.26997v7.241h3.4519v-17.86497zm14.497 12.09067c0 .7161-.3009 1.4028-.8364 1.9092-.5355.5063-1.2619.7907-2.0192.7907-.7574 0-1.4837-.2844-2.0192-.7907-.5355-.5064-.8364-1.1931-.8364-1.9092v-7.65247h-3.2735v7.65247c0 1.5354.6451 3.008 1.7934 4.0937s2.7057 1.6956 4.3296 1.6956c1.624 0 3.1814-.6099 4.3297-1.6956s1.7934-2.5583 1.7934-4.0937v-7.65247h-3.2614zm24.2559-6.86391c0-1.56918 1.0974-2.06633 2.2994-2.06633.9695 0 2.249.69761 3.0868 1.54357l2.1434-2.38953c-1.0703-1.36873-3.2408-2.31447-5.0182-2.31447-3.5518 0-6.1202 1.96655-6.1202 5.22676 0 6.04891 7.8191 4.12911 7.8191 7.51471 0 1.0438-1.0722 1.9657-2.2994 1.9657-1.9361 0-2.5637-.8945-3.4529-1.8412l-2.3797 2.3392c1.5224 1.7661 3.3996 2.6633 5.6477 2.6633 3.3744 0 6.0885-1.9904 6.0885-5.1022 0-6.7147-7.8201-4.6281-7.8201-7.53951zm48.3737 9.78421c-1.9343 0-2.4844-.7912-2.4844-2.0028v-5.3645h3.0074v-2.71803h-3.0074v-3.58606l-3.3193 1.40846v10.92683c0 2.7949 2.0398 4.2033 4.8361 4.2033.4389.0071.8779-.0265 1.3094-.0989l.8097-2.8187c-.3651.0239-.7845.0477-1.1515.0477zm-60.1687-10.48358c-1.6213 0-2.7533.44505-3.8479 1.45968v-5.88023h-3.2782v10.89943c0 4.0797 3.1194 6.8755 6.6255 6.8755 3.889 0 7.3101-2.8452 7.3101-6.6759 0-3.783-3.1484-6.67583-6.8095-6.67583zm-.0205 10.23448c-.4886 0-.9724-.0909-1.4238-.2677s-.8615-.4359-1.207-.7625c-.3455-.3267-.6195-.7145-.8065-1.1412-.1869-.4268-.2832-.8842-.2832-1.3462 0-.4619.0963-.9193.2832-1.3461.187-.4268.461-.8146.8065-1.1412.3455-.3267.7556-.5858 1.207-.7625.4514-.1768.9352-.2678 1.4238-.2678.9867 0 1.933.3706 2.6307 1.0303s1.0897 1.5544 1.0897 2.4873c0 .933-.392 1.8277-1.0897 2.4874-.6977.6596-1.644 1.0302-2.6307 1.0302zm35.6231-3.7185c0-3.8377-3.4136-6.67582-7.3101-6.67582-3.5051 0-6.6255 2.79482-6.6255 6.87542v10.9057h3.2782v-5.8882c1.0927 1.0128 2.2266 1.4597 3.8461 1.4597 3.6611 0 6.8104-2.8929 6.8104-6.6768zm-3.1044-.0388c0 .9329-.392 1.8276-1.0897 2.4873s-1.6441 1.0303-2.6308 1.0303-1.933-.3706-2.6307-1.0303-1.0897-1.5544-1.0897-2.4873c0-.933.392-1.8277 1.0897-2.4874.6977-.6596 1.644-1.0302 2.6307-1.0302s1.9331.3706 2.6308 1.0302c.6977.6597 1.0897 1.5544 1.0897 2.4874"/><path d="m85.0874 8.61149v-3.11451c.4353-.19236.8039-.49765 1.0628-.88035.259-.3827.3976-.82706.3998-1.28136v-.07152c0-1.32458-1.1357-2.398364-2.5366-2.398364h-.0757c-.6727 0-1.3179.252684-1.7936.702464-.4758.44978-.743 1.05981-.743 1.6959v.07152c.0022.4543.1409.89866.3998 1.28136s.6275.68799 1.0628.88035v3.11451c-1.2511.18112-2.4294.67158-3.4155 1.42171l-9.0342-6.65289c.0644-.21988.098-.44594.1018-.67288.0011-.53451-.1655-1.05732-.4787-1.5023-.3132-.444981-.7589-.792145-1.2808-.997579-.5219-.20543353-1.0965-.2599069-1.6512-.1565297-.5546.1033767-1.0644.3599607-1.4648.7372947s-.6734.858464-.7846 1.382544c-.1111.52407-.0554 1.06753.1602 1.56165.2155.49412.5813.91669 1.0509 1.21427.4696.29757 1.022.45678 1.5873.45748.4946-.00221.9799-.12704 1.4075-.36205l8.896 6.54519c-.7992 1.1414-1.2161 2.4841-1.1964 3.8529.0196 1.3688.4749 2.7002 1.3066 3.8208l-2.7057 2.559c-.2187-.0661-.4466-.1012-.6762-.1042-.464.0004-.9176.1308-1.3032.3748-.3857.2439-.6863.5905-.8637.9959s-.2237.8515-.1331 1.2818.3141.8255.6423 1.1358c.3281.3102.7461.5215 1.2012.6072s.9269.0419 1.3557-.1259c.4288-.1677.7954-.4518 1.0534-.8165s.396-.7935.3963-1.2322c-.003-.2171-.0401-.4326-.1102-.6393l2.6768-2.5317c.8728.6353 1.8879 1.0734 2.9675 1.2805s2.1949.1779 3.2607-.0855 2.0536-.754 2.8879-1.4341 1.4929-1.5317 1.9252-2.4897c.4324-.9579.6272-1.9967.5693-3.0368-.0578-1.0401-.3666-2.0539-.9029-2.9637-.5362-.9098-1.2855-1.6914-2.1906-2.28512-.9051-.59367-1.942-.9836-3.0311-1.13989zm-1.1095 10.24341c-.4947.0128-.9871-.0682-1.4481-.2383s-.8813-.4258-1.236-.7521-.6367-.7165-.8292-1.1475c-.1925-.4311-.2917-.8942-.2917-1.3621s.0992-.9311.2917-1.3621c.1925-.4311.4745-.8212.8292-1.1475s.775-.582 1.236-.7521.9534-.2511 1.4481-.2383c.9588.0318 1.8671.4141 2.5337 1.0665.6666.6523 1.0394 1.5238 1.0399 2.4309.0004.9071-.3714 1.7789-1.0373 2.4319s-1.5738 1.0362-2.5326 1.0689"/><path d="m99.8126 61.7811c0-1.0384-.639-1.4378-1.5976-1.4378-.5592 0-7.349 0-7.349 0-3.5947 0-4.4734-2.1568-4.6331-3.5148h9.9851c3.0354 0 3.994-2.2366 3.994-3.6745 0-1.5177-.9586-3.6745-3.994-3.6745-2.716 0-5.5118 0-5.5118 0-5.1923 0-6.8698 3.5147-6.8698 6.3905 0 3.1153 1.9172 6.3904 6.8698 6.3904h9.1064c0 .0799 0-.3994 0-.4793zm-8.9466-10.3845h4.7928c1.7574 0 2.1568 1.0385 2.1568 1.7574 0 .6391-.3994 1.7574-2.1568 1.7574-1.1982 0-9.5857 0-9.5857 0 .1598-1.1183 1.1982-3.5148 4.7929-3.5148zm-21.3282 10.1449c-.5592.7189-.7988 1.0385-1.358 1.0385-.7189 0-.8787-.3196-1.358-1.0385-1.1183-1.5976-7.8283-11.9821-7.8283-11.9821h.9586c1.5976 0 2.0769.7189 2.5562 1.5177.3994.6391 5.8313 8.9467 5.8313 8.9467s5.1123-7.9082 5.8313-9.0266c.4792-.7189 1.1183-1.4378 2.636-1.4378h.719s-7.0296 10.704-7.9881 11.9821zm-50.4048.7988c-1.1983 0-1.6775-.4793-1.8373-1.4378l-.3195-1.358c-.3196.5591-1.9172 2.7958-5.4319 2.7958 0 0-1.75741 0-3.59467 0-5.43189 0-6.94963-3.6745-6.94963-6.3905 0-3.0354 1.83726-6.3904 6.94963-6.3904h3.83427c3.9142 0 6.071 2.2366 6.5502 5.0325.3994 2.3165 1.4379 7.7484 1.4379 7.7484s-.2396 0-.639 0zm-7.9083-10.7839c-1.27805 0-1.59757 0-3.03542 0-3.67452 0-4.87274 2.3165-4.87274 4.3934s1.19822 4.3935 4.87274 4.3935h3.03542c3.8343 0 4.8728-2.3964 4.8728-4.3935 0-1.7573-.9586-4.3934-4.8728-4.3934zm68.7775-4.0739c.5591 0 1.1183-.3196 1.1183-1.0385 0-.1597 0-.3195 0-.3994 0-.639-.5592-1.0384-1.1183-1.0384-.5592 0-1.1184.3195-1.1184 1.0384v.3994c0 .7189.5592 1.0385 1.1184 1.0385zm-1.0385 2.0769h.4793c1.0384 0 1.6775.5591 1.6775 1.6775v11.1034s-.2397 0-.4793 0c-1.0384 0-1.6775-.639-1.6775-1.7574 0-.0799 0-11.0235 0-11.0235zm-55.5971 1.8372c.4793-.4793 1.9172-1.8372 4.713-1.8372h3.5946c5.4319 0 7.0296 3.6745 7.0296 6.3904 0 3.0355-1.9172 6.3905-7.0296 6.3905-1.0384 0-2.1567 0-3.8342 0-3.9142 0-6.71-2.4763-6.71-6.3905 0-1.2781 0-10.704 0-10.704h.639c1.1184 0 1.5976.5592 1.5976 1.5177zm5.0325 8.9467h3.0355c3.5946 0 4.8727-2.3166 4.8727-4.3935s-1.1982-4.3934-4.8727-4.3934c-1.5177 0-1.997 0-3.0355 0-3.8342 0-4.8727 2.3964-4.8727 4.3934-.0799 1.7574.9586 4.3935 4.8727 4.3935zm15.0176-8.9467c.4793-.4793 1.9172-1.8372 4.713-1.8372h3.5946c5.4319 0 6.9497 3.6745 6.9497 6.3904 0 3.0355-1.8373 6.3905-6.9497 6.3905-1.0384 0-2.1567 0-3.8342 0-3.9142 0-6.71-2.4763-6.71-6.3905 0-1.2781 0-10.704 0-10.704h.639c1.1183 0 1.5976.5592 1.5976 1.5177zm5.0325 8.9467h3.0355c3.6745 0 4.8727-2.3166 4.8727-4.3935s-1.1982-4.3934-4.8727-4.3934c-1.5177 0-1.9171 0-3.0355 0-3.8343 0-4.8727 2.3964-4.8727 4.3934-.0799 1.7574.9586 4.3935 4.8727 4.3935z"/><path clip-rule="evenodd" d="m395.498 44.5804v9.6416c0 3.2196-1.437 4.5566-4.807 4.5566s-4.807-1.337-4.807-4.5566v-10.064h-3.246c-.284 0-.426.141-.426.4224v9.7997c0 5.3842 3.459 7.2667 8.479 7.2667s8.479-1.8825 8.479-7.2667v-10.2221h-3.246c-.284 0-.426.141-.426.4224z" fill-rule="evenodd"/><path clip-rule="evenodd" d="m442.555 46.9556c.266 0 .39-.0879.479-.2817l.94-2.3049c.053-.1404 0-.211-.142-.211h-13.073c-1.224 0-1.685.3695-1.685 1.1964v14.9726c0 .704.354 1.0206 1.295 1.0206h12.186c.266 0 .39-.0881.479-.2813l.94-2.3052c.053-.1407 0-.211-.142-.211h-11.157v-3.0439c0-1.0557.585-1.5309 2.164-1.5309h4.843c.266 0 .389-.0875.478-.281l.905-2.2171c.053-.141 0-.211-.142-.211h-8.248v-4.3106z" fill-rule="evenodd"/><path clip-rule="evenodd" d="m416.135 58.5854h-6.405v-3.1496c0-1.0557.585-1.5305 2.164-1.5305h4.241c2.04 0 2.608.774 2.608 2.3577 0 1.5834-.568 2.3224-2.608 2.3224zm-6.405-11.6651h5.731c1.916 0 2.448.7157 2.448 2.1992 0 1.4838-.532 2.1995-2.448 2.1995h-5.731zm9.811 5.3663c1.419-.739 2.004-2.1289 2.004-3.7651 0-3.8005-3.122-4.3635-6.35-4.3635h-7.379c-1.224 0-1.685.3695-1.685 1.1964v14.9726c0 .704.355 1.0206 1.295 1.0206h9.082c3.423 0 5.871-1.3195 5.871-4.7504 0-2.0586-.887-3.8004-2.838-4.3106z" fill-rule="evenodd"/><path clip-rule="evenodd" d="m459.858 52.1281h-6.031v-5.2075h6.031c2.252 0 2.749.8618 2.749 2.6037 0 1.7594-.497 2.6038-2.749 2.6038zm6.776 8.9204-3.885-6.6155c1.934-.4924 3.495-1.7591 3.495-4.979 0-4.1697-2.608-5.296-6.918-5.296h-7.415c-1.224 0-1.685.3695-1.685 1.1964v15.5709c0 .2814.142.4223.426.4223h3.175v-5.0143c0-1.0557.585-1.5308 2.164-1.5308h3.193l3.512 6.2638c.106.1757.213.2813.479.2813h3.299c.231 0 .231-.1938.16-.2991z" fill-rule="evenodd"/><path d="m402.38 2.97589h-4.168v4.23412h4.168z"/><path d="m402.276 25.0354v-15.2488h-3.945v15.2488zm26.222.1507v-3.7368c-.578 0-1.068-.0302-1.424-.0905-.415-.0602-.726-.2109-.934-.4219-.208-.2109-.341-.5123-.415-.904-.06-.3767-.089-.874-.089-1.4767v-5.3341h2.862v-3.4355h-2.862v-5.95187h-3.96v14.75157c0 1.2507.104 2.3054.311 3.1493.208.8287.564 1.5068 1.053 2.0191.49.5123 1.142.8739 1.928 1.0999.801.2261 1.81.3315 3.011.3315zm22.663-.1507v-22.37598h-3.96v22.37598zm-33.297-13.7571c-1.098-1.2054-2.64-1.80813-4.598-1.80813-.949 0-1.809.19589-2.595.58763-.772.3918-1.439.9342-1.958 1.6274l-.223.2863v-.2562-1.9287h-3.9v15.2488h3.93v-8.1216.5575c0-.0904 0-.1808 0-.2712.045-1.4315.386-2.4863 1.038-3.1643.697-.7233 1.543-1.0849 2.507-1.0849 1.142 0 2.017.3616 2.595 1.0548.564.6931.861 1.6725.861 2.9231v.0302 8.0614h3.989v-8.6491c.015-2.1698-.548-3.8875-1.646-5.093zm27.29 6.1026c0-1.1-.193-2.1246-.563-3.089-.386-.9492-.92-1.7931-1.587-2.5163-.683-.7233-1.498-1.2808-2.448-1.6876-.949-.40687-2.002-.60276-3.144-.60276-1.083 0-2.106.21095-3.055.61776-.949.4219-1.78.9795-2.477 1.6877-.697.7081-1.261 1.552-1.661 2.5163-.416.9644-.608 2.0041-.608 3.104 0 1.1.192 2.1397.578 3.104.386.9644.935 1.8082 1.617 2.5164s1.527 1.2808 2.506 1.6876c.979.4219 2.062.6329 3.219.6329 3.352 0 5.428-1.552 6.674-2.9986l-2.848-2.1999c-.593.7233-2.017 1.7027-3.797 1.7027-1.112 0-2.031-.2562-2.729-.7835-.697-.5124-1.171-1.2356-1.423-2.1246l-.045-.1356h11.791zm-11.761-1.4013c0-1.1151 1.26-3.0588 3.975-3.0739 2.714 0 3.989 1.9438 3.989 3.0588z"/></g></svg>