<svg fill="none" height="70" viewBox="0 0 469 70" width="469" xmlns="http://www.w3.org/2000/svg"><g fill="#041633"><g clip-rule="evenodd" fill-rule="evenodd"><path d="m176.481 5.24296v2.334c0 .15217-.102.25351-.254.25351h-10.002v4.76933h8.256c.151 0 .253.1017.253.2538v2.334c0 .1522-.102.2535-.253.2535h-8.256v7.0526c0 .1521-.101.2535-.253.2535h-2.507c-.152 0-.253-.1014-.253-.2535v-17.25074c0-.15216.101-.25382.253-.25382h12.762c.152 0 .254.10166.254.25382z"/><path d="m191.585 15.2381c-.924-2.5621-1.949-5.1245-3.001-7.45854h-.594c-1.051 2.33404-2.09 4.89644-3.014 7.45854zm5.305 7.509h-2.76c-.152 0-.253-.0763-.291-.2284-.367-1.4587-.81-2.9932-1.317-4.541h-8.47c-.506 1.5478-.95 3.0823-1.304 4.541-.038.1521-.14.2284-.291.2284h-2.659c-.178 0-.279-.1014-.228-.2789 1.595-5.6573 4.026-11.8978 6.482-17.14907.114-.24128.254-.32975.494-.32975h3.596c.24 0 .38.08847.494.32975 2.481 5.23837 4.874 11.49177 6.482 17.14907.051.1775-.051.2789-.228.2789z"/><path d="m201.422 14.0205c0-5.50507 3.621-9.36108 8.787-9.36108h.38c3.241 0 5.748 1.64909 7.077 4.03359.089.15217.064.27925-.088.35517l-2.229 1.10342c-.151.0763-.342.0763-.443-.1138-.936-1.62371-2.342-2.48621-4.418-2.48621h-.38c-3.254 0-5.495 2.58751-5.495 6.34221 0 3.7669 2.203 6.2913 5.495 6.2913h.38c2.127 0 3.368-.7232 4.317-1.8267.127-.1396.266-.1647.418-.0887l2.291 1.1163c.089.0505.127.1139.127.1773 0 .0637-.025.1145-.076.1904-1.405 2.0548-3.937 3.3233-7.027 3.3233h-.38c-5.254 0-8.736-3.6151-8.736-9.0565"/><path d="m237.835 20.1597v2.334c0 .1522-.101.2535-.253.2535h-13.294c-.152 0-.254-.1013-.254-.2535v-17.25067c0-.15217.102-.25383.254-.25383h13.066c.152 0 .253.10166.253.25383v2.334c0 .15217-.101.2535-.253.2535h-10.306v4.61687h8.381c.152 0 .254.1016.254.2538v2.3086c0 .1522-.102.2538-.254.2538h-8.381v4.6423h10.534c.152 0 .253.1013.253.2538z"/><path d="m257.636 17.61c0-1.6488-1.088-2.3974-3.481-2.3974h-5.964v4.7693h5.964c2.431 0 3.481-.7103 3.481-2.3719zm-4.33-9.85559h-5.115v4.76929h5.115c2.292 0 3.343-.7482 3.343-2.3845 0-1.63649-1.051-2.38479-3.343-2.38479zm7.42 10.12189c0 3.1078-2.38 4.871-6.584 4.871h-8.711c-.152 0-.253-.1016-.253-.2535v-17.25065c0-.15249.101-.25383.253-.25383h7.939c4.089 0 6.318 1.62367 6.318 4.59175 0 1.95343-.988 3.23443-2.988 3.83063 2.81.5961 4.026 2.2831 4.026 4.4646z"/><path d="m275.526 20.1852c3.634 0 5.925-2.4991 5.925-6.3168 0-3.818-2.291-6.31707-5.925-6.31707h-.38c-3.634 0-5.925 2.49907-5.925 6.31707 0 3.8177 2.291 6.3168 5.925 6.3168zm-9.496-6.3168c0-5.35291 3.545-9.20892 9.116-9.20892h.38c5.571 0 9.116 3.85601 9.116 9.20892 0 5.3526-3.545 9.2086-9.116 9.2086h-.38c-5.571 0-9.116-3.856-9.116-9.2086z"/><path d="m299.278 20.1852c3.633 0 5.925-2.4991 5.925-6.3168 0-3.818-2.292-6.31707-5.925-6.31707h-.38c-3.634 0-5.926 2.49907-5.926 6.31707 0 3.8177 2.292 6.3168 5.926 6.3168zm-9.496-6.3168c0-5.35291 3.545-9.20892 9.116-9.20892h.38c5.571 0 9.116 3.85601 9.116 9.20892 0 5.3526-3.545 9.2086-9.116 9.2086h-.38c-5.571 0-9.116-3.856-9.116-9.2086z"/><path d="m330.233 22.7472h-3.266c-.216 0-.304-.0508-.444-.2155-2.291-2.7017-5.001-5.3909-7.305-7.3697h-1.468v7.3317c0 .1522-.102.2535-.254.2535h-2.507c-.151 0-.253-.1013-.253-.2535v-17.25067c0-.15217.102-.25383.253-.25383h2.507c.152 0 .254.10166.254.25383v7.00167h1.493c2.47-2.2323 4.749-4.64258 6.609-7.06505.127-.16504.228-.19045.38-.19045h3.09c.152 0 .228.07624.228.1779 0 .05051-.026.11389-.089.19013-2.722 3.36122-5.419 6.11377-7.913 8.24477 3.139 2.6638 6.115 5.6315 8.825 8.828.139.1651.063.3172-.14.3172"/></g><path d="m304.325 54.2131c-.907-.47-1.864-.8395-2.854-1.1015-.832-.2266-1.643-.5223-2.424-.8838-1.044-.5124-1.522-1.2015-1.457-2.0776.073-.9812.661-1.6293 1.791-1.9803 1.439-.4483 2.925-.3099 4.675.4355l.209.0871c.031.0133.064.0203.097.0206.034.0002.067-.0062.098-.0189.03-.0127.058-.0314.081-.0551.024-.0236.042-.0516.053-.0823l.523-1.2246c.027-.0622.028-.1323.002-.1952-.025-.0629-.075-.1133-.138-.1404l-.209-.0896c-2.168-.9222-4.048-1.0811-5.918-.497s-2.936 1.8291-3.071 3.5865c-.087 1.163.261 2.7769 2.47 3.8708.869.4142 1.772.7536 2.701 1.0145.861.2247 1.694.5408 2.486.9427.843.4739 1.225 1.099 1.199 1.97.013.4378-.108.8694-.347 1.2393-.24.3698-.586.6609-.996.8357-.867.4278-1.844.4842-2.684.4842-1.323-.0207-2.61-.4157-3.709-1.1374l-.191-.1128c-.057-.0299-.123-.0381-.185-.0229-.063.0151-.118.0525-.154.1049l-.724 1.1426c-.032.0499-.046.1094-.039.1682.007.0589.035.1135.079.1545 1.428.9759 3.127 1.5014 4.868 1.5064 5.118 0 5.852-2.59 5.902-4.3089.047-1.5934-.671-2.8154-2.134-3.6352z"/><path d="m201.166 58.768c0 .6456-.556 1.6498-2.204 1.6498-1.204 0-2.293-.8812-2.611-1.222-.044-.0455-.103-.0737-.167-.0794-.063-.0057-.127.0117-.178.0487l-1.215.8915c-.027.0204-.05.046-.068.0752-.017.0293-.029.0616-.033.0952-.005.0336-.003.0678.006.1005.009.0328.025.0635.046.0903.536.5965 1.193 1.0769 1.929 1.4108.736.3338 1.535.5138 2.346.5285 3.75 0 4.132-2.3927 4.132-3.4943v-12.6679c0-.0679-.028-.1331-.077-.1811-.049-.0481-.115-.0751-.185-.0751h-1.457c-.069 0-.136.027-.185.0751-.049.048-.076.1132-.076.1811z"/><path d="m209.988 62.0932h9.363c.069 0 .136-.027.185-.075.049-.0481.076-.1132.076-.1812v-1.4269c0-.0679-.027-.1331-.076-.1811-.049-.0481-.116-.0751-.185-.0751h-7.386c-.069 0-.135-.0269-.184-.075-.049-.048-.077-.1132-.077-.1811v-4.6573c0-.068.028-.1331.077-.1812.049-.048.115-.075.184-.075h7.052c.069 0 .135-.027.184-.075.049-.0481.077-.1132.077-.1812v-1.4243c0-.068-.028-.1331-.077-.1812-.049-.048-.115-.075-.184-.075h-7.052c-.069 0-.135-.027-.184-.075-.049-.0481-.077-.1132-.077-.1812v-4.6572c0-.068.028-.1332.077-.1812s.115-.075.184-.075h7.386c.069 0 .136-.027.185-.0751.049-.048.076-.1132.076-.1811v-1.4269c0-.0679-.027-.1331-.076-.1811-.049-.0481-.116-.0751-.185-.0751h-9.363c-.069 0-.135.027-.184.0751-.049.048-.077.1132-.077.1811v15.6421c0 .068.028.1331.077.1812.049.048.115.075.184.075z"/><path d="m227.583 45.9387h-1.455c-.069 0-.135.027-.184.0751-.049.048-.077.1132-.077.1811v15.6421c0 .068.028.1331.077.1812.049.048.115.075.184.075h8.373c.069 0 .136-.027.185-.075.049-.0481.076-.1132.076-.1812v-1.4269c0-.0679-.027-.1331-.076-.1811-.049-.0481-.116-.0751-.185-.0751h-6.396c-.069 0-.136-.0269-.184-.075-.049-.048-.077-.1132-.077-.1811v-13.7029c0-.0679-.027-.1331-.076-.1811-.049-.0481-.116-.0751-.185-.0751z"/><path d="m242.077 45.9387h-1.457c-.069 0-.136.027-.185.0751-.049.048-.076.1132-.076.1811v15.6421c0 .068.027.1331.076.1812.049.048.116.075.185.075h8.373c.069 0 .136-.027.185-.075.049-.0481.076-.1132.076-.1812v-1.4269c0-.0679-.027-.1331-.076-.1811-.049-.0481-.116-.0751-.185-.0751h-6.396c-.069 0-.136-.0269-.185-.075-.049-.048-.076-.1132-.076-.1811v-13.7029c0-.0675-.027-.1323-.076-.1802-.048-.048-.114-.0753-.183-.076z"/><path d="m258.92 53.3012-4.842-7.2472c-.024-.0352-.056-.0642-.094-.0843s-.08-.0308-.123-.031h-1.698c-.047.0004-.093.0134-.133.0375-.041.0241-.074.0585-.096.0995s-.032.0871-.029.1333c.002.0463.018.091.044.1294l6.153 9.312c.029.0435.044.0942.045.146v6.0406c0 .068.027.1331.076.1812.049.048.115.075.185.075h1.454c.07 0 .136-.027.185-.075.049-.0481.077-.1132.077-.1812v-6.0534c-.001-.048.013-.095.039-.1358l5.657-9.3171c.024-.0387.038-.083.039-.1286.001-.0455-.01-.0906-.032-.1305s-.055-.0733-.095-.0967c-.04-.0233-.085-.0358-.132-.0362h-1.718c-.043.0002-.086.0109-.123.031-.038.0201-.07.0491-.094.0843l-4.299 7.2472c-.024.0349-.056.0635-.094.0832-.038.0198-.08.0301-.123.0301-.042 0-.085-.0103-.122-.0301-.038-.0197-.07-.0483-.094-.0832z"/><path d="m272.242 62.0932h1.454c.069 0 .136-.027.185-.075.049-.0481.076-.1132.076-.1812v-6.5965c0-.068.028-.1331.077-.1812.049-.048.115-.075.185-.075h5.745c.069 0 .136-.027.185-.075.049-.0481.076-.1132.076-.1812v-1.4243c0-.068-.027-.1331-.076-.1812-.049-.048-.116-.075-.185-.075h-5.745c-.07 0-.136-.027-.185-.075-.049-.0481-.077-.1132-.077-.1812v-4.6572c0-.068.028-.1332.077-.1812s.115-.075.185-.075h6.066c.07 0 .136-.027.185-.0751.049-.048.076-.1132.076-.1811v-1.4269c0-.0679-.027-.1331-.076-.1811-.049-.0481-.115-.0751-.185-.0751h-8.043c-.07 0-.136.027-.185.0751-.049.048-.077.1132-.077.1811v15.6421c0 .068.028.1331.077.1812.049.048.115.075.185.075z"/><path d="m289.178 45.9387h-1.455c-.144 0-.261.1147-.261.2562v15.6421c0 .1415.117.2562.261.2562h1.455c.144 0 .261-.1147.261-.2562v-15.6421c0-.1415-.117-.2562-.261-.2562z"/><path d="m321.716 46.1949v7.2421c0 .0679-.028.1331-.077.1811-.048.0481-.115.0751-.184.0751h-7.052c-.069 0-.135-.027-.184-.0751-.049-.048-.077-.1132-.077-.1811v-7.2421c0-.0679-.027-.1331-.076-.1811-.049-.0481-.116-.0751-.185-.0751h-1.455c-.069 0-.135.027-.184.0751-.049.048-.077.1132-.077.1811v15.6421c0 .068.028.1331.077.1812.049.048.115.075.184.075h1.455c.069 0 .136-.027.185-.075.049-.0481.076-.1132.076-.1812v-6.2737c0-.068.028-.1331.077-.1812.049-.048.115-.075.184-.075h7.052c.069 0 .136.027.184.075.049.0481.077.1132.077.1812v6.2737c0 .068.027.1331.076.1812.049.048.116.075.185.075h1.455c.069 0 .136-.027.184-.075.049-.0481.077-.1132.077-.1812v-15.6421c0-.0679-.028-.1331-.077-.1811-.048-.0481-.115-.0751-.184-.0751h-1.455c-.069 0-.136.027-.185.0751-.049.048-.076.1132-.076.1811z"/><path d="m188.249 58.3299c6.386-14.7763-13.954-24.5443-21.937-10.5827-1.084 1.8752.833 3.5481 3.063 4.829.054.0302.094.0794.112.1374.018.0581.012.1207-.015.1751l-2.006 4.0194c-.167.3186-.211.6859-.124 1.0339.087.3481.3.6533.599.8592.174.1144.371.1911.577.225s.418.0242.62-.0284.39-.147.553-.2767c.162-.1298.294-.292.387-.4758l1.961-3.9143c.136-.2716.392-.0794.919.1742.473.228.833.4303 1.306.666.057.0291.1.0788.12.1387s.016.125-.013.1815l-4.413 8.8074c-.167.3191-.211.6866-.124 1.035.087.3483.3.6539.599.8607.174.114.37.1905.576.2244.206.0338.417.0243.619-.0281.202-.0523.391-.1462.553-.2755.162-.1292.295-.2909.388-.4741l4.44-8.8714c.028-.0566.078-.1002.138-.1212.061-.0211.127-.0181.186.0085.486.2254.963.4303 1.334.6071.523.2562.839.333.7.6071l-3.006 6.0074c-.166.3195-.209.6871-.121 1.0352.088.3482.3.6537.599.8605.174.1139.371.1903.577.2239.206.0337.417.0239.619-.0287.202-.0525.391-.1467.553-.2762.162-.1296.294-.2915.387-.4749l3.121-6.2379c.028-.0546.076-.0968.134-.1182s.122-.0203.18.0029c2.402.953 4.983 1.4423 5.839-.5354z"/><path d="m103.813 61.775c0-1.0385-.639-1.4379-1.598-1.4379-.559 0-7.349 0-7.349 0-3.5947 0-4.4734-2.1568-4.6331-3.5147h9.9851c3.035 0 3.994-2.2367 3.994-3.6746 0-1.5177-.959-3.6745-3.994-3.6745-2.716 0-5.5118 0-5.5118 0-5.1923 0-6.8698 3.5148-6.8698 6.3905 0 3.1153 1.9172 6.3905 6.8698 6.3905h9.1068c0 .0798 0-.3994 0-.4793zm-8.947-10.3845h4.7928c1.7572 0 2.1572 1.0384 2.1572 1.7573 0 .6391-.4 1.7574-2.1572 1.7574-1.1982 0-9.5857 0-9.5857 0 .1598-1.1183 1.1982-3.5147 4.7929-3.5147zm-21.3282 10.1448c-.5592.719-.7988 1.0385-1.358 1.0385-.7189 0-.8787-.3195-1.358-1.0385-1.1183-1.5976-7.8283-11.9821-7.8283-11.9821h.9586c1.5976 0 2.0769.7189 2.5562 1.5177.3994.6391 5.8313 8.9467 5.8313 8.9467s5.1123-7.9082 5.8313-9.0265c.4792-.719 1.1183-1.4379 2.636-1.4379h.719s-7.0296 10.704-7.9881 11.9821zm-50.4048.7988c-1.1983 0-1.6775-.4792-1.8373-1.4378l-.3195-1.358c-.3196.5592-1.9172 2.7958-5.4319 2.7958 0 0-1.7574 0-3.5947 0-5.43186 0-6.9496-3.6745-6.9496-6.3904 0-3.0355 1.83726-6.3905 6.9496-6.3905h3.8343c3.9142 0 6.071 2.2367 6.5502 5.0325.3994 2.3165 1.4379 7.7484 1.4379 7.7484s-.2396 0-.639 0zm-7.9083-10.7839c-1.278 0-1.5976 0-3.0354 0-3.67454 0-4.87276 2.3166-4.87276 4.3935s1.19822 4.3934 4.87276 4.3934h3.0354c3.8343 0 4.8728-2.3964 4.8728-4.3934 0-1.7574-.9586-4.3935-4.8728-4.3935zm68.7775-4.0739c.5591 0 1.1183-.3195 1.1183-1.0384 0-.1598 0-.3196 0-.3994 0-.6391-.5592-1.0385-1.1183-1.0385-.5592 0-1.1184.3195-1.1184 1.0385v.3994c0 .7189.5592 1.0384 1.1184 1.0384zm-1.0385 2.0769h.4793c1.0384 0 1.6775.5592 1.6775 1.6775v11.1034s-.2396 0-.4793 0c-1.0384 0-1.6775-.639-1.6775-1.7573 0-.0799 0-11.0236 0-11.0236zm-55.5971 1.8373c.4793-.4793 1.9172-1.8373 4.713-1.8373h3.5946c5.4319 0 7.0296 3.6745 7.0296 6.3905 0 3.0354-1.9172 6.3904-7.0296 6.3904-1.0384 0-2.1567 0-3.8342 0-3.9142 0-6.71-2.4763-6.71-6.3904 0-1.2781 0-10.7041 0-10.7041h.639c1.1184 0 1.5976.5592 1.5976 1.5178zm5.0325 8.9466h3.0355c3.5946 0 4.8727-2.3165 4.8727-4.3934s-1.1982-4.3935-4.8727-4.3935c-1.5177 0-1.997 0-3.0355 0-3.8343 0-4.8727 2.3965-4.8727 4.3935-.0799 1.7574.9586 4.3934 4.8727 4.3934zm15.0176-8.9466c.4793-.4793 1.9172-1.8373 4.713-1.8373h3.5946c5.4319 0 6.9497 3.6745 6.9497 6.3905 0 3.0354-1.8373 6.3904-6.9497 6.3904-1.0384 0-2.1567 0-3.8342 0-3.9142 0-6.71-2.4763-6.71-6.3904 0-1.2781 0-10.7041 0-10.7041h.639c1.1183 0 1.5976.5592 1.5976 1.5178zm5.0325 8.9466h3.0355c3.6745 0 4.8727-2.3165 4.8727-4.3934s-1.1982-4.3935-4.8727-4.3935c-1.5177 0-1.9171 0-3.0355 0-3.8343 0-4.8727 2.3965-4.8727 4.3935-.0799 1.7574.9586 4.3934 4.8727 4.3934z"/><path clip-rule="evenodd" d="m395.286 44.5804v9.6416c0 3.2196-1.437 4.5566-4.807 4.5566s-4.807-1.337-4.807-4.5566v-10.064h-3.246c-.284 0-.426.141-.426.4224v9.7997c0 5.3842 3.459 7.2667 8.479 7.2667s8.479-1.8825 8.479-7.2667v-10.2221h-3.246c-.284 0-.426.141-.426.4224z" fill-rule="evenodd"/><path clip-rule="evenodd" d="m442.343 46.9556c.266 0 .39-.0879.479-.2817l.94-2.3049c.053-.1404 0-.211-.142-.211h-13.073c-1.224 0-1.685.3695-1.685 1.1964v14.9726c0 .704.354 1.0206 1.295 1.0206h12.186c.266 0 .39-.0881.479-.2813l.94-2.3052c.053-.1407 0-.211-.142-.211h-11.157v-3.0439c0-1.0557.585-1.5309 2.164-1.5309h4.842c.266 0 .39-.0875.479-.281l.905-2.2171c.053-.141 0-.211-.142-.211h-8.248v-4.3106z" fill-rule="evenodd"/><path clip-rule="evenodd" d="m415.923 58.5854h-6.405v-3.1496c0-1.0557.585-1.5305 2.164-1.5305h4.241c2.04 0 2.608.774 2.608 2.3577 0 1.5834-.568 2.3224-2.608 2.3224zm-6.405-11.6651h5.731c1.916 0 2.448.7157 2.448 2.1992 0 1.4838-.532 2.1995-2.448 2.1995h-5.731zm9.811 5.3663c1.419-.739 2.004-2.1289 2.004-3.7651 0-3.8005-3.122-4.3635-6.35-4.3635h-7.379c-1.224 0-1.685.3695-1.685 1.1964v14.9726c0 .704.355 1.0206 1.295 1.0206h9.082c3.423 0 5.871-1.3195 5.871-4.7504 0-2.0586-.887-3.8004-2.838-4.3106z" fill-rule="evenodd"/><path clip-rule="evenodd" d="m459.646 52.1281h-6.031v-5.2075h6.031c2.252 0 2.749.8618 2.749 2.6037 0 1.7594-.497 2.6038-2.749 2.6038zm6.776 8.9204-3.885-6.6155c1.934-.4924 3.495-1.7591 3.495-4.979 0-4.1697-2.608-5.296-6.918-5.296h-7.415c-1.224 0-1.685.3695-1.685 1.1964v15.5709c0 .2814.142.4223.426.4223h3.175v-5.0143c0-1.0557.585-1.5308 2.164-1.5308h3.193l3.512 6.2638c.106.1757.213.2813.479.2813h3.299c.231 0 .231-.1938.16-.2991z" fill-rule="evenodd"/><path d="m402.168 2.97589h-4.168v4.23412h4.168z"/><path d="m402.064 25.0354v-15.2488h-3.945v15.2488zm26.222.1507v-3.7368c-.578 0-1.068-.0302-1.424-.0905-.415-.0602-.726-.2109-.934-.4219-.208-.2109-.341-.5123-.415-.904-.06-.3767-.089-.874-.089-1.4767v-5.3341h2.862v-3.4355h-2.862v-5.95187h-3.96v14.75157c0 1.2507.104 2.3054.311 3.1492.208.8288.564 1.5069 1.053 2.0192.49.5123 1.142.8739 1.928 1.0999.801.2261 1.81.3315 3.011.3315zm22.663-.1507v-22.37598h-3.96v22.37598zm-33.297-13.7571c-1.098-1.2054-2.64-1.80813-4.598-1.80813-.949 0-1.809.19589-2.595.58763-.772.3918-1.439.9342-1.958 1.6274l-.223.2863v-.2562-1.9287h-3.9v15.2488h3.93v-8.1216.5575c0-.0904 0-.1808 0-.2712.045-1.4315.386-2.4863 1.038-3.1643.697-.7233 1.543-1.0849 2.507-1.0849 1.142 0 2.017.3616 2.595 1.0548.564.6931.861 1.6725.861 2.9231v.0302 8.0614h3.989v-8.6491c.015-2.1698-.548-3.8875-1.646-5.093zm27.29 6.1026c0-1.1-.193-2.1246-.563-3.089-.386-.9492-.92-1.7931-1.587-2.5163-.683-.7233-1.498-1.2808-2.448-1.6876-.949-.40687-2.002-.60276-3.144-.60276-1.083 0-2.106.21095-3.055.61776-.949.4219-1.78.9795-2.477 1.6877-.697.7081-1.261 1.552-1.661 2.5163-.416.9644-.608 2.0041-.608 3.104 0 1.1.192 2.1397.578 3.104.386.9644.934 1.8082 1.617 2.5164.682.7082 1.527 1.2808 2.506 1.6876.979.4219 2.062.6329 3.219.6329 3.352 0 5.428-1.552 6.674-2.9986l-2.848-2.1999c-.593.7233-2.017 1.7027-3.797 1.7027-1.112 0-2.032-.2562-2.729-.7835-.697-.5124-1.171-1.2356-1.423-2.1246l-.045-.1356h11.791zm-11.761-1.4013c0-1.1151 1.26-3.0588 3.975-3.0739 2.714 0 3.989 1.9438 3.989 3.0588z"/><path d="m43.4107 16.1071 6.0697 7.4643h-4.7929l-5.4018-6.8553v6.8553h-3.9286v-19.64277h3.9286v11.54997l4.9893-5.65723h5.0089zm-15.7143-6.67847c-.8602.01288-1.7044.23404-2.4604.64457-.756.4105-1.4013.9981-1.8806 1.7125v-1.96433h-3.7124v13.75003h3.9284v-6.4232c-.0516-.4662-.0067-.9381.1319-1.3862.1387-.4481.3681-.8629.6739-1.2185.3059-.3556.6817-.6445 1.104-.8486s.8822-.3191 1.3509-.3378c2.2786 0 2.6322 2.2393 2.6322 3.7911v6.4232h3.9286v-7.2875c0-4.3214-1.434-6.85527-5.6179-6.85527zm35.1607 7.58207c.015.2879.015.5764 0 .8643h-10.3125v.1375c.1674.8191.6212 1.5518 1.28 2.0666.6588.5147 1.4794.7779 2.3147.7423.6626.0288 1.3243-.0764 1.9453-.3092.6211-.2329 1.1887-.5887 1.669-1.0461l2.6125 1.9643c-.828.845-1.8239 1.5071-2.9235 1.9435s-2.2784.6376-3.4605.5904c-.979.0619-1.9598-.0871-2.8763-.4367-.9165-.3497-1.7472-.892-2.4361-1.5903-.689-.6982-1.22-1.5362-1.5573-2.4573-.3374-.921-.4731-1.9038-.3981-2.8818-.0201-.9655.1589-1.9248.5258-2.8181.3668-.8933.9138-1.7014 1.6067-2.3741.6929-.6726 1.517-1.1953 2.4208-1.53554.9038-.3402 1.8679-.4906 2.8324-.44183 3.6929 0 6.7571 2.61247 6.7571 7.58207zm-3.6535-1.6893c-.0144-.3891-.1079-.7712-.2748-1.1229-.1669-.3518-.4037-.6659-.6959-.9232s-.6337-.4524-1.0038-.5734c-.37-.121-.7609-.1655-1.1487-.1305-1.7273-.1867-3.2916 1.0299-3.5358 2.75zm-55.27497-11.39277h-3.92863v19.64277h11.7857v-3.9282h-7.85707zm70.71427 0h3.9285v19.64277h-3.7125v-1.375c-.4715.5808-1.0723 1.0432-1.7544 1.3502-.6822.307-1.4267.45-2.1741.4177-.913-.0234-1.8116-.2333-2.6405-.6169-.829-.3835-1.5707-.9324-2.1797-1.6132-.6089-.6807-1.0723-1.4787-1.3614-2.3451-.2892-.8664-.3982-1.7827-.3202-2.6927-.0927-.9113.0053-1.832.2877-2.7033.2824-.8714.7432-1.6745 1.3529-2.3581s1.355-1.2328 2.1885-1.6126c.8336-.37991 1.7371-.5821 2.653-.59377.6822-.02989 1.3636.07629 2.0043.31236.6408.23607 1.2282.59731 1.7279 1.06261zm.2946 12.76777c.0618-.4536.0256-.9152-.1062-1.3536-.1317-.4384-.3559-.8434-.6575-1.1878s-.6735-.6201-1.0907-.8086c-.4171-.1884-.8699-.2853-1.3276-.2839-1.8793.1364-3.3033 1.7525-3.2019 3.6339-.1014 1.8814 1.3226 3.4976 3.2019 3.634.4577.0014.9105-.0954 1.3277-.2839.4172-.1884.7891-.4642 1.0907-.8086s.5258-.7495.6575-1.1879c.1317-.4385.1679-.9.1061-1.3536zm-59.2232-13.16072c-.6317.00896-1.2365.25729-1.6923.69486-.4557.43757-.7285 1.03177-.7631 1.66262 0 1.35588 1.0993 2.45524 2.4554 2.45524s2.455-1.09957 2.455-2.45524c-.0347-.63077-.3074-1.22489-.7631-1.66241s-1.0604-.68585-1.6921-.69485zm-1.9643 20.03572h3.9286v-13.75003h-3.9286zm96.25-21.60708v23.57138c0 .521-.207 1.0206-.575 1.389-.369.3683-.868.5753-1.389.5753h-23.5717c-.5209 0-1.0206-.207-1.389-.5753-.3683-.3684-.5753-.868-.5753-1.389v-23.57138c0-.52097.207-1.020604.5753-1.388985.3684-.368381.8681-.575335 1.389-.575335h23.5717c.521 0 1.02.206954 1.389.575335.368.368381.575.868015.575 1.388985zm-19.6429 7.85705h-3.9285v13.75003h3.9285zm.4911-3.92842c0-1.35609-1.0994-2.45545-2.4553-2.45545-1.3561 0-2.4554 1.09936-2.4554 2.45545 0 1.35588 1.0993 2.45523 2.4554 2.45523 1.3559 0 2.4553-1.09935 2.4553-2.45523zm15.2228 10.39095c0-4.3214-1.433-6.85527-5.617-6.85527-.8739.00008-1.734.21513-2.5048.62617-.7708.4111-1.4286 1.0055-1.9153 1.7309v-1.96433h-3.7125v13.75003h3.9286v-6.4232c-.0516-.4662-.0067-.9381.132-1.3862.1386-.4481.368-.8629.6739-1.2185.3058-.3556.6816-.6445 1.104-.8486.4223-.2041.8821-.3191 1.3508-.3378 2.2783 0 2.6323 2.2393 2.6323 3.7911v6.4232h3.928z"/></g></svg>