<svg width="413" height="66" viewBox="0 0 413 66" fill="none" xmlns="http://www.w3.org/2000/svg">
<g clip-path="url(#clip0)">
<path fill-rule="evenodd" clip-rule="evenodd" d="M180.66 1.3877V10.2386C180.66 13.1941 179.341 14.4215 176.247 14.4215C173.153 14.4215 171.834 13.1941 171.834 10.2386V1H168.854C168.594 1 168.464 1.12941 168.464 1.3877V10.3838C168.464 15.3263 171.639 17.0545 176.247 17.0545C180.855 17.0545 184.031 15.3263 184.031 10.3838V1H181.051C180.79 1 180.66 1.12941 180.66 1.3877Z" fill="#041633"/>
<path fill-rule="evenodd" clip-rule="evenodd" d="M223.858 3.56813C224.102 3.56813 224.216 3.48748 224.297 3.30958L225.16 1.19372C225.209 1.06484 225.16 1 225.03 1H213.029C211.905 1 211.482 1.3392 211.482 2.09825V15.8429C211.482 16.4892 211.807 16.7799 212.671 16.7799H223.858C224.102 16.7799 224.216 16.6989 224.297 16.5216L225.16 14.4054C225.209 14.2763 225.16 14.2117 225.03 14.2117H214.788V11.4175C214.788 10.4484 215.325 10.0122 216.774 10.0122H221.22C221.464 10.0122 221.578 9.93178 221.659 9.75414L222.49 7.71893C222.539 7.58953 222.49 7.52522 222.359 7.52522H214.788V3.56813H223.858Z" fill="#041633"/>
<path fill-rule="evenodd" clip-rule="evenodd" d="M199.605 14.2442H193.725V11.3529C193.725 10.3838 194.262 9.94786 195.711 9.94786H199.605C201.477 9.94786 201.998 10.6584 201.998 12.1122C201.998 13.5657 201.477 14.2442 199.605 14.2442ZM193.725 3.53571H198.986C200.744 3.53571 201.233 4.19277 201.233 5.55458C201.233 6.91666 200.744 7.57371 198.986 7.57371H193.725V3.53571ZM202.731 8.46191C204.034 7.78351 204.571 6.50761 204.571 5.00558C204.571 1.51684 201.705 1 198.742 1H191.968C190.844 1 190.421 1.3392 190.421 2.09825V15.8429C190.421 16.4892 190.746 16.7799 191.609 16.7799H199.947C203.089 16.7799 205.336 15.5685 205.336 12.419C205.336 10.5293 204.522 8.93026 202.731 8.46191Z" fill="#041633"/>
<path fill-rule="evenodd" clip-rule="evenodd" d="M239.741 8.31642H234.205V3.53597H239.741C241.809 3.53597 242.265 4.32718 242.265 5.9262C242.265 7.54129 241.809 8.31642 239.741 8.31642ZM245.962 16.5052L242.396 10.4323C244.17 9.98028 245.603 8.81745 245.603 5.86163C245.603 2.03395 243.21 1 239.253 1H232.446C231.323 1 230.899 1.3392 230.899 2.09825V16.3922C230.899 16.6505 231.03 16.7799 231.29 16.7799H234.205V12.1768C234.205 11.2077 234.742 10.7715 236.192 10.7715H239.123L242.346 16.5216C242.444 16.6829 242.542 16.7799 242.786 16.7799H245.815C246.027 16.7799 246.027 16.602 245.962 16.5052Z" fill="#041633"/>
<path d="M136.361 55.2676C135.69 54.9197 134.981 54.6463 134.248 54.4524C133.633 54.2847 133.033 54.066 132.455 53.7984C131.682 53.4193 131.328 52.9093 131.377 52.261C131.431 51.5349 131.866 51.0553 132.702 50.7956C133.767 50.4639 134.867 50.5662 136.162 51.1179L136.316 51.1823C136.339 51.1921 136.363 51.1973 136.388 51.1975C136.413 51.1977 136.437 51.193 136.46 51.1836C136.483 51.1742 136.504 51.1603 136.521 51.1428C136.538 51.1253 136.551 51.1046 136.56 51.0819L136.946 50.1757C136.966 50.1297 136.967 50.0778 136.948 50.0312C136.929 49.9847 136.893 49.9474 136.846 49.9274L136.691 49.861C135.087 49.1786 133.696 49.061 132.312 49.4933C130.928 49.9255 130.14 50.8468 130.039 52.1473C129.975 53.0079 130.233 54.2022 131.868 55.0117C132.51 55.3182 133.179 55.5693 133.866 55.7624C134.503 55.9287 135.12 56.1626 135.706 56.46C136.33 56.8107 136.612 57.2732 136.593 57.9178C136.602 58.2418 136.513 58.5612 136.336 58.8349C136.159 59.1086 135.902 59.3239 135.599 59.4533C134.958 59.7699 134.235 59.8116 133.613 59.8116C132.634 59.7963 131.681 59.504 130.868 58.9699L130.727 58.8865C130.685 58.8644 130.636 58.8583 130.59 58.8695C130.543 58.8807 130.503 58.9084 130.476 58.9472L129.941 59.7926C129.917 59.8296 129.906 59.8736 129.912 59.9172C129.917 59.9607 129.937 60.0011 129.97 60.0315C131.027 60.7536 132.284 61.1425 133.572 61.1462C137.36 61.1462 137.903 59.2296 137.94 57.9576C137.975 56.7785 137.443 55.8742 136.361 55.2676Z" fill="#041633"/>
<path d="M60.0231 58.6383C60.0231 59.116 59.6115 59.8591 58.392 59.8591C57.5011 59.8591 56.6952 59.207 56.4594 58.9549C56.4271 58.9212 56.3832 58.9003 56.3363 58.8961C56.2893 58.8919 56.2423 58.9047 56.2043 58.9321L55.3056 59.5918C55.2852 59.6069 55.268 59.6258 55.2551 59.6475C55.2422 59.6691 55.2338 59.6931 55.2304 59.718C55.227 59.7428 55.2286 59.7681 55.2352 59.7923C55.2418 59.8166 55.2533 59.8393 55.2689 59.8591C55.6659 60.3005 56.1522 60.656 56.6969 60.9031C57.2415 61.1502 57.8326 61.2833 58.4326 61.2942C61.2078 61.2942 61.49 59.5236 61.49 58.7084V49.3342C61.49 49.2839 61.4696 49.2357 61.4334 49.2001C61.3971 49.1646 61.348 49.1446 61.2967 49.1446H60.2183C60.1671 49.1446 60.1179 49.1646 60.0817 49.2001C60.0454 49.2357 60.0251 49.2839 60.0251 49.3342L60.0231 58.6383Z" fill="#041633"/>
<path d="M66.5515 61.0989H73.4798C73.5311 61.0989 73.5803 61.079 73.6165 61.0434C73.6527 61.0078 73.6731 60.9596 73.6731 60.9094V59.8534C73.6731 59.8032 73.6527 59.7549 73.6165 59.7194C73.5803 59.6838 73.5311 59.6639 73.4798 59.6639H68.0145C67.9632 59.6639 67.914 59.6439 67.8778 59.6083C67.8416 59.5728 67.8212 59.5246 67.8212 59.4743V56.0279C67.8212 55.9776 67.8416 55.9294 67.8778 55.8939C67.914 55.8583 67.9632 55.8383 68.0145 55.8383H73.2325C73.2837 55.8383 73.3329 55.8184 73.3691 55.7828C73.4054 55.7473 73.4257 55.699 73.4257 55.6488V54.5948C73.4257 54.5445 73.4054 54.4963 73.3691 54.4607C73.3329 54.4252 73.2837 54.4052 73.2325 54.4052H68.0145C67.9632 54.4052 67.914 54.3852 67.8778 54.3497C67.8416 54.3141 67.8212 54.2659 67.8212 54.2156V50.7692C67.8212 50.7189 67.8416 50.6707 67.8778 50.6352C67.914 50.5996 67.9632 50.5796 68.0145 50.5796H73.4798C73.5311 50.5796 73.5803 50.5597 73.6165 50.5241C73.6527 50.4886 73.6731 50.4403 73.6731 50.3901V49.3342C73.6731 49.2839 73.6527 49.2357 73.6165 49.2001C73.5803 49.1646 73.5311 49.1446 73.4798 49.1446H66.5515C66.5002 49.1446 66.4511 49.1646 66.4148 49.2001C66.3786 49.2357 66.3582 49.2839 66.3582 49.3342V60.9094C66.3582 60.9596 66.3786 61.0078 66.4148 61.0434C66.4511 61.079 66.5002 61.0989 66.5515 61.0989Z" fill="#041633"/>
<path d="M79.5714 49.1446H78.4949C78.4436 49.1446 78.3945 49.1646 78.3582 49.2001C78.322 49.2357 78.3016 49.2839 78.3016 49.3342V60.9094C78.3016 60.9596 78.322 61.0078 78.3582 61.0434C78.3945 61.079 78.4436 61.0989 78.4949 61.0989H84.6908C84.7421 61.0989 84.7912 61.079 84.8275 61.0434C84.8637 61.0078 84.8841 60.9596 84.8841 60.9094V59.8534C84.8841 59.8032 84.8637 59.7549 84.8275 59.7194C84.7912 59.6838 84.7421 59.6639 84.6908 59.6639H79.9579C79.9066 59.6639 79.8575 59.6439 79.8212 59.6083C79.785 59.5728 79.7646 59.5246 79.7646 59.4743V49.3342C79.7646 49.2839 79.7443 49.2357 79.708 49.2001C79.6718 49.1646 79.6226 49.1446 79.5714 49.1446Z" fill="#041633"/>
<path d="M90.2973 49.1446H89.2189C89.1676 49.1446 89.1185 49.1646 89.0822 49.2001C89.046 49.2357 89.0256 49.2839 89.0256 49.3342V60.9094C89.0256 60.9596 89.046 61.0078 89.0822 61.0434C89.1185 61.079 89.1676 61.0989 89.2189 61.0989H95.4148C95.4661 61.0989 95.5152 61.079 95.5515 61.0434C95.5877 61.0078 95.6081 60.9596 95.6081 60.9094V59.8534C95.6081 59.8032 95.5877 59.7549 95.5515 59.7194C95.5152 59.6838 95.4661 59.6639 95.4148 59.6639H90.6819C90.6306 59.6639 90.5815 59.6439 90.5452 59.6083C90.509 59.5728 90.4886 59.5246 90.4886 59.4743V49.3342C90.4886 49.2842 90.4685 49.2363 90.4327 49.2008C90.3969 49.1653 90.3482 49.1451 90.2973 49.1446Z" fill="#041633"/>
<path d="M102.761 54.5929L99.1776 49.2299C99.1601 49.2038 99.1363 49.1824 99.1083 49.1675C99.0803 49.1526 99.049 49.1448 99.0172 49.1446H97.761C97.7261 49.1449 97.6919 49.1545 97.662 49.1723C97.6322 49.1902 97.6079 49.2156 97.5916 49.246C97.5753 49.2763 97.5678 49.3104 97.5697 49.3446C97.5716 49.3788 97.583 49.4119 97.6025 49.4403L102.156 56.3312C102.177 56.3634 102.188 56.4009 102.189 56.4393V60.9094C102.189 60.9596 102.209 61.0078 102.245 61.0434C102.281 61.079 102.331 61.0989 102.382 61.0989H103.458C103.51 61.0989 103.559 61.079 103.595 61.0434C103.631 61.0078 103.652 60.9596 103.652 60.9094V56.4298C103.651 56.3943 103.662 56.3595 103.681 56.3293L107.867 49.4346C107.885 49.406 107.895 49.3732 107.896 49.3395C107.897 49.3058 107.889 49.2725 107.872 49.2429C107.856 49.2134 107.831 49.1887 107.802 49.1714C107.772 49.1541 107.739 49.1449 107.704 49.1446H106.433C106.401 49.1448 106.369 49.1526 106.341 49.1675C106.314 49.1824 106.29 49.2038 106.272 49.2299L103.091 54.5929C103.073 54.6187 103.05 54.6398 103.022 54.6544C102.994 54.669 102.962 54.6767 102.931 54.6767C102.899 54.6767 102.868 54.669 102.84 54.6544C102.812 54.6398 102.788 54.6187 102.77 54.5929H102.761Z" fill="#041633"/>
<path d="M112.619 61.0989H113.695C113.747 61.0989 113.796 61.079 113.832 61.0434C113.868 61.0078 113.889 60.9596 113.889 60.9094V56.0279C113.889 55.9776 113.909 55.9294 113.945 55.8939C113.981 55.8583 114.031 55.8383 114.082 55.8383H118.333C118.385 55.8383 118.434 55.8184 118.47 55.7828C118.506 55.7473 118.527 55.699 118.527 55.6488V54.5948C118.527 54.5445 118.506 54.4963 118.47 54.4607C118.434 54.4252 118.385 54.4052 118.333 54.4052H114.082C114.031 54.4052 113.981 54.3852 113.945 54.3497C113.909 54.3141 113.889 54.2659 113.889 54.2156V50.7692C113.889 50.7189 113.909 50.6707 113.945 50.6352C113.981 50.5996 114.031 50.5796 114.082 50.5796H118.571C118.622 50.5796 118.672 50.5597 118.708 50.5241C118.744 50.4886 118.764 50.4403 118.764 50.3901V49.3342C118.764 49.2839 118.744 49.2357 118.708 49.2001C118.672 49.1646 118.622 49.1446 118.571 49.1446H112.619C112.568 49.1446 112.518 49.1646 112.482 49.2001C112.446 49.2357 112.426 49.2839 112.426 49.3342V60.9094C112.426 60.9596 112.446 61.0078 112.482 61.0434C112.518 61.079 112.568 61.0989 112.619 61.0989Z" fill="#041633"/>
<path d="M125.152 49.1446H124.075C123.969 49.1446 123.882 49.2295 123.882 49.3342V60.9094C123.882 61.014 123.969 61.0989 124.075 61.0989H125.152C125.258 61.0989 125.345 61.014 125.345 60.9094V49.3342C125.345 49.2295 125.258 49.1446 125.152 49.1446Z" fill="#041633"/>
<path d="M149.23 49.3342V54.6933C149.23 54.7436 149.21 54.7918 149.173 54.8274C149.137 54.8629 149.088 54.8829 149.037 54.8829H143.819C143.767 54.8829 143.718 54.8629 143.682 54.8274C143.646 54.7918 143.625 54.7436 143.625 54.6933V49.3342C143.625 49.2839 143.605 49.2357 143.569 49.2001C143.533 49.1646 143.483 49.1446 143.432 49.1446H142.356C142.304 49.1446 142.255 49.1646 142.219 49.2001C142.183 49.2357 142.162 49.2839 142.162 49.3342V60.9094C142.162 60.9596 142.183 61.0078 142.219 61.0434C142.255 61.079 142.304 61.0989 142.356 61.0989H143.432C143.483 61.0989 143.533 61.079 143.569 61.0434C143.605 61.0078 143.625 60.9596 143.625 60.9094V56.2668C143.625 56.2165 143.646 56.1683 143.682 56.1327C143.718 56.0972 143.767 56.0772 143.819 56.0772H149.037C149.088 56.0772 149.137 56.0972 149.173 56.1327C149.21 56.1683 149.23 56.2165 149.23 56.2668V60.9094C149.23 60.9596 149.25 61.0078 149.287 61.0434C149.323 61.079 149.372 61.0989 149.423 61.0989H150.5C150.551 61.0989 150.6 61.079 150.636 61.0434C150.673 61.0078 150.693 60.9596 150.693 60.9094V49.3342C150.693 49.2839 150.673 49.2357 150.636 49.2001C150.6 49.1646 150.551 49.1446 150.5 49.1446H149.423C149.372 49.1446 149.323 49.1646 149.287 49.2001C149.25 49.2357 149.23 49.2839 149.23 49.3342Z" fill="#041633"/>
<path d="M50.4645 58.3141C55.1897 47.3796 40.1386 40.1513 34.2307 50.4829C33.4286 51.8706 34.8472 53.1084 36.4976 54.0563C36.5373 54.0787 36.5668 54.115 36.5801 54.158C36.5934 54.201 36.5895 54.2473 36.5691 54.2876L35.0849 57.2619C34.9611 57.4977 34.9285 57.7695 34.9931 58.0271C35.0578 58.2846 35.2153 58.5105 35.4366 58.6629C35.5652 58.7475 35.7106 58.8043 35.8633 58.8293C36.016 58.8544 36.1724 58.8473 36.322 58.8083C36.4716 58.7694 36.6111 58.6996 36.731 58.6035C36.851 58.5075 36.9486 58.3875 37.0175 58.2515L38.4689 55.3549C38.5694 55.1539 38.7588 55.2961 39.1491 55.4838C39.4989 55.6525 39.7656 55.8022 40.1154 55.9767C40.1576 55.9981 40.1895 56.035 40.2044 56.0793C40.2192 56.1236 40.2157 56.1718 40.1947 56.2136L36.9286 62.7311C36.805 62.9672 36.7726 63.2392 36.8372 63.4969C36.9019 63.7547 37.0592 63.9809 37.2803 64.1339C37.4088 64.2183 37.5542 64.2749 37.7067 64.2999C37.8592 64.325 38.0155 64.3179 38.165 64.2792C38.3145 64.2404 38.4539 64.1709 38.574 64.0753C38.694 63.9796 38.7919 63.86 38.8612 63.7244L42.1466 57.1596C42.1675 57.1177 42.2043 57.0855 42.2491 57.0699C42.2939 57.0543 42.3431 57.0565 42.3862 57.0762C42.7457 57.243 43.0994 57.3946 43.3738 57.5254C43.7603 57.715 43.9942 57.7719 43.8917 57.9747L41.6673 62.4202C41.5444 62.6566 41.5125 62.9286 41.5774 63.1863C41.6424 63.4439 41.7999 63.67 42.021 63.823C42.1496 63.9073 42.2951 63.9638 42.4477 63.9887C42.6003 64.0136 42.7566 64.0064 42.9061 63.9675C43.0557 63.9286 43.1951 63.8589 43.315 63.763C43.435 63.6672 43.5327 63.5474 43.6019 63.4116L45.9113 58.7956C45.9318 58.7552 45.9671 58.724 46.0101 58.7081C46.0532 58.6923 46.1007 58.6931 46.1432 58.7103C47.9212 59.4155 49.8306 59.7775 50.4645 58.3141Z" fill="#041633"/>
<path fill-rule="evenodd" clip-rule="evenodd" d="M10.5711 1.81038V3.66985C10.5711 3.79108 10.4903 3.87182 10.3693 3.87182H2.4005V7.6715H8.97752C9.09853 7.6715 9.17912 7.75249 9.17912 7.87372V9.73319C9.17912 9.85442 9.09853 9.93516 8.97752 9.93516H2.4005V15.5538C2.4005 15.675 2.32017 15.7558 2.19891 15.7558H0.201598C0.0805882 15.7558 0 15.675 0 15.5538V1.81038C0 1.68915 0.0805882 1.60815 0.201598 1.60815H10.3693C10.4903 1.60815 10.5711 1.68915 10.5711 1.81038Z" fill="#041633"/>
<path fill-rule="evenodd" clip-rule="evenodd" d="M22.6046 9.77342C21.8683 7.73223 21.0514 5.69078 20.2138 3.83131H19.74C18.9027 5.69078 18.0756 7.73223 17.3393 9.77342H22.6046ZM26.831 15.7558H24.6321C24.5111 15.7558 24.4305 15.695 24.4003 15.5738C24.1076 14.4117 23.7546 13.1892 23.3511 11.9561H16.603C16.1995 13.1892 15.8462 14.4117 15.5638 15.5738C15.5336 15.695 15.453 15.7558 15.332 15.7558H13.2137C13.0724 15.7558 12.9916 15.675 13.032 15.5336C14.303 11.0265 16.2397 6.05473 18.1966 1.87111C18.2874 1.67888 18.3984 1.6084 18.59 1.6084H21.4546C21.6462 1.6084 21.7573 1.67888 21.8481 1.87111C23.8252 6.04448 25.7317 11.0265 27.0127 15.5336C27.0531 15.675 26.9722 15.7558 26.831 15.7558V15.7558Z" fill="#041633"/>
<path fill-rule="evenodd" clip-rule="evenodd" d="M30.4418 8.80334C30.4418 4.4175 33.3266 1.34546 37.4422 1.34546H37.7446C40.327 1.34546 42.3243 2.65926 43.3832 4.55898C43.4538 4.68021 43.4336 4.78145 43.3126 4.84193L41.5374 5.72105C41.4164 5.78179 41.2649 5.78179 41.1843 5.63032C40.438 4.33676 39.3182 3.64962 37.664 3.64962H37.3614C34.769 3.64962 32.9838 5.71105 32.9838 8.70236C32.9838 11.7034 34.7388 13.7146 37.3614 13.7146H37.664C39.3587 13.7146 40.3472 13.1384 41.1037 12.2593C41.2045 12.1481 41.3156 12.1281 41.4366 12.1886L43.2622 13.078C43.3328 13.1182 43.363 13.1687 43.363 13.2192C43.363 13.2699 43.3428 13.3104 43.3026 13.3709C42.1831 15.0079 40.1656 16.0185 37.7044 16.0185H37.4018C33.2155 16.0185 30.4418 13.1384 30.4418 8.80335" fill="#041633"/>
<path fill-rule="evenodd" clip-rule="evenodd" d="M59.4514 13.6944V15.5539C59.4514 15.6751 59.3706 15.7558 59.2495 15.7558H48.6582C48.5372 15.7558 48.4564 15.6751 48.4564 15.5539V1.81044C48.4564 1.68921 48.5372 1.60822 48.6582 1.60822H59.0679C59.1892 1.60822 59.2698 1.68921 59.2698 1.81044V3.66991C59.2698 3.79114 59.1892 3.87188 59.0679 3.87188H50.8571V7.55007H57.5347C57.6557 7.55007 57.7365 7.63106 57.7365 7.75229V9.59152C57.7365 9.71275 57.6557 9.79374 57.5347 9.79374H50.8571V13.4922H59.2495C59.3706 13.4922 59.4514 13.5729 59.4514 13.6944" fill="#041633"/>
<path fill-rule="evenodd" clip-rule="evenodd" d="M75.2269 11.6631C75.2269 10.3495 74.3594 9.75311 72.4529 9.75311H67.702V13.5528H72.4529C74.3898 13.5528 75.2269 12.9869 75.2269 11.6631ZM71.7772 3.81125H67.702V7.61094H71.7772C73.6029 7.61094 74.44 7.01478 74.44 5.71122C74.44 4.40741 73.6029 3.81125 71.7772 3.81125V3.81125ZM77.6881 11.8753C77.6881 14.3512 75.7918 15.756 72.4429 15.756H65.5031C65.3821 15.756 65.3013 15.675 65.3013 15.554V1.81056C65.3013 1.68907 65.3821 1.60834 65.5031 1.60834H71.8276C75.0857 1.60834 76.8609 2.90189 76.8609 5.26654C76.8609 6.82281 76.0743 7.8434 74.4807 8.31833C76.7197 8.79326 77.6881 10.1373 77.6881 11.8753" fill="#041633"/>
<path fill-rule="evenodd" clip-rule="evenodd" d="M89.4792 13.7147C92.3743 13.7147 94.1999 11.7237 94.1999 8.68217C94.1999 5.64038 92.3743 3.64942 89.4792 3.64942H89.1766C86.2815 3.64942 84.4559 5.64038 84.4559 8.68217C84.4559 11.7237 86.2815 13.7147 89.1766 13.7147H89.4792ZM81.9142 8.68217C81.9142 4.41756 84.7384 1.34552 89.1766 1.34552H89.4792C93.9175 1.34552 96.7419 4.41756 96.7419 8.68217C96.7419 12.9465 93.9175 16.0186 89.4792 16.0186H89.1766C84.7384 16.0186 81.9142 12.9465 81.9142 8.68217Z" fill="#041633"/>
<path fill-rule="evenodd" clip-rule="evenodd" d="M108.402 13.7147C111.297 13.7147 113.122 11.7237 113.122 8.68217C113.122 5.64038 111.297 3.64942 108.402 3.64942H108.099C105.204 3.64942 103.379 5.64038 103.379 8.68217C103.379 11.7237 105.204 13.7147 108.099 13.7147H108.402ZM100.837 8.68217C100.837 4.41756 103.661 1.34552 108.099 1.34552H108.402C112.84 1.34552 115.665 4.41756 115.665 8.68217C115.665 12.9465 112.84 16.0186 108.402 16.0186H108.099C103.661 16.0186 100.837 12.9465 100.837 8.68217Z" fill="#041633"/>
<path fill-rule="evenodd" clip-rule="evenodd" d="M133.064 15.7558H130.462C130.29 15.7558 130.22 15.7154 130.108 15.5841C128.283 13.4317 126.124 11.2893 124.288 9.71275H123.118V15.5539C123.118 15.6751 123.038 15.7558 122.917 15.7558H120.919C120.799 15.7558 120.718 15.6751 120.718 15.5539V1.81044C120.718 1.68921 120.798 1.60822 120.919 1.60822H122.917C123.038 1.60822 123.118 1.68921 123.118 1.81044V7.3886H124.309C126.276 5.61012 128.091 3.6899 129.574 1.75995C129.675 1.62846 129.756 1.60822 129.877 1.60822H132.338C132.459 1.60822 132.519 1.66896 132.519 1.74995C132.519 1.79019 132.499 1.84068 132.449 1.90143C130.28 4.57927 128.132 6.77219 126.144 8.46994C128.646 10.5921 131.016 12.9565 133.175 15.5031C133.286 15.6346 133.225 15.7558 133.064 15.7558" fill="#041633"/>
<path d="M310.518 56.5326L315.484 62.5768H311.562L307.143 57.0258V62.5768H303.928V46.6711H307.143V56.0237L311.225 51.4428H315.323L310.518 56.5326V56.5326ZM297.661 51.1247C296.957 51.1352 296.266 51.3142 295.648 51.6466C295.029 51.979 294.501 52.4549 294.109 53.0334V51.4428H291.072V62.5768H294.286V57.3756C294.243 56.9981 294.28 56.616 294.394 56.2532C294.507 55.8903 294.695 55.5545 294.945 55.2665C295.195 54.9785 295.503 54.7446 295.848 54.5793C296.194 54.4141 296.57 54.3209 296.953 54.3058C298.818 54.3058 299.107 56.119 299.107 57.3756V62.5768H302.322V56.6757C302.322 53.1765 301.148 51.1247 297.725 51.1247H297.661V51.1247ZM326.428 57.2643C326.441 57.4974 326.441 57.731 326.428 57.9642H317.991V58.0755C318.128 58.7388 318.499 59.3321 319.038 59.7489C319.577 60.1657 320.249 60.3788 320.932 60.35C321.474 60.3733 322.016 60.2881 322.524 60.0996C323.032 59.911 323.496 59.6229 323.889 59.2526L326.027 60.8432C325.349 61.5274 324.535 62.0635 323.635 62.4169C322.735 62.7703 321.771 62.9331 320.803 62.895C320.003 62.9451 319.2 62.8245 318.45 62.5413C317.7 62.2581 317.021 61.819 316.457 61.2536C315.893 60.6882 315.459 60.0097 315.183 59.2638C314.907 58.518 314.796 57.7222 314.857 56.9303C314.841 56.1485 314.987 55.3717 315.287 54.6483C315.587 53.925 316.035 53.2706 316.602 52.7259C317.169 52.1812 317.843 51.758 318.583 51.4825C319.322 51.207 320.111 51.0852 320.9 51.1247C323.922 51.1247 326.428 53.2402 326.428 57.2643ZM323.439 55.8964C323.428 55.5813 323.351 55.2719 323.214 54.9871C323.078 54.7022 322.884 54.4479 322.645 54.2396C322.406 54.0312 322.127 53.8732 321.824 53.7752C321.521 53.6772 321.201 53.6413 320.884 53.6696C319.471 53.5184 318.191 54.5036 317.991 55.8964H323.439ZM278.214 46.6711H275V62.5768H284.643V59.3959H278.214V46.6711ZM336.072 46.6711H339.286V62.5768H336.248V61.4634C335.862 61.9337 335.371 62.3081 334.813 62.5567C334.255 62.8053 333.645 62.9211 333.034 62.895C332.287 62.876 331.552 62.706 330.874 62.3955C330.195 62.0849 329.588 61.6404 329.09 61.0892C328.592 60.538 328.213 59.8917 327.976 59.1902C327.74 58.4887 327.651 57.7466 327.714 57.0098C327.638 56.2718 327.719 55.5264 327.95 54.8208C328.181 54.1152 328.558 53.4649 329.057 52.9114C329.555 52.3578 330.165 51.9131 330.847 51.6055C331.529 51.2979 332.268 51.1342 333.018 51.1247C333.576 51.1005 334.133 51.1865 334.658 51.3777C335.182 51.5688 335.663 51.8613 336.072 52.2381V46.6711V46.6711ZM336.312 57.0098C336.363 56.6425 336.333 56.2687 336.226 55.9137C336.118 55.5587 335.934 55.2308 335.688 54.9519C335.441 54.673 335.137 54.4497 334.795 54.2971C334.454 54.1445 334.084 54.0661 333.709 54.0672C332.171 54.1777 331.006 55.4863 331.089 57.0098C331.006 58.5332 332.171 59.842 333.709 59.9524C334.084 59.9536 334.454 59.8752 334.795 59.7225C335.137 59.5699 335.441 59.3466 335.688 59.0678C335.934 58.7889 336.118 58.4609 336.226 58.1058C336.333 57.7508 336.363 57.3771 336.312 57.0098V57.0098ZM287.857 46.3529C287.34 46.3602 286.845 46.5613 286.473 46.9156C286.1 47.2699 285.877 47.7511 285.848 48.2619C285.848 49.3598 286.748 50.25 287.857 50.25C288.967 50.25 289.866 49.3596 289.866 48.2619C289.837 47.7511 289.614 47.27 289.241 46.9158C288.869 46.5615 288.374 46.3604 287.857 46.3531L287.857 46.3529ZM286.25 62.5768H289.464V51.4428H286.25V62.5768ZM365 45.0805V64.1674C365 64.5892 364.831 64.9938 364.529 65.2921C364.228 65.5904 363.819 65.758 363.393 65.758H344.107C343.681 65.758 343.272 65.5904 342.971 65.2921C342.669 64.9938 342.5 64.5892 342.5 64.1674V45.0805C342.5 44.6587 342.669 44.2541 342.971 43.9558C343.272 43.6575 343.681 43.4899 344.107 43.4899H363.393C363.819 43.4899 364.228 43.6575 364.529 43.9558C364.831 44.2541 365 44.6587 365 45.0805V45.0805ZM348.928 51.4428H345.714V62.5768H348.928V51.4428ZM349.33 48.2617C349.33 47.1636 348.431 46.2734 347.322 46.2734C346.212 46.2734 345.312 47.1636 345.312 48.2617C345.312 49.3596 346.212 50.2498 347.322 50.2498C348.431 50.2498 349.33 49.3596 349.33 48.2617V48.2617ZM361.786 56.6757C361.786 53.1765 360.613 51.1247 357.189 51.1247C356.475 51.1248 355.771 51.2989 355.14 51.6318C354.51 51.9646 353.971 52.446 353.573 53.0334V51.4428H350.536V62.5768H353.75V57.3756C353.708 56.9981 353.745 56.616 353.858 56.2532C353.971 55.8903 354.159 55.5545 354.409 55.2665C354.66 54.9785 354.967 54.7446 355.313 54.5793C355.658 54.4141 356.034 54.3209 356.418 54.3058C358.282 54.3058 358.572 56.119 358.572 57.3756V62.5768H361.786V56.6757Z" fill="#041633"/>
<path d="M283 16.6408H312.734V12.3602H283V16.6408ZM283 6.04785H288.949V1.77082H283V6.04785ZM294.894 6.04785H300.843V1.77082H294.893L294.894 6.04785ZM306.788 6.04785H312.734V1.77082H306.788V6.04785ZM297.355 11.3443H283V7.0673H297.355V11.3443ZM312.734 11.3443H298.379V7.0673H312.734V11.3443ZM335.224 16.1401C337.192 16.0737 337.626 15.7012 337.626 14.8954V3.58627C337.626 2.7804 337.192 2.38823 335.224 2.32093V1.84081H342.102V2.32093C340.136 2.38823 339.702 2.7804 339.702 3.58627V14.8954C339.702 15.7012 340.136 16.0737 342.102 16.1401V16.6408H335.224V16.1401ZM346.73 16.1401C348.672 16.0737 349.261 15.7012 349.261 14.8954V2.45105H348.17C346.336 2.45105 345.397 2.46451 344.328 5.15044L343.848 5.10468L343.977 1.84081H356.594L356.748 5.10468L356.268 5.14955C355.286 2.63681 354.325 2.45105 352.425 2.45105H351.31V14.8954C351.31 15.7012 351.903 16.0737 353.845 16.1401V16.6408H346.728V16.1401H346.73ZM385.918 16.1401C387.814 16.0737 388.298 15.7012 388.298 14.8954V3.58627C388.298 2.7804 387.813 2.38823 385.918 2.32093V1.84081H397.924L397.987 5.10109L397.507 5.12173C396.592 2.47887 395.849 2.47528 393.36 2.47528H390.37V8.65212H391.702C393.427 8.65212 394.19 8.25995 394.758 5.92132H395.194V11.9932H394.758C394.19 9.65452 393.427 9.28299 391.702 9.28299H390.37V15.8879H393.36C396.287 15.8879 397.268 15.9642 398.229 13.1706L398.71 13.1948L398.6 16.6408H385.918V16.1401ZM400.935 16.1401C402.835 16.0737 403.315 15.7012 403.315 14.8954V3.58627C403.315 2.7804 402.835 2.38823 400.935 2.32093V1.84081H407.659V2.32093C405.717 2.38823 405.387 2.75976 405.387 3.58627V15.887H407.572C410.452 15.887 411.48 15.0255 412.528 11.8388L413.008 11.8594L412.833 16.6408H400.935V16.1401ZM376.656 15.9121H375.041V2.45105H376.635C380.607 2.45105 382.573 4.17586 382.573 9.11159C382.573 13.9558 381.304 15.9121 376.656 15.9121ZM376.873 1.84081H370.949V2.34246C372.538 2.44746 372.968 2.83604 372.968 3.58627V14.8954C372.968 15.6456 372.538 16.0171 370.949 16.1158V16.6408H377.073C382.573 16.6408 384.95 12.9498 384.95 8.97788C384.95 4.83187 382.223 1.84081 376.873 1.84081ZM360.022 10.3976L362.424 4.22073H362.512L364.65 10.3976H360.022ZM368.208 14.1523L363.581 1.48993H362.841L358.298 12.8618C357.425 15.0246 356.815 15.8314 355.35 16.1822V16.6408H360.265V16.1822C358.319 15.8556 358.102 15.3755 359.02 12.9956L359.785 11.0078H364.87L366.049 14.4153C366.483 15.6384 366.178 16.0737 364.191 16.1822V16.6408H370.343V16.1149C369.028 15.8726 368.667 15.3862 368.208 14.1523ZM328.418 2.08311C325.84 2.08311 323.44 4.35086 323.44 9.32876C323.44 14.0644 326.32 16.0279 328.83 16.0279C329.596 16.0192 330.347 15.8229 331.018 15.4562C331.695 15.0847 332.312 14.5768 332.75 13.9351C333.058 13.4864 333.28 13.0306 333.475 12.4804L333.96 12.6276C333.714 13.4164 333.374 14.1873 332.872 14.8496C332.391 15.4886 331.773 16.0119 331.064 16.3815C330.861 16.4837 330.653 16.5739 330.44 16.6516C330.203 16.7379 329.961 16.8069 329.714 16.858C329.23 16.9601 328.737 17.0118 328.243 17.0123C324.028 17.0123 321.059 13.9773 321.059 9.41671C321.059 4.89738 324.4 1.49083 328.655 1.49083C330.205 1.49083 331.449 1.90722 332.368 2.40887L333.132 2.3981L333.29 3.82857L333.588 6.31438H333.132C332.127 3.60781 330.623 2.08311 328.418 2.08311Z" fill="#041633"/>
<path d="M187.778 42.991H184V46.8294H187.778V42.991Z" fill="#041633"/>
<path d="M187.684 62.9887V49.1652H184.108V62.9887H187.684ZM211.455 63.1253V59.7377C210.931 59.7377 210.487 59.7104 210.165 59.6558C209.788 59.6011 209.506 59.4645 209.318 59.2733C209.129 59.0821 209.008 58.8089 208.941 58.4537C208.887 58.1122 208.86 57.6615 208.86 57.1151V52.2796H211.455V49.1652H208.86V43.7696H205.271V57.1424C205.271 58.2762 205.365 59.2323 205.553 59.9973C205.741 60.7486 206.064 61.3632 206.508 61.8277C206.951 62.2921 207.543 62.6199 208.255 62.8248C208.981 63.0297 209.896 63.1253 210.985 63.1253H211.455ZM232 62.9887V42.7042H228.41V62.9887H232ZM201.815 50.5175C200.82 49.4247 199.422 48.8783 197.647 48.8783C196.787 48.8783 196.007 49.0559 195.294 49.411C194.595 49.7662 193.99 50.2579 193.519 50.8863L193.318 51.1458V50.9136V49.1652H189.781V62.9887H193.345V55.6262V56.1316C193.345 56.0496 193.345 55.9677 193.345 55.8857C193.385 54.5881 193.694 53.6319 194.286 53.0172C194.918 52.3615 195.684 52.0337 196.558 52.0337C197.593 52.0337 198.387 52.3615 198.911 52.9899C199.422 53.6182 199.691 54.5061 199.691 55.6398V55.6672V62.9751H203.308V55.1344C203.321 53.1675 202.81 51.6103 201.815 50.5175ZM226.555 56.0496C226.555 55.0525 226.38 54.1236 226.044 53.2494C225.694 52.3889 225.21 51.6239 224.605 50.9682C223.987 50.3126 223.247 49.8072 222.387 49.4384C221.526 49.0696 220.571 48.892 219.536 48.892C218.555 48.892 217.627 49.0832 216.766 49.452C215.906 49.8345 215.153 50.3399 214.521 50.9819C213.889 51.6239 213.378 52.3889 213.015 53.2631C212.639 54.1373 212.464 55.0798 212.464 56.077C212.464 57.0741 212.639 58.0166 212.988 58.8908C213.338 59.7651 213.835 60.53 214.454 61.172C215.072 61.814 215.839 62.3331 216.726 62.7019C217.613 63.0844 218.595 63.2756 219.644 63.2756C222.682 63.2756 224.565 61.8686 225.694 60.5573L223.113 58.563C222.575 59.2187 221.284 60.1066 219.671 60.1066C218.662 60.1066 217.829 59.8743 217.197 59.3963C216.565 58.9318 216.134 58.2762 215.906 57.4702L215.866 57.3473H226.555V56.0496ZM215.892 54.7793C215.892 53.7685 217.035 52.0064 219.496 51.9927C221.956 51.9927 223.113 53.7548 223.113 54.7656L215.892 54.7793Z" fill="#041633"/>
</g>
<defs>
<clipPath id="clip0">
<rect width="413" height="66" fill="white"/>
</clipPath>
</defs>
</svg>
