<svg id="Layer_1" data-name="Layer 1" xmlns="http://www.w3.org/2000/svg" viewBox="0 0 608.96 100.92"><defs><style>.cls-1{fill:#231f20;}</style></defs><title>jellyfish</title><path class="cls-1" d="M532.15,52.39a52.86,52.86,0,0,0-10.93-4.3,58.25,58.25,0,0,1-9.28-3.45c-4-2-5.83-4.69-5.58-8.11.28-3.83,2.53-6.36,6.86-7.73,5.51-1.75,11.2-1.21,17.9,1.7l.8.34a.94.94,0,0,0,1.26-.53l2-4.78a1,1,0,0,0-.52-1.31l-.8-.35c-8.3-3.6-15.5-4.22-22.66-1.94s-11.24,7.14-11.76,14c-.33,4.54,1,10.84,9.46,15.11A63.89,63.89,0,0,0,519.24,55a47,47,0,0,1,9.52,3.68c3.23,1.85,4.69,4.29,4.59,7.69a8.56,8.56,0,0,1-5.14,8.1c-3.32,1.67-7.06,1.89-10.28,1.89a26.27,26.27,0,0,1-14.2-4.44l-.73-.44a1,1,0,0,0-1.3.32l-2.77,4.46a1,1,0,0,0,.15,1.26,32.79,32.79,0,0,0,18.64,5.88c19.6,0,22.41-10.11,22.6-16.82C540.5,60.36,537.75,55.59,532.15,52.39Z"/><path class="cls-1" d="M137.15,70.17c0,2.52-2.13,6.44-8.44,6.44-4.61,0-8.78-3.44-10-4.77a1,1,0,0,0-1.32-.12l-4.65,3.48a1,1,0,0,0-.19,1.41,22.38,22.38,0,0,0,16.37,7.57c14.36,0,15.82-9.34,15.82-13.64V21.09a1,1,0,0,0-1-1h-5.58a1,1,0,0,0-1,1Z"/><path class="cls-1" d="M170.93,83.15h35.85a1,1,0,0,0,1-1V76.58a1,1,0,0,0-1-1H178.5a1,1,0,0,1-1-1V56.4a1,1,0,0,1,1-1h27a1,1,0,0,0,1-1V48.84a1,1,0,0,0-1-1h-27a1,1,0,0,1-1-1V28.66a1,1,0,0,1,1-1h28.28a1,1,0,0,0,1-1V21.09a1,1,0,0,0-1-1H170.93a1,1,0,0,0-1,1V82.15A1,1,0,0,0,170.93,83.15Z"/><path class="cls-1" d="M238.3,20.09h-5.57a1,1,0,0,0-1,1V82.15a1,1,0,0,0,1,1h32.06a1,1,0,0,0,1-1V76.58a1,1,0,0,0-1-1H240.3a1,1,0,0,1-1-1V21.09A1,1,0,0,0,238.3,20.09Z"/><path class="cls-1" d="M293.8,20.09h-5.58a1,1,0,0,0-1,1V82.15a1,1,0,0,0,1,1h32.06a1,1,0,0,0,1-1V76.58a1,1,0,0,0-1-1H295.79a1,1,0,0,1-1-1V21.09A1,1,0,0,0,293.8,20.09Z"/><path class="cls-1" d="M358.29,48.83,339.75,20.54a1,1,0,0,0-.83-.45h-6.5a1,1,0,0,0-.82,1.56L355.16,58a1.06,1.06,0,0,1,.17.57V82.15a1,1,0,0,0,1,1h5.57a1,1,0,0,0,1-1V58.52a1,1,0,0,1,.15-.53l21.66-36.37a1,1,0,0,0-.84-1.53h-6.58a1,1,0,0,0-.83.45L360,48.83a1,1,0,0,1-1.66,0Z"/><path class="cls-1" d="M409.3,83.15h5.57a1,1,0,0,0,1-1V56.4a1,1,0,0,1,1-1h22a1,1,0,0,0,1-1V48.84a1,1,0,0,0-1-1h-22a1,1,0,0,1-1-1V28.66a1,1,0,0,1,1-1h23.23a1,1,0,0,0,1-1V21.09a1,1,0,0,0-1-1H409.3a1,1,0,0,0-1,1V82.15A1,1,0,0,0,409.3,83.15Z"/><rect class="cls-1" x="467.58" y="20.09" width="7.57" height="63.06" rx="1"/><path class="cls-1" d="M598.74,21.09V49.36a1,1,0,0,1-1,1h-27a1,1,0,0,1-1-1V21.09a1,1,0,0,0-1-1h-5.57a1,1,0,0,0-1,1V82.15a1,1,0,0,0,1,1h5.57a1,1,0,0,0,1-1V57.66a1,1,0,0,1,1-1h27a1,1,0,0,1,1,1V82.15a1,1,0,0,0,1,1h5.57a1,1,0,0,0,1-1V21.09a1,1,0,0,0-1-1h-5.57A1,1,0,0,0,598.74,21.09Z"/><path class="cls-1" d="M87.69,68.46c24.45-57.68-53.43-95.81-84-41.31C-.46,34.47,6.88,41,15.42,46a.93.93,0,0,1,.37,1.22L8.11,62.91A5.79,5.79,0,0,0,9.93,70.3a5.63,5.63,0,0,0,8.18-2.17l7.51-15.28c.52-1.06,1.5-.31,3.52.68,1.81.89,3.19,1.68,5,2.6a.94.94,0,0,1,.41,1.25L17.65,91.76a5.81,5.81,0,0,0,1.82,7.4A5.64,5.64,0,0,0,27.65,97l17-34.63a.94.94,0,0,1,1.24-.44c1.86.88,3.69,1.68,5.11,2.37,2,1,3.21,1.3,2.68,2.37L42.17,90.12A5.82,5.82,0,0,0,44,97.52a5.64,5.64,0,0,0,8.18-2.17L64.13,71a.94.94,0,0,1,1.2-.45C74.53,74.27,84.41,76.18,87.69,68.46Z"/></svg>