<svg fill="none" height="650" viewBox="0 0 650 650" width="650" xmlns="http://www.w3.org/2000/svg"><circle cx="457.5" cy="460.5" fill="#dcf2ff" r="179.5"/><circle cx="177.5" cy="244.5" fill="#ffc93d" r="143.5"/><circle cx="429.5" cy="118.5" fill="#e15285" r="108.5"/><g fill="#041633"><path d="m347 408.629h8.807v42.811h-8.807z"/><path d="m366.187 406h8.171v45.44h-8.171z"/><path d="m385.07 406h8.171v45.44h-8.171z"/><path d="m408.038 414.71c-.81 0-1.546-.11-2.208-.329-.644-.237-1.197-.547-1.657-.931-.46-.402-.819-.858-1.076-1.369-.24-.53-.359-1.087-.359-1.671 0-.603.119-1.16.359-1.671.257-.53.616-.986 1.076-1.369.46-.384 1.013-.685 1.657-.904.662-.238 1.398-.356 2.208-.356.828 0 1.565.118 2.209.356.662.219 1.224.52 1.684.904.46.383.81.839 1.049 1.369.257.511.386 1.068.386 1.671 0 .584-.129 1.141-.386 1.671-.239.511-.589.967-1.049 1.369-.46.384-1.022.694-1.684.931-.644.219-1.381.329-2.209.329zm-4.086 4.41h8.172v32.32h-8.172z"/><path d="m422.614 419.12h8.172v2.739c2.172-1.224 4.242-2.082 6.212-2.575 1.987-.493 3.929-.739 5.825-.739 2.484 0 4.785.365 6.901 1.095 2.117.712 3.948 1.781 5.494 3.205s2.751 3.205 3.616 5.341c.884 2.118 1.325 4.574 1.325 7.368v15.886h-8.143v-14.571c0-1.772-.258-3.351-.773-4.739-.497-1.406-1.224-2.584-2.181-3.533-.939-.968-2.089-1.698-3.451-2.191-1.344-.512-2.853-.767-4.528-.767-.883 0-1.794.091-2.733.274-.92.182-1.831.447-2.733.794-.883.329-1.739.749-2.567 1.26-.828.493-1.583 1.059-2.264 1.698v21.775h-8.172z"/><path d="m468.248 435.28c0-2.319.47-4.492 1.408-6.519.957-2.027 2.31-3.798 4.058-5.314 1.767-1.515 3.893-2.711 6.377-3.588 2.503-.876 5.31-1.314 8.42-1.314 3.111 0 5.908.438 8.393 1.314 2.503.877 4.629 2.073 6.377 3.588 1.767 1.516 3.12 3.287 4.058 5.314.957 2.027 1.436 4.2 1.436 6.519s-.479 4.492-1.436 6.519c-.938 2.027-2.291 3.798-4.058 5.314-1.748 1.515-3.874 2.711-6.377 3.588-2.485.876-5.282 1.314-8.393 1.314-3.11 0-5.917-.438-8.42-1.314-2.484-.877-4.61-2.073-6.377-3.588-1.748-1.516-3.101-3.287-4.058-5.314-.938-2.027-1.408-4.2-1.408-6.519zm8.586 0c0 1.296.258 2.529.773 3.698.534 1.15 1.297 2.173 2.291 3.067 1.012.877 2.236 1.58 3.672 2.109 1.454.512 3.101.767 4.941.767 1.841 0 3.479-.255 4.914-.767 1.454-.529 2.678-1.232 3.672-2.109 1.012-.894 1.776-1.917 2.291-3.067.534-1.169.801-2.402.801-3.698s-.267-2.529-.801-3.698c-.515-1.168-1.279-2.191-2.291-3.067-.994-.895-2.218-1.598-3.672-2.109-1.435-.53-3.073-.795-4.914-.795-1.84 0-3.487.265-4.941.795-1.436.511-2.66 1.214-3.672 2.109-.994.876-1.757 1.899-2.291 3.067-.515 1.169-.773 2.402-.773 3.698z"/><path d="m521.336 414.71c-.81 0-1.546-.11-2.209-.329-.644-.237-1.196-.547-1.656-.931-.46-.402-.819-.858-1.077-1.369-.239-.53-.359-1.087-.359-1.671 0-.603.12-1.16.359-1.671.258-.53.617-.986 1.077-1.369.46-.384 1.012-.685 1.656-.904.663-.238 1.399-.356 2.209-.356.828 0 1.564.118 2.208.356.663.219 1.224.52 1.684.904.46.383.81.839 1.049 1.369.258.511.387 1.068.387 1.671 0 .584-.129 1.141-.387 1.671-.239.511-.589.967-1.049 1.369-.46.384-1.021.694-1.684.931-.644.219-1.38.329-2.208.329zm-4.086 4.41h8.171v32.32h-8.171z"/><path d="m537.21 441.525c2.208 1.315 4.637 2.282 7.288 2.903 2.65.621 5.365.932 8.144.932 1.877 0 3.441-.128 4.693-.384 1.251-.256 2.254-.584 3.009-.986.754-.402 1.288-.858 1.601-1.369.313-.512.469-1.032.469-1.562 0-.767-.34-1.424-1.021-1.972-.663-.548-1.767-.821-3.313-.821-.718 0-1.491.045-2.319.136-.828.092-1.702.192-2.622.302-.902.091-1.85.182-2.844.274-.975.091-1.969.137-2.981.137-2.209 0-4.095-.238-5.66-.713-1.546-.474-2.806-1.123-3.782-1.944-.975-.822-1.684-1.79-2.126-2.904-.441-1.132-.662-2.346-.662-3.642 0-1.644.386-3.159 1.159-4.547s1.878-2.584 3.313-3.588c1.436-1.023 3.166-1.817 5.19-2.383 2.043-.566 4.316-.849 6.819-.849 1.307 0 2.669.082 4.086.246 1.435.146 2.843.347 4.224.603 1.38.255 2.705.557 3.975.904 1.27.328 2.392.684 3.368 1.068l-2.568 6.3c-2.079-.767-4.159-1.37-6.239-1.808-2.061-.457-4.187-.685-6.377-.685-1.527 0-2.825.119-3.892.356-1.049.219-1.905.521-2.568.904-.662.365-1.15.794-1.463 1.287-.294.475-.442.977-.442 1.507 0 .383.074.73.221 1.041.166.31.424.584.773.821.368.219.838.393 1.408.521.589.109 1.307.164 2.154.164.773 0 1.592-.046 2.457-.137s1.766-.182 2.705-.274c.939-.109 1.905-.21 2.899-.301 1.012-.091 2.043-.137 3.092-.137 1.95 0 3.653.228 5.107.685 1.472.456 2.687 1.095 3.644 1.917s1.675 1.79 2.153 2.903c.479 1.114.718 2.329.718 3.643 0 1.698-.396 3.278-1.187 4.739s-1.969 2.73-3.534 3.807c-1.564 1.059-3.515 1.89-5.852 2.492-2.319.603-5.006.904-8.061.904-1.878 0-3.691-.118-5.439-.356-1.748-.219-3.414-.52-4.997-.904-1.583-.401-3.073-.867-4.472-1.396-1.38-.53-2.641-1.096-3.782-1.699z"/><path d="m347.079 466.614h8.752v35.196h25.094v7.615h-33.846z"/><path d="m386.86 499.236c0-1.552.341-2.968 1.022-4.246s1.702-2.374 3.064-3.287c1.362-.931 3.055-1.643 5.08-2.136 2.043-.511 4.417-.767 7.122-.767 2.006 0 4.114.146 6.322.438 2.227.292 4.518.74 6.874 1.342-.092-1.022-.405-1.963-.938-2.821-.534-.876-1.28-1.625-2.237-2.246-.938-.639-2.079-1.132-3.423-1.479-1.325-.347-2.834-.52-4.527-.52-.92 0-1.933.055-3.037.164-1.104.11-2.245.274-3.423.493s-2.347.493-3.506.822c-1.141.329-2.209.721-3.203 1.178l-2.484-6.656c1.233-.438 2.549-.84 3.948-1.205 1.417-.366 2.861-.676 4.334-.932 1.472-.274 2.944-.483 4.417-.63 1.472-.146 2.899-.219 4.279-.219 6.092 0 10.619 1.543 13.582 4.629s4.445 7.816 4.445 14.188v14.079h-8.172v-3.041c-.846.494-1.776.959-2.788 1.397-.994.439-2.08.822-3.257 1.151-1.178.328-2.448.584-3.81.767-1.344.201-2.77.301-4.279.301-2.54 0-4.776-.274-6.709-.822-1.914-.548-3.515-1.305-4.803-2.273s-2.264-2.1-2.926-3.396c-.645-1.315-.967-2.739-.967-4.273zm8.614-.274c0 .529.138 1.041.414 1.534.276.474.717.904 1.325 1.287.607.365 1.38.666 2.319.904.957.219 2.107.329 3.451.329 1.435 0 2.825-.128 4.168-.384 1.344-.256 2.595-.593 3.755-1.013 1.159-.42 2.208-.904 3.147-1.452.938-.548 1.721-1.114 2.346-1.698v-1.425c-1.251-.346-2.493-.639-3.726-.876-1.215-.237-2.384-.42-3.507-.548-1.104-.146-2.153-.246-3.147-.301-.975-.055-1.831-.082-2.567-.082-1.528 0-2.798.1-3.81.301s-1.831.475-2.457.822c-.626.328-1.067.721-1.325 1.178-.258.456-.386.931-.386 1.424z"/><path d="m435.172 463.985h8.171v16.16c.718-.493 1.565-.959 2.54-1.397.976-.438 2.025-.822 3.147-1.15 1.123-.329 2.283-.585 3.479-.767 1.196-.201 2.392-.302 3.589-.302 2.76 0 5.291.402 7.592 1.205 2.318.804 4.306 1.936 5.963 3.397 1.656 1.461 2.944 3.214 3.864 5.259.939 2.027 1.408 4.273 1.408 6.738 0 2.574-.487 4.903-1.463 6.984-.975 2.064-2.328 3.835-4.058 5.314-1.712 1.461-3.754 2.593-6.129 3.396-2.355.785-4.914 1.178-7.674 1.178-1.178 0-2.347-.073-3.506-.219-1.141-.146-2.246-.347-3.313-.603-1.049-.255-2.043-.557-2.982-.904-.92-.365-1.739-.757-2.457-1.177v2.328h-8.171zm8.171 35.278c.829.657 1.703 1.214 2.623 1.671.92.456 1.859.831 2.816 1.123s1.923.511 2.899.657c.975.128 1.923.192 2.843.192 1.877 0 3.543-.247 4.997-.74 1.472-.511 2.705-1.205 3.699-2.081 1.012-.877 1.785-1.908 2.319-3.095s.801-2.475.801-3.862c0-1.297-.267-2.52-.801-3.671-.515-1.15-1.27-2.154-2.264-3.012-.975-.877-2.162-1.562-3.561-2.055-1.38-.511-2.935-.767-4.665-.767-1.105 0-2.209.11-3.313.329-1.104.201-2.172.493-3.202.877-1.013.383-1.97.849-2.872 1.396-.883.548-1.656 1.16-2.319 1.836z"/><path d="m483.787 499.51c2.209 1.314 4.638 2.282 7.288 2.903 2.651.621 5.365.931 8.144.931 1.877 0 3.442-.128 4.693-.383 1.252-.256 2.255-.585 3.009-.986.755-.402 1.289-.859 1.602-1.37s.469-1.031.469-1.561c0-.767-.341-1.424-1.021-1.972-.663-.548-1.767-.822-3.313-.822-.718 0-1.491.046-2.319.137s-1.703.192-2.623.301c-.902.092-1.849.183-2.843.274-.976.092-1.97.137-2.982.137-2.208 0-4.095-.237-5.659-.712-1.546-.475-2.807-1.123-3.782-1.945-.976-.821-1.684-1.789-2.126-2.903-.442-1.132-.663-2.346-.663-3.643 0-1.643.387-3.159 1.16-4.547.773-1.387 1.877-2.583 3.313-3.588 1.435-1.022 3.165-1.817 5.19-2.383 2.043-.566 4.316-.849 6.819-.849 1.306 0 2.668.082 4.085.247 1.436.146 2.844.347 4.224.602 1.38.256 2.706.557 3.976.904 1.269.329 2.392.685 3.368 1.068l-2.568 6.3c-2.08-.767-4.159-1.369-6.239-1.808-2.061-.456-4.187-.684-6.377-.684-1.528 0-2.825.118-3.893.356-1.049.219-1.905.52-2.567.904-.663.365-1.15.794-1.463 1.287-.295.475-.442.977-.442 1.506 0 .384.074.731.221 1.041.166.311.423.585.773.822.368.219.837.393 1.408.52.589.11 1.307.165 2.153.165.773 0 1.592-.046 2.457-.137.865-.092 1.767-.183 2.706-.274.938-.11 1.904-.21 2.898-.301 1.013-.092 2.043-.137 3.092-.137 1.951 0 3.654.228 5.107.684 1.473.457 2.687 1.096 3.645 1.918.957.821 1.674 1.789 2.153 2.903.478 1.114.718 2.328.718 3.643 0 1.698-.396 3.278-1.187 4.738-.792 1.461-1.97 2.73-3.534 3.808-1.564 1.059-3.515 1.89-5.853 2.492-2.319.603-5.006.904-8.061.904-1.877 0-3.69-.119-5.438-.356-1.749-.219-3.414-.52-4.997-.904-1.583-.402-3.074-.867-4.472-1.397-1.381-.529-2.641-1.095-3.783-1.698z"/><path clip-rule="evenodd" d="m369.12 108.649c-7.261-4.139-4.299-15.4479 4.009-15.309l2.448.0463c1.423.0246 2.827-.3411 4.066-1.059s2.267-1.7619 2.978-3.0237c.712-1.2617 1.08-2.6953 1.067-4.152-.012-1.4566-.406-2.8832-1.139-4.1317l-1.253-2.148c-4.276-7.2903 3.828-15.57 10.942-11.1988l2.105 1.2903c1.22.7471 2.613 1.1469 4.035 1.158s2.821-.367 4.052-1.0951c1.232-.728 2.25-1.7796 2.951-3.0459.7-1.2662 1.057-2.701 1.034-4.1559l-.031-2.5085c-.141-8.4979 10.916-11.5312 14.948-4.0966l1.192 2.184c.69 1.2742 1.701 2.3362 2.927 3.0758 1.227.7396 2.624 1.1299 4.048 1.1305 1.423.0005 2.821-.3888 4.048-1.1276 1.227-.7387 2.238-1.8 2.929-3.0736l1.185-2.1927c4.045-7.4296 15.097-4.3993 14.961 4.1021l-.045 2.5051c-.024 1.4565.333 2.893 1.035 4.1605.701 1.2675 1.722 2.3198 2.955 3.0477s2.634 1.1049 4.058 1.0918c1.423-.013 2.817-.4156 4.037-1.1661l2.1-1.2818c7.124-4.3756 15.216 3.9167 10.944 11.196l-1.259 2.1461c-.732 1.2486-1.124 2.6748-1.136 4.1309s.356 2.8889 1.068 4.1499 1.74 2.3044 2.978 3.0218 2.642 1.0829 4.064 1.0584l2.452-.0321c8.305-.1437 11.269 11.1709 4.004 15.2969l-2.135 1.219c-1.245.706-2.283 1.74-3.006 2.995s-1.104 2.685-1.105 4.142c0 1.456.38 2.887 1.102 4.142.722 1.256 1.759 2.29 3.004 2.997l2.143 1.213c7.261 4.139 4.299 15.448-4.009 15.309l-2.448-.046c-1.423-.025-2.827.341-4.066 1.059s-2.267 1.762-2.978 3.023c-.712 1.262-1.08 2.696-1.067 4.152.012 1.457.406 2.884 1.139 4.132l1.253 2.148c4.276 7.29-3.828 15.57-10.942 11.199l-2.097-1.288c-1.22-.749-2.614-1.151-4.037-1.163s-2.823.365-4.056 1.093c-1.232.728-2.252 1.78-2.953 3.047-.701 1.268-1.058 2.704-1.034 4.159l.031 2.509c.141 8.498-10.916 11.531-14.948 4.097l-1.192-2.184c-.69-1.275-1.701-2.337-2.927-3.076-1.227-.74-2.624-1.13-4.048-1.131-1.423 0-2.821.389-4.048 1.128s-2.238 1.8-2.929 3.074l-1.185 2.192c-4.045 7.43-15.097 4.4-14.961-4.102l.045-2.505c.024-1.457-.333-2.893-1.035-4.161-.701-1.267-1.722-2.319-2.955-3.047s-2.634-1.105-4.058-1.092c-1.423.013-2.817.416-4.037 1.166l-2.1 1.282c-7.124 4.376-15.216-3.917-10.944-11.196l1.261-2.154c.73-1.249 1.121-2.675 1.132-4.13s-.359-2.886-1.07-4.146c-.712-1.26-1.74-2.302-2.977-3.019s-2.64-1.082-4.061-1.058l-2.452.032c-8.305.144-11.269-11.171-4.004-15.297l2.135-1.219c1.245-.706 2.283-1.74 3.006-2.995s1.104-2.685 1.105-4.142c0-1.456-.38-2.887-1.102-4.142-.722-1.256-1.759-2.29-3.004-2.997zm101.759 2.67c.66 5.59.228 11.259-1.271 16.678l.008.002c-1.8 6.872-5.236 13.104-9.925 18.183l-24.863-31.549 9.901-37.8107c3.693 1.4729 7.169 3.4824 10.318 5.9728 4.354 3.444 7.996 7.739 10.714 12.6357 2.718 4.8962 4.457 10.2972 5.118 15.8882zm-34.939-36.9068-9.901 37.8108-36.948 14.588c-1.575-6.794-1.505-13.944.293-20.81 1.349-5.459 3.745-10.5902 7.049-15.0939s7.449-8.2907 12.196-11.1408c4.746-2.85 9.999-4.7064 15.453-5.4612 3.945-.546 7.938-.5076 11.858.1071zm-43.862 61.0188c.449.954.934 1.894 1.455 2.817 5.508 9.761 14.579 16.883 25.218 19.801 10.639 2.917 21.975 1.39 31.514-4.246.898-.53 1.773-1.093 2.624-1.687l-24.457-31.046-.002.009z" fill-opacity=".3" fill-rule="evenodd"/><path d="m138.28 205.05.001-.001c.658-.662 1.44-1.187 2.301-1.545s1.785-.543 2.717-.543c.933 0 1.856.185 2.718.543.86.358 1.642.882 2.3 1.543.659.661 1.183 1.445 1.54 2.308.357.864.541 1.79.541 2.725s-.184 1.861-.541 2.725c-.357.863-.881 1.647-1.54 2.307l-1.559-1.562-.001.001 1.558 1.563-29.19 29.264 29.192 29.265c1.331 1.335 2.079 3.145 2.079 5.032 0 1.888-.748 3.698-2.079 5.033-1.331 1.334-3.136 2.084-5.018 2.084s-3.687-.75-5.017-2.084l-34.199-34.296-.002-.002c-.659-.66-1.183-1.444-1.54-2.307-.357-.864-.541-1.79-.541-2.725s.184-1.862.541-2.725c.358-.863.881-1.647 1.54-2.307z" fill-opacity=".3"/><path d="m205.143 212.805c.357.863.881 1.647 1.54 2.307l.002.002 29.19 29.264-29.192 29.265c-.659.661-1.182 1.446-1.538 2.309-.357.864-.541 1.789-.541 2.723 0 .935.184 1.86.541 2.724.356.863.879 1.648 1.538 2.309.659.66 1.441 1.185 2.302 1.542.861.358 1.784.542 2.716.542.931 0 1.854-.184 2.715-.542.861-.357 1.643-.882 2.302-1.542l34.199-34.296c.66-.661 1.184-1.445 1.542-2.309.357-.864.541-1.79.541-2.725s-.184-1.862-.541-2.725c-.358-.864-.882-1.649-1.542-2.309l-34.197-34.294-.002-.002c-.658-.661-1.439-1.186-2.3-1.544s-1.785-.543-2.717-.543c-.933 0-1.856.185-2.718.543-.86.358-1.642.883-2.3 1.544-.66.66-1.183 1.444-1.54 2.307-.357.864-.541 1.79-.541 2.725s.184 1.861.541 2.725z" fill-opacity=".3"/><path clip-rule="evenodd" d="m199.131 173.886-2.856-.886v.621c-.882.096-1.746.358-2.546.781-1.661.88-2.907 2.386-3.462 4.186l-39.101 127.436-.011.042c-.47 1.776-.236 3.665.653 5.272s2.363 2.807 4.114 3.347c1.751.541 3.643.381 5.279-.447 1.636-.827 2.889-2.258 3.497-3.991l.014-.041 39.099-127.432v-.001c.553-1.801.371-3.748-.506-5.414-.877-1.667-2.379-2.916-4.174-3.473zm-.658 2.12c.002 0 .004.001.006.002l-.002-.001z" fill-opacity=".3" fill-rule="evenodd"/></g></svg>