<svg width="650" height="650" viewBox="0 0 650 650" fill="none" xmlns="http://www.w3.org/2000/svg">
<circle cx="457.5" cy="460.5" r="179.5" fill="#DCF2FF"/>
<circle cx="177.5" cy="244.5" r="143.5" fill="#FFC93D"/>
<circle cx="429.5" cy="118.5" r="108.5" fill="#E15285"/>
<path d="M347 408.629H355.807V451.44H347V408.629Z" fill="#041633"/>
<path d="M366.187 406H374.358V451.44H366.187V406Z" fill="#041633"/>
<path d="M385.07 406H393.241V451.44H385.07V406Z" fill="#041633"/>
<path d="M408.038 414.71C407.228 414.71 406.492 414.6 405.83 414.381C405.186 414.144 404.633 413.834 404.173 413.45C403.713 413.048 403.354 412.592 403.097 412.081C402.857 411.551 402.738 410.994 402.738 410.41C402.738 409.807 402.857 409.25 403.097 408.739C403.354 408.209 403.713 407.753 404.173 407.37C404.633 406.986 405.186 406.685 405.83 406.466C406.492 406.228 407.228 406.11 408.038 406.11C408.866 406.11 409.603 406.228 410.247 406.466C410.909 406.685 411.471 406.986 411.931 407.37C412.391 407.753 412.741 408.209 412.98 408.739C413.237 409.25 413.366 409.807 413.366 410.41C413.366 410.994 413.237 411.551 412.98 412.081C412.741 412.592 412.391 413.048 411.931 413.45C411.471 413.834 410.909 414.144 410.247 414.381C409.603 414.6 408.866 414.71 408.038 414.71ZM403.952 419.12H412.124V451.44H403.952V419.12Z" fill="#041633"/>
<path d="M422.614 419.12H430.786V421.859C432.958 420.635 435.028 419.777 436.998 419.284C438.985 418.791 440.927 418.545 442.823 418.545C445.307 418.545 447.608 418.91 449.724 419.64C451.841 420.352 453.672 421.421 455.218 422.845C456.764 424.269 457.969 426.05 458.834 428.186C459.718 430.304 460.159 432.76 460.159 435.554V451.44H452.016V436.869C452.016 435.097 451.758 433.518 451.243 432.13C450.746 430.724 450.019 429.546 449.062 428.597C448.123 427.629 446.973 426.899 445.611 426.406C444.267 425.894 442.758 425.639 441.083 425.639C440.2 425.639 439.289 425.73 438.35 425.913C437.43 426.095 436.519 426.36 435.617 426.707C434.734 427.036 433.878 427.456 433.05 427.967C432.222 428.46 431.467 429.026 430.786 429.665V451.44H422.614V419.12Z" fill="#041633"/>
<path d="M468.248 435.28C468.248 432.961 468.718 430.788 469.656 428.761C470.613 426.734 471.966 424.963 473.714 423.447C475.481 421.932 477.607 420.736 480.091 419.859C482.594 418.983 485.401 418.545 488.511 418.545C491.622 418.545 494.419 418.983 496.904 419.859C499.407 420.736 501.533 421.932 503.281 423.447C505.048 424.963 506.401 426.734 507.339 428.761C508.296 430.788 508.775 432.961 508.775 435.28C508.775 437.599 508.296 439.772 507.339 441.799C506.401 443.826 505.048 445.597 503.281 447.113C501.533 448.628 499.407 449.824 496.904 450.701C494.419 451.577 491.622 452.015 488.511 452.015C485.401 452.015 482.594 451.577 480.091 450.701C477.607 449.824 475.481 448.628 473.714 447.113C471.966 445.597 470.613 443.826 469.656 441.799C468.718 439.772 468.248 437.599 468.248 435.28ZM476.834 435.28C476.834 436.576 477.092 437.809 477.607 438.978C478.141 440.128 478.904 441.151 479.898 442.045C480.91 442.922 482.134 443.625 483.57 444.154C485.024 444.666 486.671 444.921 488.511 444.921C490.352 444.921 491.99 444.666 493.425 444.154C494.879 443.625 496.103 442.922 497.097 442.045C498.109 441.151 498.873 440.128 499.388 438.978C499.922 437.809 500.189 436.576 500.189 435.28C500.189 433.984 499.922 432.751 499.388 431.582C498.873 430.414 498.109 429.391 497.097 428.515C496.103 427.62 494.879 426.917 493.425 426.406C491.99 425.876 490.352 425.611 488.511 425.611C486.671 425.611 485.024 425.876 483.57 426.406C482.134 426.917 480.91 427.62 479.898 428.515C478.904 429.391 478.141 430.414 477.607 431.582C477.092 432.751 476.834 433.984 476.834 435.28Z" fill="#041633"/>
<path d="M521.336 414.71C520.526 414.71 519.79 414.6 519.127 414.381C518.483 414.144 517.931 413.834 517.471 413.45C517.011 413.048 516.652 412.592 516.394 412.081C516.155 411.551 516.035 410.994 516.035 410.41C516.035 409.807 516.155 409.25 516.394 408.739C516.652 408.209 517.011 407.753 517.471 407.37C517.931 406.986 518.483 406.685 519.127 406.466C519.79 406.228 520.526 406.11 521.336 406.11C522.164 406.11 522.9 406.228 523.544 406.466C524.207 406.685 524.768 406.986 525.228 407.37C525.688 407.753 526.038 408.209 526.277 408.739C526.535 409.25 526.664 409.807 526.664 410.41C526.664 410.994 526.535 411.551 526.277 412.081C526.038 412.592 525.688 413.048 525.228 413.45C524.768 413.834 524.207 414.144 523.544 414.381C522.9 414.6 522.164 414.71 521.336 414.71ZM517.25 419.12H525.421V451.44H517.25V419.12Z" fill="#041633"/>
<path d="M537.21 441.525C539.418 442.84 541.847 443.807 544.498 444.428C547.148 445.049 549.863 445.36 552.642 445.36C554.519 445.36 556.083 445.232 557.335 444.976C558.586 444.72 559.589 444.392 560.344 443.99C561.098 443.588 561.632 443.132 561.945 442.621C562.258 442.109 562.414 441.589 562.414 441.059C562.414 440.292 562.074 439.635 561.393 439.087C560.73 438.539 559.626 438.266 558.08 438.266C557.362 438.266 556.589 438.311 555.761 438.402C554.933 438.494 554.059 438.594 553.139 438.704C552.237 438.795 551.289 438.886 550.295 438.978C549.32 439.069 548.326 439.115 547.314 439.115C545.105 439.115 543.219 438.877 541.654 438.402C540.108 437.928 538.848 437.279 537.872 436.458C536.897 435.636 536.188 434.668 535.746 433.554C535.305 432.422 535.084 431.208 535.084 429.912C535.084 428.268 535.47 426.753 536.243 425.365C537.016 423.977 538.121 422.781 539.556 421.777C540.992 420.754 542.722 419.96 544.746 419.394C546.789 418.828 549.062 418.545 551.565 418.545C552.872 418.545 554.234 418.627 555.651 418.791C557.086 418.937 558.494 419.138 559.875 419.394C561.255 419.649 562.58 419.951 563.85 420.298C565.12 420.626 566.242 420.982 567.218 421.366L564.65 427.666C562.571 426.899 560.491 426.296 558.411 425.858C556.35 425.401 554.224 425.173 552.034 425.173C550.507 425.173 549.209 425.292 548.142 425.529C547.093 425.748 546.237 426.05 545.574 426.433C544.912 426.798 544.424 427.227 544.111 427.72C543.817 428.195 543.669 428.697 543.669 429.227C543.669 429.61 543.743 429.957 543.89 430.268C544.056 430.578 544.314 430.852 544.663 431.089C545.031 431.308 545.501 431.482 546.071 431.61C546.66 431.719 547.378 431.774 548.225 431.774C548.998 431.774 549.817 431.728 550.682 431.637C551.547 431.546 552.448 431.455 553.387 431.363C554.326 431.254 555.292 431.153 556.286 431.062C557.298 430.971 558.329 430.925 559.378 430.925C561.328 430.925 563.031 431.153 564.485 431.61C565.957 432.066 567.172 432.705 568.129 433.527C569.086 434.349 569.804 435.317 570.282 436.43C570.761 437.544 571 438.759 571 440.073C571 441.771 570.604 443.351 569.813 444.812C569.022 446.273 567.844 447.542 566.279 448.619C564.715 449.678 562.764 450.509 560.427 451.111C558.108 451.714 555.421 452.015 552.366 452.015C550.488 452.015 548.675 451.897 546.927 451.659C545.179 451.44 543.513 451.139 541.93 450.755C540.347 450.354 538.857 449.888 537.458 449.359C536.078 448.829 534.817 448.263 533.676 447.66L537.21 441.525Z" fill="#041633"/>
<path d="M347.079 466.614H355.831V501.81H380.925V509.425H347.079V466.614Z" fill="#041633"/>
<path d="M386.86 499.236C386.86 497.684 387.201 496.268 387.882 494.99C388.563 493.712 389.584 492.616 390.946 491.703C392.308 490.772 394.001 490.06 396.026 489.567C398.069 489.056 400.443 488.8 403.148 488.8C405.154 488.8 407.262 488.946 409.47 489.238C411.697 489.53 413.988 489.978 416.344 490.58C416.252 489.558 415.939 488.617 415.406 487.759C414.872 486.883 414.126 486.134 413.169 485.513C412.231 484.874 411.09 484.381 409.746 484.034C408.421 483.687 406.912 483.514 405.219 483.514C404.299 483.514 403.286 483.569 402.182 483.678C401.078 483.788 399.937 483.952 398.759 484.171C397.581 484.39 396.412 484.664 395.253 484.993C394.112 485.322 393.044 485.714 392.05 486.171L389.566 479.515C390.799 479.077 392.115 478.675 393.514 478.31C394.931 477.944 396.375 477.634 397.848 477.378C399.32 477.104 400.792 476.895 402.265 476.748C403.737 476.602 405.164 476.529 406.544 476.529C412.636 476.529 417.163 478.072 420.126 481.158C423.089 484.244 424.571 488.974 424.571 495.346V509.425H416.399V506.384C415.553 506.878 414.623 507.343 413.611 507.781C412.617 508.22 411.531 508.603 410.354 508.932C409.176 509.26 407.906 509.516 406.544 509.699C405.2 509.9 403.774 510 402.265 510C399.725 510 397.489 509.726 395.556 509.178C393.642 508.63 392.041 507.873 390.753 506.905C389.465 505.937 388.489 504.805 387.827 503.509C387.182 502.194 386.86 500.77 386.86 499.236ZM395.474 498.962C395.474 499.491 395.612 500.003 395.888 500.496C396.164 500.97 396.605 501.4 397.213 501.783C397.82 502.148 398.593 502.449 399.532 502.687C400.489 502.906 401.639 503.016 402.983 503.016C404.418 503.016 405.808 502.888 407.151 502.632C408.495 502.376 409.746 502.039 410.906 501.619C412.065 501.199 413.114 500.715 414.053 500.167C414.991 499.619 415.774 499.053 416.399 498.469V497.044C415.148 496.698 413.906 496.405 412.673 496.168C411.458 495.931 410.289 495.748 409.166 495.62C408.062 495.474 407.013 495.374 406.019 495.319C405.044 495.264 404.188 495.237 403.452 495.237C401.924 495.237 400.654 495.337 399.642 495.538C398.63 495.739 397.811 496.013 397.185 496.36C396.559 496.688 396.118 497.081 395.86 497.538C395.602 497.994 395.474 498.469 395.474 498.962Z" fill="#041633"/>
<path d="M435.172 463.985H443.343V480.145C444.061 479.652 444.908 479.186 445.883 478.748C446.859 478.31 447.908 477.926 449.03 477.598C450.153 477.269 451.313 477.013 452.509 476.831C453.705 476.63 454.901 476.529 456.098 476.529C458.858 476.529 461.389 476.931 463.69 477.734C466.008 478.538 467.996 479.67 469.653 481.131C471.309 482.592 472.597 484.345 473.517 486.39C474.456 488.417 474.925 490.663 474.925 493.128C474.925 495.702 474.438 498.031 473.462 500.112C472.487 502.176 471.134 503.947 469.404 505.426C467.692 506.887 465.65 508.019 463.275 508.822C460.92 509.607 458.361 510 455.601 510C454.423 510 453.254 509.927 452.095 509.781C450.954 509.635 449.849 509.434 448.782 509.178C447.733 508.923 446.739 508.621 445.8 508.274C444.88 507.909 444.061 507.517 443.343 507.097V509.425H435.172V463.985ZM443.343 499.263C444.172 499.92 445.046 500.477 445.966 500.934C446.886 501.39 447.825 501.765 448.782 502.057C449.739 502.349 450.705 502.568 451.681 502.714C452.656 502.842 453.604 502.906 454.524 502.906C456.401 502.906 458.067 502.659 459.521 502.166C460.993 501.655 462.226 500.961 463.22 500.085C464.232 499.208 465.005 498.177 465.539 496.99C466.073 495.803 466.34 494.515 466.34 493.128C466.34 491.831 466.073 490.608 465.539 489.457C465.024 488.307 464.269 487.303 463.275 486.445C462.3 485.568 461.113 484.883 459.714 484.39C458.334 483.879 456.779 483.623 455.049 483.623C453.944 483.623 452.84 483.733 451.736 483.952C450.632 484.153 449.564 484.445 448.534 484.829C447.521 485.212 446.564 485.678 445.662 486.225C444.779 486.773 444.006 487.385 443.343 488.061V499.263Z" fill="#041633"/>
<path d="M483.787 499.51C485.996 500.824 488.425 501.792 491.075 502.413C493.726 503.034 496.44 503.344 499.219 503.344C501.096 503.344 502.661 503.216 503.912 502.961C505.164 502.705 506.167 502.376 506.921 501.975C507.676 501.573 508.21 501.116 508.523 500.605C508.836 500.094 508.992 499.574 508.992 499.044C508.992 498.277 508.651 497.62 507.971 497.072C507.308 496.524 506.204 496.25 504.658 496.25C503.94 496.25 503.167 496.296 502.339 496.387C501.511 496.478 500.636 496.579 499.716 496.688C498.814 496.78 497.867 496.871 496.873 496.962C495.897 497.054 494.903 497.099 493.891 497.099C491.683 497.099 489.796 496.862 488.232 496.387C486.686 495.912 485.425 495.264 484.45 494.442C483.474 493.621 482.766 492.653 482.324 491.539C481.882 490.407 481.661 489.193 481.661 487.896C481.661 486.253 482.048 484.737 482.821 483.349C483.594 481.962 484.698 480.766 486.134 479.761C487.569 478.739 489.299 477.944 491.324 477.378C493.367 476.812 495.64 476.529 498.143 476.529C499.449 476.529 500.811 476.611 502.228 476.776C503.664 476.922 505.072 477.123 506.452 477.378C507.832 477.634 509.158 477.935 510.428 478.282C511.697 478.611 512.82 478.967 513.796 479.35L511.228 485.65C509.148 484.883 507.069 484.281 504.989 483.842C502.928 483.386 500.802 483.158 498.612 483.158C497.084 483.158 495.787 483.276 494.719 483.514C493.67 483.733 492.814 484.034 492.152 484.418C491.489 484.783 491.002 485.212 490.689 485.705C490.394 486.18 490.247 486.682 490.247 487.211C490.247 487.595 490.321 487.942 490.468 488.252C490.634 488.563 490.891 488.837 491.241 489.074C491.609 489.293 492.078 489.467 492.649 489.594C493.238 489.704 493.956 489.759 494.802 489.759C495.575 489.759 496.394 489.713 497.259 489.622C498.124 489.53 499.026 489.439 499.965 489.348C500.903 489.238 501.869 489.138 502.863 489.047C503.876 488.955 504.906 488.91 505.955 488.91C507.906 488.91 509.609 489.138 511.062 489.594C512.535 490.051 513.749 490.69 514.707 491.512C515.664 492.333 516.381 493.301 516.86 494.415C517.338 495.529 517.578 496.743 517.578 498.058C517.578 499.756 517.182 501.336 516.391 502.796C515.599 504.257 514.421 505.526 512.857 506.604C511.293 507.663 509.342 508.494 507.004 509.096C504.685 509.699 501.998 510 498.943 510C497.066 510 495.253 509.881 493.505 509.644C491.756 509.425 490.091 509.124 488.508 508.74C486.925 508.338 485.434 507.873 484.036 507.343C482.655 506.814 481.395 506.248 480.253 505.645L483.787 499.51Z" fill="#041633"/>
<path fill-rule="evenodd" clip-rule="evenodd" d="M369.12 108.649C361.859 104.51 364.821 93.2011 373.129 93.34L375.577 93.3863C377 93.4109 378.404 93.0452 379.643 92.3273C380.882 91.6094 381.91 90.5654 382.621 89.3036C383.333 88.0419 383.701 86.6083 383.688 85.1516C383.676 83.695 383.282 82.2684 382.549 81.0199L381.296 78.8719C377.02 71.5816 385.124 63.3019 392.238 67.6731L394.343 68.9634C395.563 69.7105 396.956 70.1103 398.378 70.1214C399.8 70.1325 401.199 69.7544 402.43 69.0263C403.662 68.2983 404.68 67.2467 405.381 65.9804C406.081 64.7142 406.438 63.2794 406.415 61.8245L406.384 59.316C406.243 50.8181 417.3 47.7848 421.332 55.2194L422.524 57.4034C423.214 58.6776 424.225 59.7396 425.451 60.4792C426.678 61.2188 428.075 61.6091 429.499 61.6097C430.922 61.6102 432.32 61.2209 433.547 60.4821C434.774 59.7434 435.785 58.6821 436.476 57.4085L437.661 55.2158C441.706 47.7862 452.758 50.8165 452.622 59.3179L452.577 61.823C452.553 63.2795 452.91 64.716 453.612 65.9835C454.313 67.251 455.334 68.3033 456.567 69.0312C457.8 69.7591 459.201 70.1361 460.625 70.123C462.048 70.11 463.442 69.7074 464.662 68.9569L466.762 67.6751C473.886 63.2995 481.978 71.5918 477.706 78.8711L476.447 81.0172C475.715 82.2658 475.323 83.692 475.311 85.1481C475.299 86.6042 475.667 88.037 476.379 89.298C477.091 90.559 478.119 91.6024 479.357 92.3198C480.595 93.0372 481.999 93.4027 483.421 93.3782L485.873 93.3461C494.178 93.2024 497.142 104.517 489.877 108.643L487.742 109.862C486.497 110.568 485.459 111.602 484.736 112.857C484.013 114.112 483.632 115.542 483.631 116.999C483.631 118.455 484.011 119.886 484.733 121.141C485.455 122.397 486.492 123.431 487.737 124.138L489.88 125.351C497.141 129.49 494.179 140.799 485.871 140.66L483.423 140.614C482 140.589 480.596 140.955 479.357 141.673C478.118 142.391 477.09 143.435 476.379 144.696C475.667 145.958 475.299 147.392 475.312 148.848C475.324 150.305 475.718 151.732 476.451 152.98L477.704 155.128C481.98 162.418 473.876 170.698 466.762 166.327L464.665 165.039C463.445 164.29 462.051 163.888 460.628 163.876C459.205 163.864 457.805 164.241 456.572 164.969C455.34 165.697 454.32 166.749 453.619 168.016C452.918 169.284 452.561 170.72 452.585 172.175L452.616 174.684C452.757 183.182 441.7 186.215 437.668 178.781L436.476 176.597C435.786 175.322 434.775 174.26 433.549 173.521C432.322 172.781 430.925 172.391 429.501 172.39C428.078 172.39 426.68 172.779 425.453 173.518C424.226 174.257 423.215 175.318 422.524 176.592L421.339 178.784C417.294 186.214 406.242 183.184 406.378 174.682L406.423 172.177C406.447 170.72 406.09 169.284 405.388 168.016C404.687 166.749 403.666 165.697 402.433 164.969C401.2 164.241 399.799 163.864 398.375 163.877C396.952 163.89 395.558 164.293 394.338 165.043L392.238 166.325C385.114 170.701 377.022 162.408 381.294 155.129L382.555 152.975C383.285 151.726 383.676 150.3 383.687 148.845C383.698 147.39 383.328 145.959 382.617 144.699C381.905 143.439 380.877 142.397 379.64 141.68C378.403 140.963 377 140.598 375.579 140.622L373.127 140.654C364.822 140.798 361.858 129.483 369.123 125.357L371.258 124.138C372.503 123.432 373.541 122.398 374.264 121.143C374.987 119.888 375.368 118.458 375.369 117.001C375.369 115.545 374.989 114.114 374.267 112.859C373.545 111.603 372.508 110.569 371.263 109.862L369.12 108.649ZM470.879 111.319C471.539 116.909 471.107 122.578 469.608 127.997L469.616 127.999C467.816 134.871 464.38 141.103 459.691 146.182L434.828 114.633L444.729 76.8223C448.422 78.2952 451.898 80.3047 455.047 82.7951C459.401 86.2391 463.043 90.5341 465.761 95.4308C468.479 100.327 470.218 105.728 470.879 111.319ZM435.94 74.4122L426.039 112.223L389.091 126.811C387.516 120.017 387.586 112.867 389.384 106.001C390.733 100.542 393.129 95.4108 396.433 90.9071C399.737 86.4034 403.882 82.6164 408.629 79.7663C413.375 76.9163 418.628 75.0599 424.082 74.3051C428.027 73.7591 432.02 73.7975 435.94 74.4122ZM392.078 135.431C392.527 136.385 393.012 137.325 393.533 138.248C399.041 148.009 408.112 155.131 418.751 158.049C429.39 160.966 440.726 159.439 450.265 153.803C451.163 153.273 452.038 152.71 452.889 152.116L428.432 121.07L428.43 121.079L392.078 135.431Z" fill="#041633" fill-opacity="0.3"/>
<path d="M138.28 205.05L138.281 205.049C138.939 204.387 139.721 203.862 140.582 203.504C141.443 203.146 142.367 202.961 143.299 202.961C144.232 202.961 145.155 203.146 146.017 203.504C146.877 203.862 147.659 204.386 148.317 205.047C148.976 205.708 149.5 206.492 149.857 207.355C150.214 208.219 150.398 209.145 150.398 210.08C150.398 211.015 150.214 211.941 149.857 212.805C149.5 213.668 148.976 214.452 148.317 215.112L146.758 213.55L146.757 213.551L148.315 215.114L119.125 244.378L148.317 273.643C149.648 274.978 150.396 276.788 150.396 278.675C150.396 280.563 149.648 282.373 148.317 283.708C146.986 285.042 145.181 285.792 143.299 285.792C141.417 285.792 139.612 285.042 138.282 283.708L104.083 249.412L104.081 249.41C103.422 248.75 102.898 247.966 102.541 247.103C102.184 246.239 102 245.313 102 244.378C102 243.443 102.184 242.516 102.541 241.653C102.899 240.79 103.422 240.006 104.081 239.346L138.28 205.05Z" fill="#041633" fill-opacity="0.3"/>
<path d="M205.143 212.805C205.5 213.668 206.024 214.452 206.683 215.112L206.685 215.114L235.875 244.378L206.683 273.643C206.024 274.304 205.501 275.089 205.145 275.952C204.788 276.816 204.604 277.741 204.604 278.675C204.604 279.61 204.788 280.535 205.145 281.399C205.501 282.262 206.024 283.047 206.683 283.708C207.342 284.368 208.124 284.893 208.985 285.25C209.846 285.608 210.769 285.792 211.701 285.792C212.632 285.792 213.555 285.608 214.416 285.25C215.277 284.893 216.059 284.368 216.718 283.708L250.917 249.412C251.577 248.751 252.101 247.967 252.459 247.103C252.816 246.239 253 245.313 253 244.378C253 243.443 252.816 242.516 252.459 241.653C252.101 240.789 251.577 240.004 250.917 239.344L216.72 205.05L216.718 205.048C216.06 204.387 215.279 203.862 214.418 203.504C213.557 203.146 212.633 202.961 211.701 202.961C210.768 202.961 209.845 203.146 208.983 203.504C208.123 203.862 207.341 204.387 206.683 205.048C206.023 205.708 205.5 206.492 205.143 207.355C204.786 208.219 204.602 209.145 204.602 210.08C204.602 211.015 204.786 211.941 205.143 212.805Z" fill="#041633" fill-opacity="0.3"/>
<path fill-rule="evenodd" clip-rule="evenodd" d="M199.131 173.886L196.275 173V173.621C195.393 173.717 194.529 173.979 193.729 174.402C192.068 175.282 190.822 176.788 190.267 178.588L151.166 306.024L151.155 306.066C150.685 307.842 150.919 309.731 151.808 311.338C152.697 312.945 154.171 314.145 155.922 314.685C157.673 315.226 159.565 315.066 161.201 314.238C162.837 313.411 164.09 311.98 164.698 310.247L164.712 310.206L203.811 182.774L203.811 182.773C204.364 180.972 204.182 179.025 203.305 177.359C202.428 175.692 200.926 174.443 199.131 173.886ZM198.473 176.006C198.475 176.006 198.477 176.007 198.479 176.008L198.477 176.007L198.473 176.006Z" fill="#041633" fill-opacity="0.3"/>
</svg>
