<svg width="650" height="650" viewBox="0 0 650 650" fill="none" xmlns="http://www.w3.org/2000/svg">
<path d="M14 349.47C14 337.897 22.2599 327.972 33.6411 325.87L253.641 285.238C268.392 282.513 282 293.838 282 308.838V619.162C282 634.162 268.392 645.487 253.641 642.762L33.6411 602.13C22.2599 600.028 14 590.103 14 578.53V349.47Z" fill="#FFC93D"/>
<path d="M130 107.438C130 92.5712 143.378 81.2807 158.033 83.7791L262.033 101.509C273.565 103.475 282 113.469 282 125.168V227.093C282 238.676 273.727 248.606 262.335 250.698L158.335 269.797C143.591 272.504 130 261.182 130 246.191V107.438Z" fill="#69CB84"/>
<path d="M314 434.661C314 420.059 326.929 408.842 341.384 410.9L481.384 430.841C493.212 432.526 502 442.654 502 454.602V600.398C502 612.346 493.212 622.474 481.384 624.159L341.384 644.1C326.929 646.158 314 634.941 314 620.339V434.661Z" fill="#DCF2FF"/>
<path d="M314 68.9153C314 57.0042 322.736 46.8954 334.521 45.1688L608.521 5.02587C623.006 2.9037 636 14.1326 636 28.7724V389.228C636 403.867 623.006 415.096 608.521 412.974L334.521 372.831C322.736 371.105 314 360.996 314 349.085V68.9153Z" fill="#E15285"/>
</svg>
