<svg width="1618" height="970" viewBox="0 0 1618 970" fill="none" xmlns="http://www.w3.org/2000/svg">
<rect width="1618" height="970" fill="white"/>
<rect x="134" y="75" width="254" height="43" rx="21.5" fill="#DCF2FF"/>
<rect x="231" y="216" width="255" height="44" rx="22" fill="#DCF2FF"/>
<rect x="104" y="428" width="255" height="43" rx="21.5" fill="#DCF2FF"/>
<rect x="1397" y="612" width="254" height="43" rx="21.5" transform="rotate(-180 1397 612)" fill="#DCF2FF"/>
<rect x="1397" y="894" width="254" height="43" rx="21.5" transform="rotate(-180 1397 894)" fill="#DCF2FF"/>
<rect x="967" y="216" width="255" height="44" rx="22" fill="#DCF2FF"/>
<rect x="840" y="428" width="254" height="43" rx="21.5" fill="#33A1FD"/>
<rect x="662" y="612" width="255" height="43" rx="21.5" transform="rotate(-180 662 612)" fill="#DCF2FF"/>
<rect x="662" y="894" width="255" height="43" rx="21.5" transform="rotate(-180 662 894)" fill="#DCF2FF"/>
<rect x="1005" y="189" width="254" height="43" rx="21.5" transform="rotate(-180 1005 189)" fill="#33A1FD"/>
<rect x="1009" y="330" width="654" height="43" rx="21.5" transform="rotate(-180 1009 330)" fill="#33A1FD"/>
<rect x="881" y="542" width="653" height="43" rx="21.5" transform="rotate(-180 881 542)" fill="#33A1FD"/>
<rect x="881" y="824" width="653" height="43" rx="21.5" transform="rotate(-180 881 824)" fill="#33A1FD"/>
<rect x="912" y="401" width="255" height="43" rx="21.5" transform="rotate(-180 912 401)" fill="#DCF2FF"/>
<rect x="589" y="640" width="255" height="43" rx="21.5" fill="#DCF2FF"/>
<rect x="1452" y="189" width="413" height="43" rx="21.5" transform="rotate(-180 1452 189)" fill="#33A1FD"/>
<rect x="1270" y="753" width="231" height="42" rx="21" transform="rotate(-180 1270 753)" fill="#33A1FD"/>
<rect x="1594" y="330" width="551" height="43" rx="21.5" transform="rotate(-180 1594 330)" fill="#33A1FD"/>
<rect x="1466" y="542" width="551" height="43" rx="21.5" transform="rotate(-180 1466 542)" fill="#33A1FD"/>
<rect x="1466" y="824" width="551" height="43" rx="21.5" transform="rotate(-180 1466 824)" fill="#33A1FD"/>
<rect x="1359" y="401" width="413" height="43" rx="21.5" transform="rotate(-180 1359 401)" fill="#DCF2FF"/>
<rect x="142" y="640" width="413" height="42.9999" rx="21.5" fill="#DCF2FF"/>
<rect x="933" y="260" width="413" height="44" rx="22" transform="rotate(-180 933 260)" fill="#33A1FD"/>
<rect x="806" y="471" width="413" height="43" rx="21.5" transform="rotate(-180 806 471)" fill="#33A1FD"/>
<rect x="696" y="569" width="412" height="42.9999" rx="21.5" fill="#33A1FD"/>
<rect x="696" y="851" width="412" height="42.9999" rx="21.5" fill="#33A1FD"/>
<rect x="540" y="921" width="321" height="43" rx="21.5" fill="#DCF2FF"/>
<rect x="853" y="5" width="86" height="43" rx="21.5" fill="#33A1FD"/>
<rect x="599" y="5" width="220" height="43" rx="21.5" fill="#33A1FD"/>
<rect x="422" y="75" width="692" height="43" rx="21.5" fill="#DCF2FF"/>
<rect x="717" y="189" width="692" height="43" rx="21.5" transform="rotate(-180 717 189)" fill="#33A1FD"/>
<rect x="407" y="753" width="323" height="42" rx="21" transform="rotate(-180 407 753)" fill="#33A1FD"/>
<rect x="1005" y="753" width="564" height="42" rx="21" transform="rotate(-180 1005 753)" fill="#DCF2FF"/>
<rect x="628" y="401" width="454" height="43" rx="21.5" transform="rotate(-180 628 401)" fill="#33A1FD"/>
<rect x="874" y="640" width="669" height="42.9999" rx="21.5" fill="#33A1FD"/>
<g filter="url(#filter0_d)">
<rect x="346" y="163" width="876" height="643" rx="54.9675" fill="#041633"/>
<ellipse cx="413.668" cy="227.368" rx="21.1124" ry="21.0954" fill="#E15285"/>
<ellipse cx="476.464" cy="227.368" rx="21.1124" ry="21.0954" fill="#FFC93D"/>
<ellipse cx="539.26" cy="227.368" rx="21.1124" ry="21.0954" fill="#69CB84"/>
</g>
<rect x="398" y="292" width="777" height="38" rx="19" fill="#2F425C"/>
<rect x="599" y="363" width="375" height="179" rx="19" fill="#2F425C"/>
<rect x="398" y="363" width="175" height="390" rx="19" fill="#2F425C"/>
<rect x="1000" y="363" width="175" height="179" rx="19" fill="#2F425C"/>
<rect x="599" y="573" width="576" height="180" rx="19" fill="#2F425C"/>
<defs>
<filter id="filter0_d" x="334" y="157" width="900" height="667" filterUnits="userSpaceOnUse" color-interpolation-filters="sRGB">
<feFlood flood-opacity="0" result="BackgroundImageFix"/>
<feColorMatrix in="SourceAlpha" type="matrix" values="0 0 0 0 0 0 0 0 0 0 0 0 0 0 0 0 0 0 127 0"/>
<feOffset dy="6"/>
<feGaussianBlur stdDeviation="6"/>
<feColorMatrix type="matrix" values="0 0 0 0 0 0 0 0 0 0 0 0 0 0 0 0 0 0 0.12 0"/>
<feBlend mode="normal" in2="BackgroundImageFix" result="effect1_dropShadow"/>
<feBlend mode="normal" in="SourceGraphic" in2="effect1_dropShadow" result="shape"/>
</filter>
</defs>
</svg>
