<svg fill="none" height="970" viewBox="0 0 1618 970" width="1618" xmlns="http://www.w3.org/2000/svg" xmlns:xlink="http://www.w3.org/1999/xlink"><filter id="a" color-interpolation-filters="sRGB" filterUnits="userSpaceOnUse" height="224.668" width="669.403" x="748.799" y="174.866"><feFlood flood-opacity="0" result="BackgroundImageFix"/><feColorMatrix in="SourceAlpha" type="matrix" values="0 0 0 0 0 0 0 0 0 0 0 0 0 0 0 0 0 0 127 0"/><feOffset dy="3.06714"/><feGaussianBlur stdDeviation="4.60071"/><feColorMatrix type="matrix" values="0 0 0 0 0 0 0 0 0 0 0 0 0 0 0 0 0 0 0.12 0"/><feBlend in2="BackgroundImageFix" mode="normal" result="effect1_dropShadow"/><feBlend in="SourceGraphic" in2="effect1_dropShadow" mode="normal" result="shape"/></filter><filter id="b" color-interpolation-filters="sRGB" filterUnits="userSpaceOnUse" height="224.668" width="669.403" x="748.799" y="408.866"><feFlood flood-opacity="0" result="BackgroundImageFix"/><feColorMatrix in="SourceAlpha" type="matrix" values="0 0 0 0 0 0 0 0 0 0 0 0 0 0 0 0 0 0 127 0"/><feOffset dy="3.06714"/><feGaussianBlur stdDeviation="4.60071"/><feColorMatrix type="matrix" values="0 0 0 0 0 0 0 0 0 0 0 0 0 0 0 0 0 0 0.12 0"/><feBlend in2="BackgroundImageFix" mode="normal" result="effect1_dropShadow"/><feBlend in="SourceGraphic" in2="effect1_dropShadow" mode="normal" result="shape"/></filter><filter id="c" color-interpolation-filters="sRGB" filterUnits="userSpaceOnUse" height="224.668" width="669.403" x="748.799" y="641.866"><feFlood flood-opacity="0" result="BackgroundImageFix"/><feColorMatrix in="SourceAlpha" type="matrix" values="0 0 0 0 0 0 0 0 0 0 0 0 0 0 0 0 0 0 127 0"/><feOffset dy="3.06714"/><feGaussianBlur stdDeviation="4.60071"/><feColorMatrix type="matrix" values="0 0 0 0 0 0 0 0 0 0 0 0 0 0 0 0 0 0 0.12 0"/><feBlend in2="BackgroundImageFix" mode="normal" result="effect1_dropShadow"/><feBlend in="SourceGraphic" in2="effect1_dropShadow" mode="normal" result="shape"/></filter><rect fill="#2f425c" height="43" rx="21.5" transform="matrix(-1 0 0 -1 2970 1788)" width="254" x="1485" y="894"/><rect fill="#2f425c" height="44" rx="22" width="255" x="152" y="357"/><rect fill="#2f425c" height="43" rx="21.5" width="255" x="25" y="569"/><rect fill="#2f425c" height="43" rx="21.5" transform="matrix(-1 0 0 -1 2636 1506)" width="254" x="1318" y="753"/><rect fill="#2f425c" height="43" rx="21.5" transform="matrix(-1 0 0 -1 2778 658)" width="254" x="1389" y="329"/><rect fill="#2f425c" height="44" rx="22" width="255" x="888" y="357"/><rect fill="#576d8f" height="43" rx="21.5" width="254" x="761" y="569"/><rect fill="#2f425c" height="43" rx="21.5" transform="matrix(-1 0 0 -1 1166 1506)" width="255" x="583" y="753"/><rect fill="#2f425c" height="43" rx="21.5" transform="matrix(-1 0 0 -1 1308 658)" width="255" x="654" y="329"/><rect fill="#576d8f" height="43" rx="21.5" width="254" x="614" y="780"/><rect fill="#576d8f" height="43" rx="21.5" transform="matrix(-1 0 0 -1 1860 942)" width="654" x="930" y="471"/><rect fill="#576d8f" height="43" rx="21.5" transform="matrix(-1 0 0 -1 1604 1366)" width="653" x="802" y="683"/><rect fill="#576d8f" height="43" rx="21.5" transform="matrix(-1 0 0 -1 1746 518)" width="653" x="873" y="259"/><rect fill="#2f425c" height="43" rx="21.5" transform="matrix(-1 0 0 -1 1666 1084)" width="255" x="833" y="542"/><rect fill="#2f425c" height="43" rx="21.5" width="255" x="581" y="75"/><rect fill="#576d8f" height="43" rx="21.5" width="413" x="167" y="780"/><rect fill="#576d8f" height="42" rx="21" transform="matrix(-1 0 0 -1 2524 376)" width="231" x="1262" y="188"/><rect fill="#576d8f" height="43" rx="21.5" transform="matrix(-1 0 0 -1 3030 942)" width="551" x="1515" y="471"/><rect fill="#576d8f" height="42.9998" rx="21.4999" transform="matrix(-1 0 0 -1 2774 1366)" width="550.998" x="1387" y="683"/><rect fill="#576d8f" height="43" rx="21.5" transform="matrix(-1 0 0 -1 2916 518)" width="551" x="1458" y="259"/><rect fill="#2f425c" height="43" rx="21.5" transform="matrix(-1 0 0 -1 2560 1084)" width="413" x="1280" y="542"/><rect fill="#2f425c" height="42.9999" rx="21.5" width="413" x="134" y="75"/><rect fill="#576d8f" height="44" rx="22" transform="matrix(-1 0 0 -1 1708 802)" width="413" x="854" y="401"/><rect fill="#576d8f" height="43" rx="21.5" transform="matrix(-1 0 0 -1 1454 1224)" width="413" x="727" y="612"/><rect fill="#576d8f" height="42.9999" rx="21.5" width="412" x="617" y="710"/><rect fill="#576d8f" height="42.9999" rx="21.5" width="412" x="688" y="286"/><rect fill="#2f425c" height="43" rx="21.5" transform="matrix(-1 0 0 -1 2158 96)" width="321" x="1079" y="48"/><rect fill="#576d8f" height="43" rx="21.5" transform="matrix(-1 0 0 -1 1532 1928)" width="86" x="766" y="964"/><rect fill="#576d8f" height="43" rx="21.5" transform="matrix(-1 0 0 -1 2040 1928)" width="220" x="1020" y="964"/><rect fill="#2f425c" height="43" rx="21.5" transform="matrix(-1 0 0 -1 2394 1788)" width="692" x="1197" y="894"/><rect fill="#576d8f" height="43" rx="21.5" width="692" x="902" y="780"/><rect fill="#576d8f" height="42" rx="21" transform="matrix(-1 0 0 -1 798 376)" width="323" x="399" y="188"/><rect fill="#2f425c" height="42" rx="21" transform="matrix(-1 0 0 -1 1994 376)" width="564" x="997" y="188"/><rect fill="#576d8f" height="43" rx="21.5" transform="matrix(-1 0 0 -1 1098 1084)" width="454" x="549" y="542"/><rect fill="#576d8f" height="42.9999" rx="21.5" width="669" x="866" y="75"/><g filter="url(#a)"><rect fill="#33a1fd" height="206.265" rx="42.1731" width="651" x="758" y="181"/><g fill="#dcf2ff"><rect height="148.306" rx="29.5212" width="146.982" x="786.721" y="209.979"/><rect height="30.1158" rx="15.0579" width="338.452" x="961.297" y="214.525"/><rect height="30.1158" rx="15.0579" width="416.73" x="961.297" y="269.075"/><rect height="30.1158" rx="15.0579" width="251.164" x="961.297" y="323.624"/></g></g><ellipse cx="858.449" cy="281.832" fill="#33a1fd" rx="33.7385" ry="33.3551"/><path clip-rule="evenodd" d="m919.959 358.894h-123.02c6.027-24.97 31.276-43.707 61.51-43.707s55.483 18.737 61.51 43.707z" fill="#33a1fd" fill-rule="evenodd"/><g filter="url(#b)"><rect fill="#33a1fd" height="206.265" rx="42.1731" width="651" x="758" y="415"/><g fill="#dcf2ff"><rect height="148.306" rx="29.5212" width="146.982" x="786.721" y="443.979"/><rect height="30.1158" rx="15.0579" width="338.452" x="961.297" y="448.525"/><rect height="30.1158" rx="15.0579" width="416.73" x="961.297" y="503.075"/><rect height="30.1158" rx="15.0579" width="251.164" x="961.297" y="557.624"/></g></g><ellipse cx="858.449" cy="515.832" fill="#33a1fd" rx="33.7385" ry="33.3551"/><path clip-rule="evenodd" d="m919.959 592.894h-123.02c6.027-24.97 31.276-43.707 61.51-43.707s55.483 18.737 61.51 43.707z" fill="#33a1fd" fill-rule="evenodd"/><g filter="url(#c)"><rect fill="#33a1fd" height="206.265" rx="42.1731" width="651" x="758" y="648"/><g fill="#dcf2ff"><rect height="148.306" rx="29.5212" width="146.982" x="786.721" y="676.979"/><rect height="30.1158" rx="15.0579" width="338.452" x="961.297" y="681.525"/><rect height="30.1158" rx="15.0579" width="416.73" x="961.297" y="736.075"/><rect height="30.1158" rx="15.0579" width="251.164" x="961.297" y="790.624"/></g></g><ellipse cx="858.449" cy="748.832" fill="#33a1fd" rx="33.7385" ry="33.3551"/><path clip-rule="evenodd" d="m919.959 825.894h-123.02c6.027-24.97 31.276-43.707 61.51-43.707s55.483 18.737 61.51 43.707z" fill="#33a1fd" fill-rule="evenodd"/><path d="m224 355.333c0-25.589 20.744-46.333 46.333-46.333h324.334c25.589 0 46.333 20.744 46.333 46.333v324.334c0 25.589-20.744 46.333-46.333 46.333h-324.334c-25.589 0-46.333-20.744-46.333-46.333z" fill="#fa5e21"/><g fill="#dcf2ff"><path d="m268.66 440.673h13.013v63.763h-13.013z"/><path d="m297.012 436.757h12.076v67.679h-12.076z"/><path d="m324.916 436.757h12.075v67.679h-12.075z"/><path d="m358.858 449.73c-1.197 0-2.285-.164-3.264-.49-.952-.353-1.768-.816-2.448-1.387-.68-.598-1.21-1.278-1.591-2.04-.353-.788-.53-1.618-.53-2.488 0-.898.177-1.727.53-2.489.381-.788.911-1.468 1.591-2.039.68-.572 1.496-1.02 2.448-1.347.979-.353 2.067-.53 3.264-.53 1.223 0 2.311.177 3.263.53.979.327 1.809.775 2.489 1.347.68.571 1.196 1.251 1.55 2.039.381.762.571 1.591.571 2.489 0 .87-.19 1.7-.571 2.488-.354.762-.87 1.442-1.55 2.04-.68.571-1.51 1.034-2.489 1.387-.952.326-2.04.49-3.263.49zm-6.038 6.568h12.075v48.138h-12.075z"/><path d="m380.397 456.298h12.076v4.079c3.209-1.822 6.268-3.1 9.178-3.835 2.938-.734 5.807-1.101 8.608-1.101 3.672 0 7.071.544 10.199 1.632 3.128 1.06 5.834 2.651 8.118 4.773 2.285 2.121 4.066 4.773 5.344 7.955 1.306 3.155 1.959 6.813 1.959 10.974v23.661h-12.035v-21.703c0-2.638-.381-4.991-1.142-7.058-.735-2.094-1.809-3.848-3.223-5.262-1.387-1.442-3.087-2.53-5.099-3.264-1.986-.761-4.216-1.142-6.691-1.142-1.305 0-2.652.136-4.039.408-1.359.272-2.706.666-4.038 1.183-1.306.489-2.57 1.115-3.794 1.876-1.224.735-2.339 1.578-3.345 2.53v32.432h-12.076z"/><path d="m447.831 480.367c0-3.454.694-6.691 2.081-9.709 1.414-3.019 3.413-5.657 5.997-7.915 2.611-2.257 5.752-4.038 9.424-5.344 3.698-1.305 7.846-1.958 12.442-1.958s8.73.653 12.402 1.958c3.698 1.306 6.84 3.087 9.423 5.344 2.611 2.258 4.61 4.896 5.997 7.915 1.414 3.018 2.122 6.255 2.122 9.709s-.708 6.69-2.122 9.709c-1.387 3.019-3.386 5.657-5.997 7.914-2.583 2.258-5.725 4.039-9.423 5.344-3.672 1.306-7.806 1.959-12.402 1.959s-8.744-.653-12.442-1.959c-3.672-1.305-6.813-3.086-9.424-5.344-2.584-2.257-4.583-4.895-5.997-7.914-1.387-3.019-2.081-6.255-2.081-9.709zm12.688 0c0 1.931.38 3.766 1.142 5.507.789 1.713 1.917 3.236 3.386 4.569 1.496 1.306 3.304 2.353 5.426 3.141 2.148.762 4.582 1.143 7.302 1.143s5.14-.381 7.262-1.143c2.148-.788 3.957-1.835 5.425-3.141 1.496-1.333 2.625-2.856 3.386-4.569.789-1.741 1.183-3.576 1.183-5.507s-.394-3.767-1.183-5.508c-.761-1.74-1.89-3.263-3.386-4.569-1.468-1.332-3.277-2.379-5.425-3.141-2.122-.789-4.542-1.183-7.262-1.183s-5.154.394-7.302 1.183c-2.122.762-3.93 1.809-5.426 3.141-1.469 1.306-2.597 2.829-3.386 4.569-.762 1.741-1.142 3.577-1.142 5.508z"/><path d="m526.28 449.73c-1.196 0-2.284-.164-3.263-.49-.952-.353-1.768-.816-2.448-1.387-.68-.598-1.21-1.278-1.591-2.04-.354-.788-.53-1.618-.53-2.488 0-.898.176-1.727.53-2.489.381-.788.911-1.468 1.591-2.039.68-.572 1.496-1.02 2.448-1.347.979-.353 2.067-.53 3.263-.53 1.224 0 2.312.177 3.264.53.979.327 1.809.775 2.488 1.347.68.571 1.197 1.251 1.551 2.039.38.762.571 1.591.571 2.489 0 .87-.191 1.7-.571 2.488-.354.762-.871 1.442-1.551 2.04-.679.571-1.509 1.034-2.488 1.387-.952.326-2.04.49-3.264.49zm-6.037 6.568h12.075v48.138h-12.075z"/><path d="m549.737 489.668c3.264 1.958 6.854 3.4 10.77 4.324 3.917.925 7.928 1.387 12.035 1.387 2.774 0 5.086-.19 6.935-.571s3.332-.87 4.447-1.468c1.115-.599 1.903-1.279 2.366-2.04.462-.762.693-1.537.693-2.326 0-1.142-.503-2.121-1.509-2.937-.979-.816-2.611-1.224-4.895-1.224-1.061 0-2.203.068-3.427.204s-2.516.286-3.876.449c-1.332.136-2.733.272-4.202.408-1.441.136-2.91.204-4.406.204-3.263 0-6.051-.354-8.363-1.061-2.284-.707-4.147-1.672-5.588-2.896-1.442-1.224-2.489-2.665-3.142-4.324-.652-1.687-.979-3.495-.979-5.426 0-2.448.571-4.705 1.714-6.772 1.142-2.067 2.774-3.848 4.895-5.344 2.121-1.523 4.678-2.706 7.67-3.549 3.018-.843 6.377-1.265 10.076-1.265 1.931 0 3.943.122 6.038.367 2.121.218 4.201.517 6.241.898 2.04.38 3.998.829 5.875 1.346 1.876.489 3.535 1.02 4.977 1.591l-3.794 9.383c-3.073-1.143-6.147-2.04-9.22-2.693-3.046-.68-6.187-1.02-9.424-1.02-2.257 0-4.174.177-5.752.531-1.55.326-2.815.775-3.794 1.346-.979.544-1.699 1.183-2.162 1.917-.435.707-.652 1.455-.652 2.244 0 .571.108 1.088.326 1.55.245.463.625.871 1.142 1.224.544.326 1.238.585 2.081.775.87.163 1.931.245 3.182.245 1.142 0 2.352-.068 3.63-.204 1.279-.136 2.611-.272 3.998-.408 1.387-.163 2.815-.313 4.284-.449 1.496-.136 3.019-.204 4.569-.204 2.883 0 5.398.34 7.547 1.02 2.176.68 3.971 1.632 5.385 2.856s2.475 2.665 3.182 4.324 1.061 3.468 1.061 5.426c0 2.529-.585 4.882-1.755 7.057-1.169 2.176-2.91 4.066-5.221 5.671-2.312 1.577-5.195 2.815-8.649 3.712-3.427.898-7.397 1.347-11.912 1.347-2.774 0-5.453-.177-8.037-.531-2.583-.326-5.045-.775-7.384-1.346-2.338-.598-4.541-1.292-6.608-2.081-2.04-.788-3.903-1.631-5.589-2.529z"/><path d="m268.777 527.037h12.932v52.422h37.082v11.341h-50.014z"/><path d="m327.562 575.624c0-2.312.504-4.42 1.51-6.323 1.006-1.904 2.515-3.536 4.528-4.896 2.013-1.387 4.515-2.448 7.506-3.182 3.019-.761 6.528-1.142 10.525-1.142 2.965 0 6.079.217 9.343.653 3.29.435 6.676 1.101 10.157 1.999-.135-1.523-.598-2.924-1.387-4.202-.788-1.306-1.89-2.421-3.304-3.345-1.387-.952-3.073-1.687-5.059-2.203-1.958-.517-4.188-.776-6.69-.776-1.36 0-2.856.082-4.487.245-1.632.163-3.318.408-5.059.735-1.741.326-3.468.734-5.181 1.223-1.686.49-3.264 1.075-4.732 1.755l-3.672-9.914c1.822-.652 3.767-1.251 5.834-1.795 2.094-.544 4.229-1.006 6.405-1.387 2.176-.408 4.351-.72 6.527-.938 2.176-.217 4.284-.326 6.323-.326 9.002 0 15.693 2.298 20.071 6.894 4.379 4.596 6.568 11.64 6.568 21.132v20.969h-12.075v-4.529c-1.251.735-2.624 1.428-4.12 2.081-1.469.653-3.073 1.224-4.814 1.713-1.741.49-3.617.871-5.63 1.143-1.985.299-4.093.448-6.323.448-3.753 0-7.058-.408-9.913-1.224-2.829-.815-5.195-1.944-7.099-3.386-1.903-1.441-3.345-3.127-4.324-5.058-.952-1.958-1.428-4.08-1.428-6.364zm12.728-.408c0 .789.204 1.55.612 2.284.408.708 1.061 1.347 1.959 1.918.897.544 2.039.992 3.426 1.346 1.415.326 3.114.49 5.1.49 2.121 0 4.174-.191 6.16-.572 1.985-.38 3.834-.883 5.548-1.509 1.713-.626 3.263-1.346 4.651-2.162 1.387-.816 2.542-1.659 3.467-2.529v-2.122c-1.849-.517-3.685-.952-5.507-1.305-1.795-.354-3.522-.626-5.181-.816-1.632-.218-3.182-.367-4.651-.449-1.441-.081-2.706-.122-3.794-.122-2.257 0-4.134.149-5.63.448-1.495.3-2.706.708-3.63 1.224-.925.49-1.578 1.075-1.958 1.755-.381.679-.572 1.387-.572 2.121z"/><path d="m398.954 523.121h12.075v24.069c1.061-.735 2.312-1.428 3.753-2.081 1.442-.653 2.992-1.224 4.651-1.713 1.659-.49 3.372-.871 5.14-1.143 1.768-.299 3.536-.448 5.303-.448 4.08 0 7.819.598 11.219 1.795 3.427 1.196 6.364 2.883 8.812 5.058 2.447 2.176 4.351 4.787 5.711 7.833 1.387 3.019 2.081 6.364 2.081 10.036 0 3.834-.721 7.302-2.163 10.402-1.441 3.073-3.44 5.712-5.996 7.915-2.53 2.175-5.549 3.861-9.057 5.058-3.481 1.17-7.261 1.754-11.341 1.754-1.741 0-3.468-.109-5.181-.326-1.686-.218-3.318-.517-4.895-.898-1.551-.38-3.019-.829-4.406-1.346-1.36-.544-2.57-1.128-3.631-1.754v3.468h-12.075zm12.075 52.544c1.224.979 2.516 1.808 3.876 2.488 1.359.68 2.746 1.238 4.161 1.673 1.414.435 2.842.761 4.283.979 1.442.19 2.842.285 4.202.285 2.774 0 5.235-.367 7.384-1.101 2.176-.762 3.998-1.795 5.466-3.101 1.496-1.305 2.639-2.842 3.427-4.609.789-1.768 1.183-3.686 1.183-5.752 0-1.931-.394-3.754-1.183-5.467-.761-1.713-1.876-3.209-3.345-4.487-1.441-1.306-3.196-2.326-5.263-3.06-2.039-.762-4.337-1.142-6.894-1.142-1.632 0-3.263.163-4.895.489-1.632.299-3.209.735-4.732 1.306-1.496.571-2.911 1.264-4.243 2.08-1.306.816-2.448 1.727-3.427 2.733z"/><path d="m470.794 576.032c3.263 1.958 6.853 3.399 10.77 4.324 3.916.925 7.928 1.387 12.034 1.387 2.774 0 5.086-.19 6.935-.571 1.85-.381 3.332-.87 4.447-1.469 1.115-.598 1.904-1.278 2.366-2.039.462-.762.694-1.537.694-2.326 0-1.142-.503-2.121-1.51-2.937-.979-.816-2.611-1.224-4.895-1.224-1.061 0-2.203.068-3.427.204s-2.516.286-3.875.449c-1.333.136-2.734.272-4.202.408-1.442.136-2.91.204-4.406.204-3.264 0-6.051-.354-8.363-1.061-2.285-.707-4.148-1.672-5.589-2.896-1.442-1.224-2.489-2.666-3.141-4.325-.653-1.686-.979-3.494-.979-5.425 0-2.448.571-4.705 1.713-6.772s2.774-3.849 4.895-5.344c2.122-1.523 4.678-2.707 7.67-3.55 3.019-.843 6.377-1.264 10.076-1.264 1.931 0 3.944.122 6.038.367 2.121.217 4.202.517 6.242.897 2.039.381 3.997.83 5.874 1.347 1.877.489 3.536 1.019 4.977 1.591l-3.794 9.382c-3.073-1.142-6.146-2.039-9.22-2.692-3.046-.68-6.187-1.02-9.423-1.02-2.258 0-4.175.177-5.752.53-1.551.327-2.815.776-3.794 1.347-.979.544-1.7 1.183-2.162 1.917-.436.707-.653 1.455-.653 2.244 0 .571.109 1.088.326 1.55.245.462.626.87 1.142 1.224.544.326 1.238.585 2.081.775.87.163 1.931.245 3.182.245 1.142 0 2.353-.068 3.631-.204s2.611-.272 3.998-.408c1.387-.163 2.815-.313 4.283-.449 1.496-.136 3.019-.204 4.569-.204 2.883 0 5.399.34 7.547 1.02 2.176.68 3.971 1.632 5.385 2.856 1.414 1.223 2.475 2.665 3.182 4.324s1.061 3.467 1.061 5.426c0 2.529-.585 4.881-1.754 7.057-1.17 2.176-2.91 4.066-5.222 5.671-2.312 1.577-5.195 2.815-8.649 3.712-3.426.898-7.397 1.346-11.912 1.346-2.774 0-5.453-.177-8.036-.53-2.584-.326-5.045-.775-7.384-1.346-2.339-.599-4.542-1.292-6.609-2.081-2.04-.789-3.903-1.632-5.589-2.529z"/></g></svg>