<svg fill="none" height="650" viewBox="0 0 650 650" width="650" xmlns="http://www.w3.org/2000/svg"><path d="m14 349.47c0-11.573 8.2599-21.498 19.6411-23.6l219.9999-40.632c14.751-2.725 28.359 8.6 28.359 23.6v310.324c0 15-13.608 26.325-28.359 23.6l-219.9999-40.632c-11.3812-2.102-19.6411-12.027-19.6411-23.6z" fill="#ffc93d"/><path d="m130 107.438c0-14.8668 13.378-26.1573 28.033-23.6589l104 17.7299c11.532 1.966 19.967 11.96 19.967 23.659v101.925c0 11.583-8.273 21.513-19.665 23.605l-104 19.099c-14.744 2.707-28.335-8.615-28.335-23.606z" fill="#69cb84"/><path d="m314 434.661c0-14.602 12.929-25.819 27.384-23.761l140 19.941c11.828 1.685 20.616 11.813 20.616 23.761v145.796c0 11.948-8.788 22.076-20.616 23.761l-140 19.941c-14.455 2.058-27.384-9.159-27.384-23.761z" fill="#33a1fd"/><path d="m314 68.9153c0-11.9111 8.736-22.0199 20.521-23.7465l274-40.14293c14.485-2.12217 27.479 9.10673 27.479 23.74653v360.4556c0 14.639-12.994 25.868-27.479 23.746l-274-40.143c-11.785-1.726-20.521-11.835-20.521-23.746z" fill="#e15285"/></svg>