<svg width="1730" height="970" viewBox="0 0 1730 970" fill="none" xmlns="http://www.w3.org/2000/svg">
<g clip-path="url(#clip0)">
<rect width="1730" height="970" fill="white"/>
<rect x="247" width="1299" height="970" rx="54.9675" fill="#DCF2FF"/>
<circle cx="339.85" cy="88.3937" r="28.9693" fill="#E15285"/>
<circle cx="426.016" cy="88.3937" r="28.9693" fill="#FFC93D"/>
<circle cx="512.181" cy="88.3937" r="28.9693" fill="#69CB84"/>
<rect x="646.5" y="278.5" width="799" height="237" rx="45.5" stroke="#FA5E21" stroke-width="19" stroke-dasharray="50 40"/>
<path d="M0 324C0 293.624 24.6243 269 55 269H440C470.376 269 495 293.624 495 324V709C495 739.376 470.376 764 440 764H55C24.6243 764 0 739.376 0 709V324Z" fill="#041633"/>
<path d="M53.0134 425.303H68.4612V500.992H53.0134V425.303Z" fill="#DCF2FF"/>
<path d="M86.6693 420.654H101.003V500.992H86.6693V420.654Z" fill="#DCF2FF"/>
<path d="M119.793 420.654H134.127V500.992H119.793V420.654Z" fill="#DCF2FF"/>
<path d="M160.083 436.053C158.662 436.053 157.371 435.859 156.209 435.472C155.079 435.052 154.11 434.504 153.303 433.826C152.496 433.115 151.867 432.308 151.415 431.404C150.995 430.468 150.785 429.483 150.785 428.45C150.785 427.385 150.995 426.4 151.415 425.496C151.867 424.56 152.496 423.753 153.303 423.075C154.11 422.397 155.079 421.864 156.209 421.477C157.371 421.057 158.662 420.847 160.083 420.847C161.536 420.847 162.827 421.057 163.957 421.477C165.119 421.864 166.104 422.397 166.911 423.075C167.718 423.753 168.331 424.56 168.751 425.496C169.203 426.4 169.429 427.385 169.429 428.45C169.429 429.483 169.203 430.468 168.751 431.404C168.331 432.308 167.718 433.115 166.911 433.826C166.104 434.504 165.119 435.052 163.957 435.472C162.827 435.859 161.536 436.053 160.083 436.053ZM152.916 443.85H167.25V500.992H152.916V443.85Z" fill="#DCF2FF"/>
<path d="M185.652 443.85H199.986V448.692C203.795 446.529 207.427 445.012 210.881 444.14C214.368 443.269 217.774 442.833 221.099 442.833C225.458 442.833 229.493 443.478 233.206 444.77C236.918 446.029 240.131 447.917 242.842 450.436C245.554 452.954 247.669 456.101 249.186 459.879C250.736 463.624 251.511 467.966 251.511 472.905V500.992H237.225V475.23C237.225 472.098 236.773 469.306 235.869 466.852C234.997 464.366 233.722 462.284 232.043 460.605C230.397 458.894 228.379 457.603 225.99 456.731C223.634 455.827 220.986 455.375 218.048 455.375C216.499 455.375 214.901 455.536 213.254 455.859C211.64 456.182 210.042 456.65 208.46 457.264C206.911 457.845 205.409 458.587 203.957 459.491C202.504 460.363 201.18 461.364 199.986 462.494V500.992H185.652V443.85Z" fill="#DCF2FF"/>
<path d="M265.699 472.421C265.699 468.321 266.523 464.479 268.169 460.896C269.848 457.312 272.221 454.181 275.288 451.501C278.387 448.821 282.116 446.707 286.474 445.157C290.865 443.608 295.788 442.833 301.244 442.833C306.7 442.833 311.607 443.608 315.965 445.157C320.356 446.707 324.085 448.821 327.152 451.501C330.251 454.181 332.624 457.312 334.27 460.896C335.949 464.479 336.788 468.321 336.788 472.421C336.788 476.521 335.949 480.363 334.27 483.946C332.624 487.53 330.251 490.661 327.152 493.341C324.085 496.02 320.356 498.135 315.965 499.685C311.607 501.234 306.7 502.009 301.244 502.009C295.788 502.009 290.865 501.234 286.474 499.685C282.116 498.135 278.387 496.02 275.288 493.341C272.221 490.661 269.848 487.53 268.169 483.946C266.523 480.363 265.699 476.521 265.699 472.421ZM280.76 472.421C280.76 474.713 281.212 476.892 282.116 478.958C283.052 480.992 284.392 482.8 286.135 484.382C287.911 485.932 290.058 487.175 292.576 488.111C295.126 489.015 298.016 489.467 301.244 489.467C304.472 489.467 307.346 489.015 309.864 488.111C312.414 487.175 314.561 485.932 316.304 484.382C318.08 482.8 319.42 480.992 320.324 478.958C321.26 476.892 321.728 474.713 321.728 472.421C321.728 470.129 321.26 467.95 320.324 465.883C319.42 463.817 318.08 462.009 316.304 460.46C314.561 458.878 312.414 457.635 309.864 456.731C307.346 455.795 304.472 455.327 301.244 455.327C298.016 455.327 295.126 455.795 292.576 456.731C290.058 457.635 287.911 458.878 286.135 460.46C284.392 462.009 283.052 463.817 282.116 465.883C281.212 467.95 280.76 470.129 280.76 472.421Z" fill="#DCF2FF"/>
<path d="M358.822 436.053C357.402 436.053 356.11 435.859 354.948 435.472C353.818 435.052 352.85 434.504 352.043 433.826C351.235 433.115 350.606 432.308 350.154 431.404C349.734 430.468 349.524 429.483 349.524 428.45C349.524 427.385 349.734 426.4 350.154 425.496C350.606 424.56 351.235 423.753 352.043 423.075C352.85 422.397 353.818 421.864 354.948 421.477C356.11 421.057 357.402 420.847 358.822 420.847C360.275 420.847 361.566 421.057 362.696 421.477C363.858 421.864 364.843 422.397 365.65 423.075C366.457 423.753 367.071 424.56 367.49 425.496C367.942 426.4 368.168 427.385 368.168 428.45C368.168 429.483 367.942 430.468 367.49 431.404C367.071 432.308 366.457 433.115 365.65 433.826C364.843 434.504 363.858 435.052 362.696 435.472C361.566 435.859 360.275 436.053 358.822 436.053ZM351.655 443.85H365.989V500.992H351.655V443.85Z" fill="#DCF2FF"/>
<path d="M386.667 483.462C390.541 485.786 394.803 487.497 399.451 488.595C404.1 489.693 408.862 490.242 413.737 490.242C417.03 490.242 419.774 490.016 421.969 489.564C424.165 489.112 425.924 488.531 427.248 487.82C428.571 487.11 429.508 486.303 430.056 485.399C430.605 484.495 430.88 483.575 430.88 482.639C430.88 481.283 430.282 480.121 429.088 479.152C427.926 478.184 425.989 477.699 423.277 477.699C422.018 477.699 420.662 477.78 419.209 477.941C417.756 478.103 416.223 478.28 414.609 478.474C413.027 478.636 411.364 478.797 409.621 478.958C407.91 479.12 406.166 479.201 404.391 479.201C400.517 479.201 397.208 478.781 394.464 477.941C391.752 477.102 389.54 475.956 387.829 474.503C386.118 473.05 384.875 471.339 384.1 469.37C383.326 467.368 382.938 465.222 382.938 462.929C382.938 460.024 383.616 457.344 384.972 454.891C386.328 452.437 388.265 450.323 390.783 448.547C393.301 446.739 396.336 445.335 399.887 444.334C403.471 443.333 407.458 442.833 411.848 442.833C414.141 442.833 416.53 442.978 419.015 443.269C421.534 443.527 424.003 443.882 426.425 444.334C428.846 444.786 431.17 445.319 433.398 445.932C435.625 446.513 437.595 447.143 439.306 447.821L434.802 458.959C431.154 457.603 427.506 456.537 423.858 455.762C420.242 454.955 416.513 454.552 412.672 454.552C409.992 454.552 407.716 454.762 405.844 455.181C404.003 455.569 402.502 456.101 401.34 456.779C400.178 457.425 399.322 458.184 398.773 459.055C398.257 459.895 397.999 460.783 397.999 461.719C397.999 462.397 398.128 463.01 398.386 463.559C398.677 464.108 399.129 464.592 399.742 465.012C400.388 465.399 401.211 465.706 402.212 465.932C403.245 466.126 404.504 466.222 405.989 466.222C407.345 466.222 408.781 466.142 410.299 465.98C411.816 465.819 413.398 465.657 415.044 465.496C416.691 465.302 418.386 465.125 420.129 464.963C421.905 464.802 423.713 464.721 425.553 464.721C428.975 464.721 431.961 465.125 434.512 465.932C437.094 466.739 439.225 467.869 440.904 469.322C442.583 470.774 443.842 472.485 444.681 474.455C445.52 476.424 445.94 478.571 445.94 480.895C445.94 483.898 445.246 486.69 443.858 489.273C442.47 491.856 440.403 494.099 437.659 496.004C434.915 497.877 431.493 499.346 427.393 500.411C423.325 501.476 418.612 502.009 413.253 502.009C409.96 502.009 406.78 501.799 403.713 501.38C400.646 500.992 397.724 500.459 394.948 499.781C392.171 499.071 389.556 498.248 387.103 497.312C384.682 496.376 382.47 495.375 380.468 494.309L386.667 483.462Z" fill="#DCF2FF"/>
<path d="M53.1521 527.821H68.5031V590.048H112.522V603.51H53.1521V527.821Z" fill="#DCF2FF"/>
<path d="M122.934 585.496C122.934 582.752 123.531 580.25 124.725 577.99C125.92 575.73 127.712 573.793 130.101 572.179C132.49 570.532 135.46 569.273 139.011 568.402C142.594 567.498 146.759 567.046 151.505 567.046C155.024 567.046 158.72 567.304 162.594 567.821C166.501 568.337 170.52 569.128 174.652 570.193C174.491 568.386 173.942 566.723 173.006 565.206C172.07 563.656 170.762 562.332 169.083 561.235C167.437 560.105 165.435 559.233 163.079 558.62C160.754 558.006 158.107 557.7 155.137 557.7C153.523 557.7 151.747 557.796 149.81 557.99C147.873 558.184 145.871 558.474 143.805 558.862C141.739 559.249 139.689 559.733 137.655 560.315C135.653 560.896 133.781 561.59 132.038 562.397L127.679 550.629C129.842 549.855 132.151 549.144 134.604 548.499C137.09 547.853 139.624 547.304 142.207 546.852C144.79 546.368 147.372 545.997 149.955 545.738C152.538 545.48 155.04 545.351 157.461 545.351C168.147 545.351 176.089 548.079 181.287 553.535C186.484 558.991 189.083 567.352 189.083 578.62V603.51H174.749V598.135C173.264 599.007 171.634 599.83 169.858 600.605C168.115 601.38 166.21 602.058 164.144 602.639C162.078 603.22 159.85 603.672 157.461 603.995C155.104 604.35 152.602 604.527 149.955 604.527C145.5 604.527 141.578 604.043 138.188 603.075C134.83 602.106 132.022 600.766 129.762 599.055C127.502 597.344 125.791 595.343 124.629 593.05C123.499 590.726 122.934 588.208 122.934 585.496ZM138.042 585.012C138.042 585.948 138.285 586.852 138.769 587.724C139.253 588.563 140.028 589.322 141.093 590C142.159 590.645 143.515 591.178 145.161 591.598C146.84 591.985 148.858 592.179 151.214 592.179C153.732 592.179 156.17 591.953 158.527 591.501C160.883 591.049 163.079 590.452 165.112 589.709C167.146 588.966 168.987 588.111 170.633 587.142C172.279 586.174 173.652 585.173 174.749 584.14V581.622C172.554 581.009 170.375 580.492 168.212 580.072C166.081 579.653 164.031 579.33 162.062 579.104C160.125 578.845 158.284 578.668 156.541 578.571C154.83 578.474 153.329 578.426 152.038 578.426C149.358 578.426 147.13 578.603 145.355 578.958C143.579 579.314 142.143 579.798 141.045 580.411C139.947 580.992 139.172 581.686 138.72 582.494C138.268 583.301 138.042 584.14 138.042 585.012Z" fill="#DCF2FF"/>
<path d="M207.679 523.172H222.013V551.743C223.272 550.872 224.757 550.048 226.468 549.273C228.179 548.499 230.019 547.821 231.988 547.24C233.958 546.658 235.992 546.207 238.09 545.884C240.189 545.529 242.287 545.351 244.385 545.351C249.228 545.351 253.667 546.061 257.703 547.482C261.77 548.902 265.257 550.904 268.162 553.487C271.068 556.069 273.328 559.168 274.942 562.784C276.589 566.368 277.412 570.339 277.412 574.697C277.412 579.249 276.556 583.365 274.845 587.046C273.134 590.694 270.761 593.825 267.727 596.44C264.724 599.023 261.141 601.024 256.976 602.445C252.844 603.833 248.356 604.527 243.514 604.527C241.448 604.527 239.398 604.398 237.364 604.14C235.362 603.882 233.425 603.526 231.553 603.075C229.712 602.623 227.969 602.09 226.323 601.476C224.708 600.831 223.272 600.137 222.013 599.394V603.51H207.679V523.172ZM222.013 585.544C223.466 586.707 224.999 587.691 226.613 588.498C228.227 589.305 229.874 589.967 231.553 590.484C233.231 591 234.926 591.388 236.637 591.646C238.348 591.872 240.011 591.985 241.625 591.985C244.918 591.985 247.84 591.549 250.39 590.678C252.973 589.774 255.136 588.547 256.879 586.997C258.655 585.448 260.011 583.623 260.947 581.525C261.883 579.427 262.351 577.151 262.351 574.697C262.351 572.405 261.883 570.242 260.947 568.208C260.043 566.174 258.719 564.398 256.976 562.881C255.265 561.332 253.183 560.121 250.729 559.249C248.308 558.345 245.58 557.893 242.545 557.893C240.608 557.893 238.671 558.087 236.734 558.474C234.797 558.83 232.925 559.346 231.117 560.024C229.341 560.702 227.662 561.525 226.081 562.494C224.531 563.462 223.175 564.544 222.013 565.738V585.544Z" fill="#DCF2FF"/>
<path d="M292.956 585.98C296.831 588.305 301.092 590.016 305.741 591.113C310.39 592.211 315.152 592.76 320.026 592.76C323.319 592.76 326.064 592.534 328.259 592.082C330.454 591.63 332.214 591.049 333.537 590.339C334.861 589.628 335.797 588.821 336.346 587.917C336.895 587.013 337.169 586.093 337.169 585.157C337.169 583.801 336.572 582.639 335.377 581.67C334.215 580.702 332.278 580.218 329.566 580.218C328.307 580.218 326.951 580.298 325.499 580.46C324.046 580.621 322.512 580.799 320.898 580.992C319.316 581.154 317.654 581.315 315.91 581.477C314.199 581.638 312.456 581.719 310.68 581.719C306.806 581.719 303.497 581.299 300.753 580.46C298.041 579.62 295.83 578.474 294.119 577.021C292.408 575.569 291.165 573.858 290.39 571.888C289.615 569.887 289.228 567.74 289.228 565.448C289.228 562.542 289.906 559.863 291.262 557.409C292.618 554.955 294.555 552.841 297.073 551.065C299.591 549.257 302.626 547.853 306.177 546.852C309.76 545.851 313.747 545.351 318.138 545.351C320.43 545.351 322.819 545.496 325.305 545.787C327.823 546.045 330.293 546.4 332.714 546.852C335.135 547.304 337.46 547.837 339.687 548.45C341.915 549.031 343.884 549.661 345.595 550.339L341.092 561.477C337.444 560.121 333.796 559.055 330.147 558.281C326.532 557.474 322.803 557.07 318.961 557.07C316.282 557.07 314.006 557.28 312.133 557.7C310.293 558.087 308.792 558.62 307.629 559.298C306.467 559.943 305.612 560.702 305.063 561.574C304.546 562.413 304.288 563.301 304.288 564.237C304.288 564.915 304.417 565.528 304.676 566.077C304.966 566.626 305.418 567.11 306.031 567.53C306.677 567.917 307.5 568.224 308.501 568.45C309.534 568.644 310.793 568.741 312.278 568.741C313.634 568.741 315.071 568.66 316.588 568.499C318.106 568.337 319.688 568.176 321.334 568.014C322.98 567.821 324.675 567.643 326.419 567.482C328.194 567.32 330.002 567.239 331.842 567.239C335.264 567.239 338.251 567.643 340.801 568.45C343.384 569.257 345.515 570.387 347.193 571.84C348.872 573.293 350.131 575.004 350.971 576.973C351.81 578.942 352.23 581.089 352.23 583.414C352.23 586.416 351.536 589.209 350.147 591.791C348.759 594.374 346.693 596.618 343.949 598.522C341.205 600.395 337.783 601.864 333.683 602.929C329.615 603.995 324.901 604.527 319.542 604.527C316.249 604.527 313.069 604.317 310.002 603.898C306.935 603.51 304.014 602.978 301.237 602.3C298.461 601.589 295.846 600.766 293.392 599.83C290.971 598.894 288.76 597.893 286.758 596.828L292.956 585.98Z" fill="#DCF2FF"/>
<g filter="url(#filter0_d)">
<rect x="881" y="88" width="849" height="269" rx="55" fill="#33A1FD"/>
<rect x="918.456" y="125.793" width="191.686" height="193.413" rx="38.5" fill="#DCF2FF"/>
<rect x="1146.13" y="131.722" width="441.392" height="39.2755" rx="19.6377" fill="#DCF2FF"/>
<rect x="1146.13" y="202.862" width="543.478" height="39.2755" rx="19.6377" fill="#DCF2FF"/>
<rect x="1146.13" y="274.003" width="327.555" height="39.2755" rx="19.6377" fill="#DCF2FF"/>
</g>
<g filter="url(#filter1_d)">
<rect x="637" y="584" width="849" height="269" rx="55" fill="#33A1FD"/>
<rect x="674.456" y="621.793" width="191.686" height="193.413" rx="38.5" fill="#DCF2FF"/>
<rect x="902.129" y="627.722" width="441.392" height="39.2755" rx="19.6377" fill="#DCF2FF"/>
<rect x="902.129" y="698.862" width="543.478" height="39.2755" rx="19.6377" fill="#DCF2FF"/>
<rect x="902.129" y="770.003" width="327.555" height="39.2755" rx="19.6377" fill="#DCF2FF"/>
</g>
<g filter="url(#filter2_d)">
<path d="M1557.19 394.49C1558.33 393.975 1559.57 393.68 1560.84 393.623C1562.1 393.565 1563.37 393.746 1564.56 394.155C1565.75 394.564 1566.84 395.193 1567.77 396.006C1568.71 396.819 1569.46 397.799 1570 398.891L1592.15 444.639L1609.48 436.846L1587.23 391.19C1584.92 386.606 1587.04 381.105 1591.86 378.997L1594.55 378.263L1616.7 374.138L1537.26 310.604V409.434L1554.78 395.957L1557.19 394.49ZM1591.57 465.083C1590.43 465.61 1589.2 465.917 1587.93 465.985C1586.67 466.054 1585.41 465.882 1584.22 465.481C1583.02 465.08 1581.93 464.458 1580.99 463.65C1580.06 462.842 1579.3 461.864 1578.76 460.775L1557.77 417.319L1533.6 435.838C1531.96 437.121 1529.94 437.855 1527.63 437.855C1525.08 437.855 1522.63 436.889 1520.82 435.17C1519.01 433.45 1518 431.118 1518 428.687V291.168C1518 288.736 1519.01 286.405 1520.82 284.685C1522.63 282.966 1525.08 282 1527.63 282C1529.94 282 1532.16 282.825 1533.79 284.109L1533.89 284.017L1644.53 372.396C1645.92 373.502 1646.96 374.961 1647.53 376.604C1648.09 378.248 1648.15 380.01 1647.71 381.686C1647.27 383.363 1646.34 384.886 1645.02 386.081C1643.71 387.276 1642.07 388.093 1640.29 388.44L1609.86 394.124L1631.05 437.488C1633.55 442.072 1631.24 447.481 1626.43 449.59L1591.57 465.083Z" fill="#041633"/>
<path fill-rule="evenodd" clip-rule="evenodd" d="M1560.84 393.623C1559.57 393.68 1558.33 393.975 1557.19 394.49L1554.78 395.957L1537.26 409.434V310.604L1616.7 374.138L1594.55 378.263L1591.86 378.997C1587.04 381.105 1584.92 386.606 1587.23 391.19L1609.48 436.846L1592.15 444.639L1570 398.891C1569.46 397.799 1568.71 396.819 1567.77 396.006C1566.84 395.193 1565.75 394.564 1564.56 394.155C1563.37 393.746 1562.1 393.565 1560.84 393.623Z" fill="#DCF2FF"/>
</g>
<circle cx="1486.5" cy="583.5" r="49.5" fill="#E15285"/>
<ellipse cx="1012" cy="219.5" rx="44" ry="43.5" fill="#33A1FD"/>
<ellipse cx="770.218" cy="718.5" rx="44" ry="43.5" fill="#33A1FD"/>
<path fill-rule="evenodd" clip-rule="evenodd" d="M1092.22 320H931.782C939.642 287.435 972.571 263 1012 263C1051.43 263 1084.36 287.435 1092.22 320Z" fill="#33A1FD"/>
<path fill-rule="evenodd" clip-rule="evenodd" d="M850.436 819H690C697.859 786.435 730.789 762 770.218 762C809.647 762 842.576 786.435 850.436 819Z" fill="#33A1FD"/>
</g>
<defs>
<filter id="filter0_d" x="869" y="80" width="873" height="293" filterUnits="userSpaceOnUse" color-interpolation-filters="sRGB">
<feFlood flood-opacity="0" result="BackgroundImageFix"/>
<feColorMatrix in="SourceAlpha" type="matrix" values="0 0 0 0 0 0 0 0 0 0 0 0 0 0 0 0 0 0 127 0"/>
<feOffset dy="4"/>
<feGaussianBlur stdDeviation="6"/>
<feColorMatrix type="matrix" values="0 0 0 0 0 0 0 0 0 0 0 0 0 0 0 0 0 0 0.12 0"/>
<feBlend mode="normal" in2="BackgroundImageFix" result="effect1_dropShadow"/>
<feBlend mode="normal" in="SourceGraphic" in2="effect1_dropShadow" result="shape"/>
</filter>
<filter id="filter1_d" x="625" y="576" width="873" height="293" filterUnits="userSpaceOnUse" color-interpolation-filters="sRGB">
<feFlood flood-opacity="0" result="BackgroundImageFix"/>
<feColorMatrix in="SourceAlpha" type="matrix" values="0 0 0 0 0 0 0 0 0 0 0 0 0 0 0 0 0 0 127 0"/>
<feOffset dy="4"/>
<feGaussianBlur stdDeviation="6"/>
<feColorMatrix type="matrix" values="0 0 0 0 0 0 0 0 0 0 0 0 0 0 0 0 0 0 0.12 0"/>
<feBlend mode="normal" in2="BackgroundImageFix" result="effect1_dropShadow"/>
<feBlend mode="normal" in="SourceGraphic" in2="effect1_dropShadow" result="shape"/>
</filter>
<filter id="filter2_d" x="1506" y="274" width="154" height="208" filterUnits="userSpaceOnUse" color-interpolation-filters="sRGB">
<feFlood flood-opacity="0" result="BackgroundImageFix"/>
<feColorMatrix in="SourceAlpha" type="matrix" values="0 0 0 0 0 0 0 0 0 0 0 0 0 0 0 0 0 0 127 0"/>
<feOffset dy="4"/>
<feGaussianBlur stdDeviation="6"/>
<feColorMatrix type="matrix" values="0 0 0 0 0 0 0 0 0 0 0 0 0 0 0 0 0 0 0.12 0"/>
<feBlend mode="normal" in2="BackgroundImageFix" result="effect1_dropShadow"/>
<feBlend mode="normal" in="SourceGraphic" in2="effect1_dropShadow" result="shape"/>
</filter>
<clipPath id="clip0">
<rect width="1730" height="970" fill="white"/>
</clipPath>
</defs>
</svg>
