<svg fill="none" height="970" viewBox="0 0 1730 970" width="1730" xmlns="http://www.w3.org/2000/svg" xmlns:xlink="http://www.w3.org/1999/xlink"><filter id="a" color-interpolation-filters="sRGB" filterUnits="userSpaceOnUse" height="293" width="873" x="869" y="80"><feFlood flood-opacity="0" result="BackgroundImageFix"/><feColorMatrix in="SourceAlpha" type="matrix" values="0 0 0 0 0 0 0 0 0 0 0 0 0 0 0 0 0 0 127 0"/><feOffset dy="4"/><feGaussianBlur stdDeviation="6"/><feColorMatrix type="matrix" values="0 0 0 0 0 0 0 0 0 0 0 0 0 0 0 0 0 0 0.12 0"/><feBlend in2="BackgroundImageFix" mode="normal" result="effect1_dropShadow"/><feBlend in="SourceGraphic" in2="effect1_dropShadow" mode="normal" result="shape"/></filter><filter id="b" color-interpolation-filters="sRGB" filterUnits="userSpaceOnUse" height="293" width="873" x="625" y="576"><feFlood flood-opacity="0" result="BackgroundImageFix"/><feColorMatrix in="SourceAlpha" type="matrix" values="0 0 0 0 0 0 0 0 0 0 0 0 0 0 0 0 0 0 127 0"/><feOffset dy="4"/><feGaussianBlur stdDeviation="6"/><feColorMatrix type="matrix" values="0 0 0 0 0 0 0 0 0 0 0 0 0 0 0 0 0 0 0.12 0"/><feBlend in2="BackgroundImageFix" mode="normal" result="effect1_dropShadow"/><feBlend in="SourceGraphic" in2="effect1_dropShadow" mode="normal" result="shape"/></filter><filter id="c" color-interpolation-filters="sRGB" filterUnits="userSpaceOnUse" height="208" width="154" x="1506" y="274"><feFlood flood-opacity="0" result="BackgroundImageFix"/><feColorMatrix in="SourceAlpha" type="matrix" values="0 0 0 0 0 0 0 0 0 0 0 0 0 0 0 0 0 0 127 0"/><feOffset dy="4"/><feGaussianBlur stdDeviation="6"/><feColorMatrix type="matrix" values="0 0 0 0 0 0 0 0 0 0 0 0 0 0 0 0 0 0 0.12 0"/><feBlend in2="BackgroundImageFix" mode="normal" result="effect1_dropShadow"/><feBlend in="SourceGraphic" in2="effect1_dropShadow" mode="normal" result="shape"/></filter><clipPath id="d"><path d="m0 0h1730v970h-1730z"/></clipPath><g clip-path="url(#d)"><path d="m0 0h1730v970h-1730z" fill="#fff"/><rect fill="#dcf2ff" height="970" rx="54.9675" width="1299" x="247"/><circle cx="339.85" cy="88.3937" fill="#e15285" r="28.9693"/><circle cx="426.016" cy="88.3937" fill="#ffc93d" r="28.9693"/><circle cx="512.181" cy="88.3937" fill="#69cb84" r="28.9693"/><rect height="237" rx="45.5" stroke="#fa5e21" stroke-dasharray="50 40" stroke-width="19" width="799" x="646.5" y="278.5"/><path d="m0 324c0-30.376 24.6243-55 55-55h385c30.376 0 55 24.624 55 55v385c0 30.376-24.624 55-55 55h-385c-30.3757 0-55-24.624-55-55z" fill="#041633"/><g fill="#dcf2ff"><path d="m53.0134 425.303h15.4478v75.689h-15.4478z"/><path d="m86.6693 420.654h14.3337v80.338h-14.3337z"/><path d="m119.793 420.654h14.334v80.338h-14.334z"/><path d="m160.083 436.053c-1.421 0-2.712-.194-3.874-.581-1.13-.42-2.099-.968-2.906-1.646-.807-.711-1.436-1.518-1.888-2.422-.42-.936-.63-1.921-.63-2.954 0-1.065.21-2.05.63-2.954.452-.936 1.081-1.743 1.888-2.421s1.776-1.211 2.906-1.598c1.162-.42 2.453-.63 3.874-.63 1.453 0 2.744.21 3.874.63 1.162.387 2.147.92 2.954 1.598s1.42 1.485 1.84 2.421c.452.904.678 1.889.678 2.954 0 1.033-.226 2.018-.678 2.954-.42.904-1.033 1.711-1.84 2.422-.807.678-1.792 1.226-2.954 1.646-1.13.387-2.421.581-3.874.581zm-7.167 7.797h14.334v57.142h-14.334z"/><path d="m185.652 443.85h14.334v4.842c3.809-2.163 7.441-3.68 10.895-4.552 3.487-.871 6.893-1.307 10.218-1.307 4.359 0 8.394.645 12.107 1.937 3.712 1.259 6.925 3.147 9.636 5.666 2.712 2.518 4.827 5.665 6.344 9.443 1.55 3.745 2.325 8.087 2.325 13.026v28.087h-14.286v-25.762c0-3.132-.452-5.924-1.356-8.378-.872-2.486-2.147-4.568-3.826-6.247-1.646-1.711-3.664-3.002-6.053-3.874-2.356-.904-5.004-1.356-7.942-1.356-1.549 0-3.147.161-4.794.484-1.614.323-3.212.791-4.794 1.405-1.549.581-3.051 1.323-4.503 2.227-1.453.872-2.777 1.873-3.971 3.003v38.498h-14.334z"/><path d="m265.699 472.421c0-4.1.824-7.942 2.47-11.525 1.679-3.584 4.052-6.715 7.119-9.395 3.099-2.68 6.828-4.794 11.186-6.344 4.391-1.549 9.314-2.324 14.77-2.324s10.363.775 14.721 2.324c4.391 1.55 8.12 3.664 11.187 6.344 3.099 2.68 5.472 5.811 7.118 9.395 1.679 3.583 2.518 7.425 2.518 11.525s-.839 7.942-2.518 11.525c-1.646 3.584-4.019 6.715-7.118 9.395-3.067 2.679-6.796 4.794-11.187 6.344-4.358 1.549-9.265 2.324-14.721 2.324s-10.379-.775-14.77-2.324c-4.358-1.55-8.087-3.665-11.186-6.344-3.067-2.68-5.44-5.811-7.119-9.395-1.646-3.583-2.47-7.425-2.47-11.525zm15.061 0c0 2.292.452 4.471 1.356 6.537.936 2.034 2.276 3.842 4.019 5.424 1.776 1.55 3.923 2.793 6.441 3.729 2.55.904 5.44 1.356 8.668 1.356s6.102-.452 8.62-1.356c2.55-.936 4.697-2.179 6.44-3.729 1.776-1.582 3.116-3.39 4.02-5.424.936-2.066 1.404-4.245 1.404-6.537s-.468-4.471-1.404-6.538c-.904-2.066-2.244-3.874-4.02-5.423-1.743-1.582-3.89-2.825-6.44-3.729-2.518-.936-5.392-1.404-8.62-1.404s-6.118.468-8.668 1.404c-2.518.904-4.665 2.147-6.441 3.729-1.743 1.549-3.083 3.357-4.019 5.423-.904 2.067-1.356 4.246-1.356 6.538z"/><path d="m358.822 436.053c-1.42 0-2.712-.194-3.874-.581-1.13-.42-2.098-.968-2.905-1.646-.808-.711-1.437-1.518-1.889-2.422-.42-.936-.63-1.921-.63-2.954 0-1.065.21-2.05.63-2.954.452-.936 1.081-1.743 1.889-2.421.807-.678 1.775-1.211 2.905-1.598 1.162-.42 2.454-.63 3.874-.63 1.453 0 2.744.21 3.874.63 1.162.387 2.147.92 2.954 1.598s1.421 1.485 1.84 2.421c.452.904.678 1.889.678 2.954 0 1.033-.226 2.018-.678 2.954-.419.904-1.033 1.711-1.84 2.422-.807.678-1.792 1.226-2.954 1.646-1.13.387-2.421.581-3.874.581zm-7.167 7.797h14.334v57.142h-14.334z"/><path d="m386.667 483.462c3.874 2.324 8.136 4.035 12.784 5.133 4.649 1.098 9.411 1.647 14.286 1.647 3.293 0 6.037-.226 8.232-.678 2.196-.452 3.955-1.033 5.279-1.744 1.323-.71 2.26-1.517 2.808-2.421.549-.904.824-1.824.824-2.76 0-1.356-.598-2.518-1.792-3.487-1.162-.968-3.099-1.453-5.811-1.453-1.259 0-2.615.081-4.068.242-1.453.162-2.986.339-4.6.533-1.582.162-3.245.323-4.988.484-1.711.162-3.455.243-5.23.243-3.874 0-7.183-.42-9.927-1.26-2.712-.839-4.924-1.985-6.635-3.438s-2.954-3.164-3.729-5.133c-.774-2.002-1.162-4.148-1.162-6.441 0-2.905.678-5.585 2.034-8.038 1.356-2.454 3.293-4.568 5.811-6.344 2.518-1.808 5.553-3.212 9.104-4.213 3.584-1.001 7.571-1.501 11.961-1.501 2.293 0 4.682.145 7.167.436 2.519.258 4.988.613 7.41 1.065 2.421.452 4.745.985 6.973 1.598 2.227.581 4.197 1.211 5.908 1.889l-4.504 11.138c-3.648-1.356-7.296-2.422-10.944-3.197-3.616-.807-7.345-1.21-11.186-1.21-2.68 0-4.956.21-6.828.629-1.841.388-3.342.92-4.504 1.598-1.162.646-2.018 1.405-2.567 2.276-.516.84-.774 1.728-.774 2.664 0 .678.129 1.291.387 1.84.291.549.743 1.033 1.356 1.453.646.387 1.469.694 2.47.92 1.033.194 2.292.29 3.777.29 1.356 0 2.792-.08 4.31-.242 1.517-.161 3.099-.323 4.745-.484 1.647-.194 3.342-.371 5.085-.533 1.776-.161 3.584-.242 5.424-.242 3.422 0 6.408.404 8.959 1.211 2.582.807 4.713 1.937 6.392 3.39 1.679 1.452 2.938 3.163 3.777 5.133.839 1.969 1.259 4.116 1.259 6.44 0 3.003-.694 5.795-2.082 8.378s-3.455 4.826-6.199 6.731c-2.744 1.873-6.166 3.342-10.266 4.407-4.068 1.065-8.781 1.598-14.14 1.598-3.293 0-6.473-.21-9.54-.629-3.067-.388-5.989-.921-8.765-1.599-2.777-.71-5.392-1.533-7.845-2.469-2.421-.936-4.633-1.937-6.635-3.003z"/><path d="m53.1521 527.821h15.351v62.227h44.0189v13.462h-59.3699z"/><path d="m122.934 585.496c0-2.744.597-5.246 1.791-7.506 1.195-2.26 2.987-4.197 5.376-5.811 2.389-1.647 5.359-2.906 8.91-3.777 3.583-.904 7.748-1.356 12.494-1.356 3.519 0 7.215.258 11.089.775 3.907.516 7.926 1.307 12.058 2.372-.161-1.807-.71-3.47-1.646-4.987-.936-1.55-2.244-2.874-3.923-3.971-1.646-1.13-3.648-2.002-6.004-2.615-2.325-.614-4.972-.92-7.942-.92-1.614 0-3.39.096-5.327.29s-3.939.484-6.005.872c-2.066.387-4.116.871-6.15 1.453-2.002.581-3.874 1.275-5.617 2.082l-4.359-11.768c2.163-.774 4.472-1.485 6.925-2.13 2.486-.646 5.02-1.195 7.603-1.647 2.583-.484 5.165-.855 7.748-1.114 2.583-.258 5.085-.387 7.506-.387 10.686 0 18.628 2.728 23.826 8.184 5.197 5.456 7.796 13.817 7.796 25.085v24.89h-14.334v-5.375c-1.485.872-3.115 1.695-4.891 2.47-1.743.775-3.648 1.453-5.714 2.034s-4.294 1.033-6.683 1.356c-2.357.355-4.859.532-7.506.532-4.455 0-8.377-.484-11.767-1.452-3.358-.969-6.166-2.309-8.426-4.02s-3.971-3.712-5.133-6.005c-1.13-2.324-1.695-4.842-1.695-7.554zm15.108-.484c0 .936.243 1.84.727 2.712.484.839 1.259 1.598 2.324 2.276 1.066.645 2.422 1.178 4.068 1.598 1.679.387 3.697.581 6.053.581 2.518 0 4.956-.226 7.313-.678 2.356-.452 4.552-1.049 6.585-1.792 2.034-.743 3.875-1.598 5.521-2.567 1.646-.968 3.019-1.969 4.116-3.002v-2.518c-2.195-.613-4.374-1.13-6.537-1.55-2.131-.419-4.181-.742-6.15-.968-1.937-.259-3.778-.436-5.521-.533-1.711-.097-3.212-.145-4.503-.145-2.68 0-4.908.177-6.683.532-1.776.356-3.212.84-4.31 1.453-1.098.581-1.873 1.275-2.325 2.083-.452.807-.678 1.646-.678 2.518z"/><path d="m207.679 523.172h14.334v28.571c1.259-.871 2.744-1.695 4.455-2.47 1.711-.774 3.551-1.452 5.52-2.033 1.97-.582 4.004-1.033 6.102-1.356 2.099-.355 4.197-.533 6.295-.533 4.843 0 9.282.71 13.318 2.131 4.067 1.42 7.554 3.422 10.459 6.005 2.906 2.582 5.166 5.681 6.78 9.297 1.647 3.584 2.47 7.555 2.47 11.913 0 4.552-.856 8.668-2.567 12.349-1.711 3.648-4.084 6.779-7.118 9.394-3.003 2.583-6.586 4.584-10.751 6.005-4.132 1.388-8.62 2.082-13.462 2.082-2.066 0-4.116-.129-6.15-.387-2.002-.258-3.939-.614-5.811-1.065-1.841-.452-3.584-.985-5.23-1.599-1.615-.645-3.051-1.339-4.31-2.082v4.116h-14.334zm14.334 62.372c1.453 1.163 2.986 2.147 4.6 2.954s3.261 1.469 4.94 1.986c1.678.516 3.373.904 5.084 1.162 1.711.226 3.374.339 4.988.339 3.293 0 6.215-.436 8.765-1.307 2.583-.904 4.746-2.131 6.489-3.681 1.776-1.549 3.132-3.374 4.068-5.472s1.404-4.374 1.404-6.828c0-2.292-.468-4.455-1.404-6.489-.904-2.034-2.228-3.81-3.971-5.327-1.711-1.549-3.793-2.76-6.247-3.632-2.421-.904-5.149-1.356-8.184-1.356-1.937 0-3.874.194-5.811.581-1.937.356-3.809.872-5.617 1.55-1.776.678-3.455 1.501-5.036 2.47-1.55.968-2.906 2.05-4.068 3.244z"/><path d="m292.956 585.98c3.875 2.325 8.136 4.036 12.785 5.133 4.649 1.098 9.411 1.647 14.285 1.647 3.293 0 6.038-.226 8.233-.678s3.955-1.033 5.278-1.743c1.324-.711 2.26-1.518 2.809-2.422s.823-1.824.823-2.76c0-1.356-.597-2.518-1.792-3.487-1.162-.968-3.099-1.452-5.811-1.452-1.259 0-2.615.08-4.067.242-1.453.161-2.987.339-4.601.532-1.582.162-3.244.323-4.988.485-1.711.161-3.454.242-5.23.242-3.874 0-7.183-.42-9.927-1.259-2.712-.84-4.923-1.986-6.634-3.439-1.711-1.452-2.954-3.163-3.729-5.133-.775-2.001-1.162-4.148-1.162-6.44 0-2.906.678-5.585 2.034-8.039s3.293-4.568 5.811-6.344c2.518-1.808 5.553-3.212 9.104-4.213 3.583-1.001 7.57-1.501 11.961-1.501 2.292 0 4.681.145 7.167.436 2.518.258 4.988.613 7.409 1.065s4.746.985 6.973 1.598c2.228.581 4.197 1.211 5.908 1.889l-4.503 11.138c-3.648-1.356-7.296-2.422-10.945-3.196-3.615-.807-7.344-1.211-11.186-1.211-2.679 0-4.955.21-6.828.63-1.84.387-3.341.92-4.504 1.598-1.162.645-2.017 1.404-2.566 2.276-.517.839-.775 1.727-.775 2.663 0 .678.129 1.291.388 1.84.29.549.742 1.033 1.355 1.453.646.387 1.469.694 2.47.92 1.033.194 2.292.291 3.777.291 1.356 0 2.793-.081 4.31-.242 1.518-.162 3.1-.323 4.746-.485 1.646-.193 3.341-.371 5.085-.532 1.775-.162 3.583-.243 5.423-.243 3.422 0 6.409.404 8.959 1.211 2.583.807 4.714 1.937 6.392 3.39 1.679 1.453 2.938 3.164 3.778 5.133.839 1.969 1.259 4.116 1.259 6.441 0 3.002-.694 5.795-2.083 8.377-1.388 2.583-3.454 4.827-6.198 6.731-2.744 1.873-6.166 3.342-10.266 4.407-4.068 1.066-8.782 1.598-14.141 1.598-3.293 0-6.473-.21-9.54-.629-3.067-.388-5.988-.92-8.765-1.598-2.776-.711-5.391-1.534-7.845-2.47-2.421-.936-4.632-1.937-6.634-3.002z"/></g><g filter="url(#a)"><rect fill="#33a1fd" height="269" rx="55" width="849" x="881" y="88"/><g fill="#dcf2ff"><rect height="193.413" rx="38.5" width="191.686" x="918.456" y="125.793"/><rect height="39.2755" rx="19.6377" width="441.392" x="1146.13" y="131.722"/><rect height="39.2755" rx="19.6377" width="543.478" x="1146.13" y="202.862"/><rect height="39.2755" rx="19.6377" width="327.555" x="1146.13" y="274.003"/></g></g><g filter="url(#b)"><rect fill="#33a1fd" height="269" rx="55" width="849" x="637" y="584"/><g fill="#dcf2ff"><rect height="193.413" rx="38.5" width="191.686" x="674.456" y="621.793"/><rect height="39.2755" rx="19.6377" width="441.392" x="902.129" y="627.722"/><rect height="39.2755" rx="19.6377" width="543.478" x="902.129" y="698.862"/><rect height="39.2755" rx="19.6377" width="327.555" x="902.129" y="770.003"/></g></g><g filter="url(#c)"><path d="m1557.19 394.49c1.14-.515 2.38-.81 3.65-.867 1.26-.058 2.53.123 3.72.532s2.28 1.038 3.21 1.851c.94.813 1.69 1.793 2.23 2.885l22.15 45.748 17.33-7.793-22.25-45.656c-2.31-4.584-.19-10.085 4.63-12.193l2.69-.734 22.15-4.125-79.44-63.534v98.83l17.52-13.477zm34.38 70.593c-1.14.527-2.37.834-3.64.902-1.26.069-2.52-.103-3.71-.504-1.2-.401-2.29-1.023-3.23-1.831-.93-.808-1.69-1.786-2.23-2.875l-20.99-43.456-24.17 18.519c-1.64 1.283-3.66 2.017-5.97 2.017-2.55 0-5-.966-6.81-2.685-1.81-1.72-2.82-4.052-2.82-6.483v-137.519c0-2.432 1.01-4.763 2.82-6.483 1.81-1.719 4.26-2.685 6.81-2.685 2.31 0 4.53.825 6.16 2.109l.1-.092 110.64 88.379c1.39 1.106 2.43 2.565 3 4.208.56 1.644.62 3.406.18 5.082-.44 1.677-1.37 3.2-2.69 4.395-1.31 1.195-2.95 2.012-4.73 2.359l-30.43 5.684 21.19 43.364c2.5 4.584.19 9.993-4.62 12.102z" fill="#041633"/><path clip-rule="evenodd" d="m1560.84 393.623c-1.27.057-2.51.352-3.65.867l-2.41 1.467-17.52 13.477v-98.83l79.44 63.534-22.15 4.125-2.69.734c-4.82 2.108-6.94 7.609-4.63 12.193l22.25 45.656-17.33 7.793-22.15-45.748c-.54-1.092-1.29-2.072-2.23-2.885-.93-.813-2.02-1.442-3.21-1.851s-2.46-.59-3.72-.532z" fill="#dcf2ff" fill-rule="evenodd"/></g><circle cx="1486.5" cy="583.5" fill="#e15285" r="49.5"/><ellipse cx="1012" cy="219.5" fill="#33a1fd" rx="44" ry="43.5"/><ellipse cx="770.218" cy="718.5" fill="#33a1fd" rx="44" ry="43.5"/><path clip-rule="evenodd" d="m1092.22 320h-160.438c7.86-32.565 40.789-57 80.218-57 39.43 0 72.36 24.435 80.22 57z" fill="#33a1fd" fill-rule="evenodd"/><path clip-rule="evenodd" d="m850.436 819h-160.436c7.859-32.565 40.789-57 80.218-57s72.358 24.435 80.218 57z" fill="#33a1fd" fill-rule="evenodd"/></g></svg>