<svg fill="none" height="421" viewBox="0 0 2002 421" width="2002" xmlns="http://www.w3.org/2000/svg"><path d="m2002 421v-339h-302c-49.45 0-91.48 31.763-106.8 76h-153.2c-.17 0-.33 0-.5 0-135.03 0-244.5 109.466-244.5 244.5 0 6.224.23 12.393.69 18.5z" fill="#299848"/><path d="m0 421v-339h66c62.408 0 113 50.592 113 113h452v.002c124.356.539 225 101.515 225 225.998z" fill="#299848"/><path d="m407.44 10.341c.296-.2051.688-.2051.984 0l10.335 7.1599c.696.4825.355 1.5749-.492 1.5749h-20.669c-.847 0-1.189-1.0924-.492-1.5749z" fill="#c4c4c4"/><path clip-rule="evenodd" d="m508.198 65.3197c-12.716.0213-40.944.7866-57.048 13.6372h57.048v.192h57.048c-15.93-13.0293-43.85-13.8073-56.434-13.8292v-.0005c-.103 0-.207 0-.312.0001-.102-.0001-.202-.0001-.302-.0001z" fill="#c4c4c4" fill-rule="evenodd"/><path clip-rule="evenodd" d="m306.802 65.3197c-12.717.0213-40.944.7866-57.048 13.6372h57.048v.192h57.048c-15.93-13.0293-43.85-13.8073-56.435-13.8292v-.0005c-.103 0-.207 0-.312.0001-.101-.0001-.202-.0001-.301-.0001z" fill="#c4c4c4" fill-rule="evenodd"/><path d="m290.676 61.4295h231.217v17.2872h-231.217z" fill="#d25840"/><path d="m249.754 85.6317h315.492v109.342h-315.492z" fill="#d25840"/><rect fill="#c4c4c4" height="6.91489" rx="3.45745" width="324.568" x="245.432" y="96.4362"/><rect fill="#c4c4c4" height="6.91489" rx="3.45745" width="324.568" x="245" y="174.661"/><path clip-rule="evenodd" d="m373 26.3805c0-.8769.374-1.7187 1.068-2.2541 9.642-7.4336 25.235-8.0815 32.931-8.1238 0 0 .001-.0006.001-.0013 0-.0007.001-.0013.001-.0013.162 0 .328.0002.499.0006.171-.0004.337-.0006.499-.0006 0 0 .001.0006.001.0013 0 .0007.001.0013.001.0013 7.696.0423 23.289.6902 32.931 8.1238.694.5354 1.068 1.3772 1.068 2.2541v9.5942c0 1.6708-1.354 3.0253-3.025 3.0253h-62.95c-1.671 0-3.025-1.3545-3.025-3.0253z" fill="#69cb84" fill-rule="evenodd"/><path clip-rule="evenodd" d="m407.5 27.7205c-17.919.0481-57.694 1.77-80.386 30.6838h80.386v.4321h80.386c-22.447-29.3159-61.789-31.0665-79.522-31.1158v-.0012c-.144 0-.289.0001-.436.0003-.144-.0002-.287-.0003-.428-.0003z" fill="#c4c4c4" fill-rule="evenodd"/><rect fill="#c4c4c4" height="6.91489" rx="3.45745" width="242.453" x="286.057" y="54.5146"/><g fill="#000" fill-opacity=".15"><path d="m260 110h19.8803v18.5838h-19.8803z"/><path d="m534.867 110h19.8803v18.5838h-19.8803z"/><path d="m502.886 110h19.8803v18.5838h-19.8803z"/><path d="m291.549 110h19.8803v18.5838h-19.8803z"/><path d="m344.275 110h16.4229v18.5838h-16.4229z"/><path d="m344.402 144.408c0-4.535 3.676-8.211 8.211-8.211 4.535 0 8.211 3.676 8.211 8.211v28.524h-16.422z"/><path d="m399.289 144.408c0-4.535 3.676-8.211 8.211-8.211 4.535 0 8.211 3.676 8.211 8.211v28.524h-16.422z"/><path d="m453.743 144.408c0-4.535 3.677-8.211 8.212-8.211 4.535 0 8.211 3.676 8.211 8.211v28.524h-16.423z"/><path d="m399.162 110h16.4229v18.5838h-16.4229z"/><path d="m453.617 110h16.4229v18.5838h-16.4229z"/><path d="m260.126 136.197h19.8803v33.7101h-19.8803z"/><path d="m534.993 136.197h19.8803v33.7101h-19.8803z"/></g><path clip-rule="evenodd" d="m291.676 82.1742c0-1.6708 1.354-3.0253 3.025-3.0253h225.166c1.671 0 3.025 1.3545 3.025 3.0253v18.1518c0 1.671-1.354 3.025-3.025 3.025h-31.981v69.649h.754l13.19 10.305h9.826c1.67 0 3.025 1.354 3.025 3.025v8.643h2.161c1.67 0 3.025 1.355 3.025 3.026v.864c0 1.671-1.355 3.025-3.025 3.025h-219.116c-1.671 0-3.025-1.354-3.025-3.025v-.864c0-1.671 1.354-3.026 3.025-3.026h2.161v-8.643c0-1.671 1.354-3.025 3.025-3.025h10.23l13.021-10.305h.951v-69.649h-32.413c-1.671 0-3.025-1.354-3.025-3.025zm185.27 90.8258v-69.649h-29.015v69.649zm-39.955 0h-4.281v-69.649h4.281zm-15.221 0v-69.649h-29.015v69.649zm-39.955 0h-3.806v-69.649h3.806zm-14.746 0v-69.649h-29.015v69.649z" fill="#e0e0e0" fill-rule="evenodd"/><path d="m503.012 136.197h19.8803v33.7101h-19.8803z" fill="#000" fill-opacity=".15"/><path d="m291.676 136.197h19.8803v33.7101h-19.8803z" fill="#000" fill-opacity=".15"/><rect fill="#c4c4c4" height="6.91489" rx="3.45745" width="324.568" x="245" y="78.7168"/><rect fill="#69cb84" height="36" rx="18" transform="matrix(0 1 -1 0 762 -498)" width="58" x="630" y="132"/><rect fill="#69cb84" height="36" rx="18" transform="matrix(0 1 -1 0 861 -571)" width="58" x="716" y="145"/><rect fill="#69cb84" height="36" rx="18" transform="matrix(0 1 -1 0 1470 -1132)" width="58" x="1301" y="169"/><rect fill="#69cb84" height="36" rx="18" transform="matrix(0 1 -1 0 258 -100)" width="58" x="179" y="79"/><rect fill="#69cb84" height="36" rx="18" transform="matrix(0 1 -1 0 157 -99)" width="58" x="128" y="29"/><path d="m611.5 214v-35.5" stroke="#fff" stroke-width="2"/><path d="m697.5 227v-35.5" stroke="#fff" stroke-width="2"/><path d="m1282.5 251.5v-35.5" stroke="#fff" stroke-width="2"/><path d="m160.5 161v-35.5" stroke="#fff" stroke-width="2"/><path d="m109.5 111v-35.5" stroke="#fff" stroke-width="2"/><path clip-rule="evenodd" d="m1368.08 168.93c6.82-.491 12.2-6.18 12.2-13.127 0-7.268-5.89-13.161-13.16-13.161-6.77 0-12.34 5.109-13.08 11.68h-.08v16.909h-4.88v14.119h11.94.43v-.013c3.7-.225 6.63-3.294 6.63-7.047 0-.146-.01-.291-.02-.435h.02z" fill="#654f39" fill-rule="evenodd"/><path clip-rule="evenodd" d="m1354 157.628v9.238.1c3.16 2.908 5.14 7.075 5.14 11.703 0 8.787-7.13 15.91-15.91 15.91-8.79 0-15.91-7.123-15.91-15.91 0-4.056 1.51-7.758 4.01-10.568-2.96-2.523-4.83-6.279-4.83-10.473 0-7.596 6.15-13.754 13.75-13.754 2.81 0 5.42.841 7.59 2.286v-2.081c0-1.7 1.38-3.079 3.08-3.079s3.08 1.379 3.08 3.079z" fill="#9f8051" fill-rule="evenodd"/><path clip-rule="evenodd" d="m1326.9 154.304c.87-.214 1.99-.305 2.54.256.69.695-1.47 2.198-2.94 3.044 0-1.138.14-2.243.4-3.3z" fill="#041633" fill-opacity=".95" fill-rule="evenodd"/><path d="m1359.75 184.007c0-5.839-4.73-10.572-10.57-10.572-5.84 0-10.57 4.733-10.57 10.572v7.416c0 1.743 1.41 3.156 3.15 3.156h7.42c5.84 0 10.57-4.733 10.57-10.572z" fill="#826941"/><path d="m1349.08 188.42h-14.58c-1.7 0-3.08 1.379-3.08 3.08 0 1.7 1.38 3.079 3.08 3.079h14.58z" fill="#826941"/><path d="m1337.66 170.685c-1.2-1.202-3.15-1.202-4.35 0l-8.13 8.129c-1.21 1.203-1.21 3.152 0 4.355 1.2 1.202 3.15 1.202 4.35 0l8.13-8.129c1.2-1.202 1.2-3.152 0-4.355z" fill="#826941"/><circle fill="#041633" fill-opacity=".95" r="1.84755" transform="matrix(-1 0 0 1 1335.73 154.138)"/><rect fill="#69cb84" height="36" rx="18" transform="matrix(0 1 -1 0 1816 -1788)" width="58" x="1802" y="14"/><path d="m1783.5 96.5v-35.5" stroke="#fff" stroke-width="2"/><rect fill="#69cb84" height="36" rx="18" transform="matrix(0 1 -1 0 1701 -1605)" width="58" x="1653" y="48"/><path d="m1634.5 130.5v-35.5" stroke="#fff" stroke-width="2"/><rect fill="#69cb84" height="36" rx="18" transform="matrix(0 1 -1 0 1893 -1865)" width="58" x="1879" y="14"/><path d="m1860.5 96.5v-35.5" stroke="#fff" stroke-width="2"/></svg>