<svg width="1218" height="970" viewBox="0 0 1218 970" fill="none" xmlns="http://www.w3.org/2000/svg">
<rect x="516.723" y="154" width="453.105" height="375.519" rx="61.5189" transform="rotate(75 516.723 154)" fill="#E15285"/>
<rect x="479.417" y="218.616" width="270.001" height="270.001" rx="43.0632" transform="rotate(75 479.417 218.616)" fill="#FFC93D"/>
<rect x="295.994" y="577.277" width="270.001" height="54.8278" rx="27.4139" transform="rotate(-15 295.994 577.277)" fill="#FFC93D"/>
<circle cx="382.747" cy="378.391" r="72.4141" transform="rotate(-15 382.747 378.391)" fill="#E15285"/>
<path fill-rule="evenodd" clip-rule="evenodd" d="M544.015 494.209L301.834 559.101C300.526 506.765 340.35 456.56 399.869 440.612C459.388 424.664 518.979 448.23 544.015 494.209Z" fill="#E15285"/>
<rect x="615.988" y="256.904" width="366.876" height="479.847" rx="61.5189" transform="rotate(15 615.988 256.904)" fill="#DCF4FF"/>
<rect x="615.988" y="256.904" width="366.876" height="479.847" rx="61.5189" transform="rotate(15 615.988 256.904)" fill="#DCF4FF"/>
<rect x="615.988" y="256.904" width="366.876" height="479.847" rx="61.5189" transform="rotate(15 615.988 256.904)" fill="#DCF4FF"/>
<rect x="800.754" y="353.889" width="114.09" height="42.504" rx="21.252" transform="rotate(15 800.754 353.889)" fill="#DCF4FF"/>
<rect x="800.754" y="353.889" width="114.09" height="42.504" rx="21.252" transform="rotate(15 800.754 353.889)" fill="#DCF4FF"/>
<rect x="800.754" y="353.889" width="114.09" height="42.504" rx="21.252" transform="rotate(15 800.754 353.889)" fill="#33A1FD"/>
<rect x="651.657" y="313.939" width="128.63" height="124.156" rx="21.252" transform="rotate(15 651.657 313.939)" fill="#DCF4FF"/>
<rect x="651.657" y="313.939" width="128.63" height="124.156" rx="21.252" transform="rotate(15 651.657 313.939)" fill="#DCF4FF"/>
<rect x="651.657" y="313.939" width="128.63" height="124.156" rx="21.252" transform="rotate(15 651.657 313.939)" fill="#33A1FD"/>
<rect x="779.331" y="433.84" width="114.09" height="42.504" rx="21.252" transform="rotate(15 779.331 433.84)" fill="#DCF4FF"/>
<rect x="779.331" y="433.84" width="114.09" height="42.504" rx="21.252" transform="rotate(15 779.331 433.84)" fill="#DCF4FF"/>
<rect x="779.331" y="433.84" width="114.09" height="42.504" rx="21.252" transform="rotate(15 779.331 433.84)" fill="#33A1FD"/>
<rect x="608.812" y="473.84" width="268.446" height="42.504" rx="21.252" transform="rotate(15 608.812 473.84)" fill="#DCF4FF"/>
<rect x="608.812" y="473.84" width="268.446" height="42.504" rx="21.252" transform="rotate(15 608.812 473.84)" fill="#DCF4FF"/>
<rect x="608.812" y="473.84" width="268.446" height="42.504" rx="21.252" transform="rotate(15 608.812 473.84)" fill="#33A1FD"/>
<rect x="587.389" y="553.791" width="268.446" height="42.504" rx="21.252" transform="rotate(15 587.389 553.791)" fill="#DCF4FF"/>
<rect x="587.389" y="553.791" width="268.446" height="42.504" rx="21.252" transform="rotate(15 587.389 553.791)" fill="#DCF4FF"/>
<rect x="587.389" y="553.791" width="268.446" height="42.504" rx="21.252" transform="rotate(15 587.389 553.791)" fill="#33A1FD"/>
<rect x="565.966" y="633.741" width="268.446" height="42.504" rx="21.252" transform="rotate(15 565.966 633.741)" fill="#DCF4FF"/>
<rect x="565.966" y="633.741" width="268.446" height="42.504" rx="21.252" transform="rotate(15 565.966 633.741)" fill="#DCF4FF"/>
<rect x="565.966" y="633.741" width="268.446" height="42.504" rx="21.252" transform="rotate(15 565.966 633.741)" fill="#33A1FD"/>
<circle cx="853.199" cy="572.855" r="93.3969" transform="rotate(-30 853.199 572.855)" fill="#33A1FD" stroke="#FFC93D" stroke-width="42.504"/>
<rect x="877.653" y="658.833" width="42.504" height="139.816" rx="21.252" transform="rotate(-30 877.653 658.833)" fill="#FFC93D"/>
</svg>
