<svg fill="none" height="970" viewBox="0 0 961 970" width="961" xmlns="http://www.w3.org/2000/svg" xmlns:xlink="http://www.w3.org/1999/xlink"><clipPath id="a"><path d="m0 0h961v970h-961z"/></clipPath><g clip-path="url(#a)"><rect fill="#33a1fd" height="43" rx="21.5" transform="matrix(-1 0 0 -1 816 1506)" width="254" x="408" y="753"/><rect fill="#33a1fd" height="43" rx="21.5" transform="matrix(-1 0 0 -1 1034 1794)" width="163" x="517" y="897"/><rect fill="#33a1fd" height="42.9999" rx="21.5" transform="matrix(-1 0 0 -1 1654 1506)" width="381" x="827" y="753"/><rect fill="#33a1fd" height="43" rx="21.5" transform="matrix(-1 0 0 -1 1526 658)" width="254" x="763" y="329"/><rect fill="#33a1fd" height="43.9999" rx="22" width="310" x="207" y="357"/><rect fill="#33a1fd" height="44" rx="22" width="255" x="50" y="427"/><g fill="#dcf2ff"><rect height="43" rx="21.5" width="254" x="91" y="569"/><rect height="43" rx="21.5" width="223" x="738" y="639"/><rect height="42" rx="21" transform="matrix(-1 0 0 -1 1272 376)" width="231" x="636" y="188"/><rect height="41.9999" rx="21" transform="matrix(-1 0 0 -1 1612 800)" width="249" x="806" y="400"/><rect height="43" rx="21.5" transform="matrix(-1 0 0 -1 1778 942)" width="551" x="889" y="471"/><rect height="42.9998" rx="21.4999" transform="matrix(-1 0 0 -1 1434 1366)" width="550.998" x="717" y="683"/><rect height="43" rx="21.5" transform="matrix(-1 0 0 -1 1664 518)" width="551" x="832" y="259"/></g><rect fill="#33a1fd" height="42.9999" rx="21.4999" transform="matrix(-1 0 0 -1 1526 1084)" width="585" x="763" y="542"/><rect fill="#33a1fd" height="42.9999" rx="21.4999" transform="matrix(-1 0 0 -1 1922 1226)" width="576" x="961" y="613"/><rect fill="#dcf2ff" height="42.9999" rx="21.5" width="412" x="62" y="286"/><rect fill="#33a1fd" height="43" rx="21.5" transform="matrix(-1 0 0 -1 1470 100)" width="321" x="735" y="50"/><rect fill="#33a1fd" height="42.9999" rx="21.5" transform="matrix(-1 0 0 -1 756 376)" width="248" x="378" y="188"/><rect fill="#dcf2ff" height="42.9999" rx="21.5" width="387" x="295" y="780"/><rect fill="#dcf2ff" height="42.9999" rx="21.5" width="669" x="240" y="75"/><path clip-rule="evenodd" d="m315.383 608.793c-15.919 0-28.823-12.904-28.823-28.822v-162.027c0-15.918 12.904-28.822 28.822-28.822h433.796c15.918 0 28.822 12.904 28.822 28.822v162.027.104 59.808c0 16.672-20.171 25.006-31.939 13.195l-44.126-44.285z" fill="#041633" fill-rule="evenodd"/><rect fill="#dcf2ff" height="33.496" rx="16.748" transform="matrix(1 -.00000012 -.00000058 -1 311.691 515.316)" width="268.058"/><rect fill="#dcf2ff" height="33.496" rx="16.748" transform="matrix(1 -.00000012 -.00000058 -1 702.609 456.893)" width="50.2609"/><rect fill="#dcf2ff" height="33.496" rx="16.748" transform="matrix(1 -.00000012 -.00000058 -1 594.408 515.316)" width="158.461"/><rect fill="#dcf2ff" height="33.496" rx="16.748" transform="matrix(1 -.00000012 -.00000058 -1 448.512 573.739)" width="304.358"/><rect fill="#dcf2ff" height="33.496" rx="16.748" transform="matrix(1 -.00000012 -.00000058 -1 311.691 573.739)" width="120.068"/><rect fill="#dcf2ff" height="33.496" rx="16.748" transform="matrix(1 -.00000012 -.00000058 -1 311.691 456.893)" width="166.838"/><path clip-rule="evenodd" d="m662.618 457.671c15.918 0 28.822-12.904 28.822-28.822v-162.027c0-15.918-12.904-28.822-28.822-28.822h-433.796c-15.918 0-28.822 12.904-28.822 28.822v155.795 66.144c0 16.672 20.171 25.006 31.939 13.196l44.126-44.286z" fill="#fa5e21" fill-rule="evenodd"/><rect fill="#dcf2ff" height="33.496" rx="16.748" transform="matrix(-1 0 0 -1 1332.62 728.388)" width="268.058" x="666.31" y="364.194"/><rect fill="#dcf2ff" height="33.496" rx="16.748" transform="matrix(-1 0 0 -1 964.038 611.542)" width="256.889" x="482.019" y="305.771"/><rect fill="#dcf2ff" height="33.496" rx="16.748" transform="matrix(-1 0 0 -1 767.184 728.388)" width="158.461" x="383.592" y="364.194"/><rect fill="#dcf2ff" height="33.496" rx="16.748" transform="matrix(-1 0 0 -1 1058.976 845.234)" width="304.358" x="529.488" y="422.617"/><rect fill="#dcf2ff" height="33.496" rx="16.748" transform="matrix(-1 0 0 -1 1332.62 845.234)" width="120.068" x="666.31" y="422.617"/><rect fill="#dcf2ff" height="33.496" rx="16.748" transform="matrix(-1 0 0 -1 1332.62 611.542)" width="166.838" x="666.31" y="305.771"/></g></svg>