<svg fill="none" height="970" viewBox="0 0 1321 970" width="1321" xmlns="http://www.w3.org/2000/svg" xmlns:xlink="http://www.w3.org/1999/xlink"><mask id="a" height="276" maskUnits="userSpaceOnUse" width="419" x="890" y="137"><rect fill="#ffc93d" height="274.814" rx="43.472" width="417.488" x="890.588" y="137.926"/></mask><mask id="b" height="276" maskUnits="userSpaceOnUse" width="418" x="76" y="42"><rect fill="#e15285" height="274.814" rx="43.472" width="417.488" x="76.3699" y="42.7576"/></mask><mask id="c" height="276" maskUnits="userSpaceOnUse" width="418" x="829" y="680"><rect fill="#33a1fd" height="274.814" rx="43.472" width="417.488" x="829.492" y="680.738"/></mask><mask id="d" height="276" maskUnits="userSpaceOnUse" width="418" x="486" y="13"><rect fill="#dcf2ff" height="274.814" rx="43.472" width="417.488" x="486.416" y="13.3845"/></mask><mask id="e" height="277" maskUnits="userSpaceOnUse" width="418" x="903" y="412"><rect fill="#e15285" height="276.106" rx="43.472" width="417.488" x="903.512" y="412.857"/></mask><mask id="f" height="276" maskUnits="userSpaceOnUse" width="418" x="0" y="311"><rect fill="#33a1fd" height="276" rx="43.472" width="417.488" y="311"/></mask><mask id="g" height="276" maskUnits="userSpaceOnUse" width="418" x="459" y="667"><rect fill="#ffc93d" height="275" rx="43.472" width="417.488" x="459.393" y="667.814"/></mask><mask id="h" height="276" maskUnits="userSpaceOnUse" width="418" x="76" y="606"><rect fill="#dcf2ff" height="274.814" rx="43.472" width="417.488" x="76.3699" y="606.718"/></mask><path d="m0 0h1321v970h-1321z" fill="#fff"/><rect fill="#ffc93d" height="274.814" rx="43.472" width="417.488" x="890.588" y="137.926"/><g mask="url(#a)"><ellipse cx="682.323" cy="572.171" fill="#041633" fill-opacity=".2" rx="394.028" ry="341.363"/></g><circle cx="1274.08" cy="174.791" fill="#69cb84" r="12.9268"/><rect fill="#e15285" height="274.814" rx="43.472" width="417.488" x="76.3699" y="42.7576"/><g mask="url(#b)"><ellipse cx="703.08" cy="477.002" fill="#041633" fill-opacity=".2" rx="394.028" ry="341.363"/></g><circle cx="458.907" cy="79.6227" fill="#69cb84" r="12.9268"/><rect fill="#33a1fd" height="274.814" rx="43.472" width="417.488" x="829.492" y="680.738"/><g mask="url(#c)"><ellipse cx="621.227" cy="564.397" fill="#041633" fill-opacity=".2" rx="394.028" ry="341.363"/></g><circle cx="1212.99" cy="716.646" fill="#69cb84" r="12.9268"/><ellipse cx="285.505" cy="179.635" fill="#ffc93d" rx="61.0958" ry="60.5083"/><rect fill="#dcf2ff" height="274.814" rx="43.472" width="417.488" x="486.416" y="13.3845"/><g mask="url(#d)"><ellipse cx="695.639" cy="526.148" fill="#041633" fill-opacity=".2" rx="394.028" ry="341.363"/></g><circle cx="869.911" cy="46.4196" fill="#69cb84" r="12.9268"/><path clip-rule="evenodd" d="m396.422 318.031h-222.534c10.902-45.169 56.577-79.062 111.267-79.062s100.365 33.893 111.267 79.062z" fill="#ffc93d" fill-rule="evenodd"/><rect fill="#e15285" height="276.106" rx="43.472" width="417.488" x="903.512" y="412.857"/><g mask="url(#e)"><ellipse cx="695.247" cy="572.48" fill="#041633" fill-opacity=".2" rx="394.028" ry="341.777"/></g><ellipse cx="1287.01" cy="449.767" fill="#69cb84" rx="12.9268" ry="12.9425"/><rect fill="#33a1fd" height="276" rx="43.472" width="417.488" y="311"/><g mask="url(#f)"><ellipse cx="626.71" cy="470.563" fill="#041633" fill-opacity=".2" rx="394.028" ry="341.646"/></g><ellipse cx="382.537" cy="347.896" fill="#69cb84" rx="12.9268" ry="12.9375"/><rect fill="#ffc93d" height="275" rx="43.472" width="417.488" x="459.393" y="667.814"/><g mask="url(#g)"><ellipse cx="668.616" cy="551.394" fill="#041633" fill-opacity=".2" rx="394.028" ry="341.594"/></g><ellipse cx="842.888" cy="703.746" fill="#69cb84" rx="12.9268" ry="12.9355"/><rect fill="#dcf2ff" height="274.814" rx="43.472" width="417.488" x="76.3699" y="606.718"/><g mask="url(#h)"><ellipse cx="703.08" cy="490.377" fill="#041633" fill-opacity=".2" rx="394.028" ry="341.363"/></g><circle cx="458.907" cy="642.626" fill="#69cb84" r="12.9268"/><rect fill="#041633" height="336.134" rx="43.472" width="508.87" x="426.496" y="309.464"/><circle cx="893.933" cy="354.399" fill="#69cb84" r="15.7563"/><ellipse cx="209.01" cy="448.508" fill="#2f425c" rx="61.0958" ry="60.5083"/><ellipse cx="284.898" cy="742.421" fill="#33a1fd" rx="61.0958" ry="60.5083"/><ellipse cx="1112.04" cy="549.735" fill="#ffc93d" rx="61.0958" ry="60.5083"/><ellipse cx="1110.87" cy="273.629" fill="#69cb84" rx="61.0958" ry="60.5083"/><ellipse cx="694.945" cy="149.088" fill="#33a1fd" rx="61.0958" ry="60.5083"/><ellipse cx="1038.02" cy="816.441" fill="#2f425c" rx="61.0958" ry="60.5083"/><path clip-rule="evenodd" d="m396.422 881.65h-222.534c10.902-45.17 56.577-79.063 111.267-79.063 54.691 0 100.365 33.893 111.267 79.063z" fill="#33a1fd" fill-rule="evenodd"/><ellipse cx="667.922" cy="804.517" fill="#69cb84" rx="61.0958" ry="60.5083"/><ellipse cx="680.5" cy="454" fill="#dcf2ff" rx="85.5" ry="85"/><g clip-rule="evenodd" fill-rule="evenodd"><path d="m1223.56 688.963h-222.53c10.9-45.169 56.58-79.062 111.27-79.062s100.36 33.893 111.26 79.062z" fill="#ffc93d"/><path d="m1222.39 412.857h-222.534c10.904-45.169 56.574-79.062 111.264-79.062s100.37 33.893 111.27 79.062z" fill="#69cb84"/><path d="m806.468 288.316h-222.533c10.901-45.17 56.576-79.063 111.266-79.063 54.691 0 100.366 33.893 111.267 79.063z" fill="#33a1fd"/><path d="m1149.54 955.67h-222.529c10.901-45.17 56.576-79.063 111.269-79.063 54.69 0 100.36 33.893 111.26 79.063z" fill="#2f425c"/><path d="m526.372 646h310.039c-16.237-62.001-79.479-108.238-155.02-108.238-75.54 0-138.782 46.237-155.019 108.238z" fill="#dcf2ff"/><path d="m98.2676 587h221.9984c-11.363-44.629-56.745-77.984-110.999-77.984s-99.636 33.355-110.9994 77.984z" fill="#2f425c"/><path d="m557.095 943h222.167c-11.222-44.796-56.695-78.317-111.084-78.317s-99.862 33.521-111.083 78.317z" fill="#69cb84"/></g></svg>